<?xml version="1.0" encoding="UTF-8"?><svg id="b" xmlns="http://www.w3.org/2000/svg" width="381.6" height="243.71" xmlns:xlink="http://www.w3.org/1999/xlink" viewBox="0 0 381.6 243.71"><defs><pattern id="d" x="0" y="0" width="28.8" height="28.8" patternTransform="translate(-5397.43 -3746.89) rotate(9.64) scale(.5)" patternUnits="userSpaceOnUse" viewBox="0 0 28.8 28.8"><rect x="0" width="28.8" height="28.8" fill="none" stroke-width="0"/><path d="m28.8,32.4c1.99,0,3.6-1.61,3.6-3.6s-1.61-3.6-3.6-3.6-3.6,1.61-3.6,3.6,1.61,3.6,3.6,3.6Z" fill="#231f20" stroke-width="0"/><path d="m14.4,32.4c1.99,0,3.6-1.61,3.6-3.6s-1.61-3.6-3.6-3.6-3.6,1.61-3.6,3.6,1.61,3.6,3.6,3.6Z" fill="#231f20" stroke-width="0"/><circle cx="28.8" cy="14.4" r="3.6" fill="#231f20" stroke-width="0"/><path d="m14.4,18c1.99,0,3.6-1.61,3.6-3.6s-1.61-3.6-3.6-3.6-3.6,1.61-3.6,3.6,1.61,3.6,3.6,3.6Z" fill="#231f20" stroke-width="0"/><path d="m7.2,25.2c1.99,0,3.6-1.61,3.6-3.6s-1.61-3.6-3.6-3.6-3.6,1.61-3.6,3.6,1.61,3.6,3.6,3.6Z" fill="#231f20" stroke-width="0"/><path d="m21.6,25.2c1.99,0,3.6-1.61,3.6-3.6s-1.61-3.6-3.6-3.6-3.6,1.61-3.6,3.6,1.61,3.6,3.6,3.6Z" fill="#231f20" stroke-width="0"/><path d="m7.2,10.8c1.99,0,3.6-1.61,3.6-3.6s-1.61-3.6-3.6-3.6-3.6,1.61-3.6,3.6,1.61,3.6,3.6,3.6Z" fill="#231f20" stroke-width="0"/><path d="m21.6,10.8c1.99,0,3.6-1.61,3.6-3.6s-1.61-3.6-3.6-3.6-3.6,1.61-3.6,3.6,1.61,3.6,3.6,3.6Z" fill="#231f20" stroke-width="0"/><path d="m0,32.4c1.99,0,3.6-1.61,3.6-3.6s-1.61-3.6-3.6-3.6-3.6,1.61-3.6,3.6,1.61,3.6,3.6,3.6Z" fill="#231f20" stroke-width="0"/><circle cy="14.4" r="3.6" fill="#231f20" stroke-width="0"/><path d="m28.8,3.6c1.99,0,3.6-1.61,3.6-3.6s-1.61-3.6-3.6-3.6-3.6,1.61-3.6,3.6,1.61,3.6,3.6,3.6Z" fill="#231f20" stroke-width="0"/><path d="m14.4,3.6c1.99,0,3.6-1.61,3.6-3.6s-1.61-3.6-3.6-3.6-3.6,1.61-3.6,3.6,1.61,3.6,3.6,3.6Z" fill="#231f20" stroke-width="0"/><path d="m0,3.6c1.99,0,3.6-1.61,3.6-3.6S1.99-3.6,0-3.6-3.6-1.99-3.6,0-1.99,3.6,0,3.6Z" fill="#231f20" stroke-width="0"/></pattern></defs><g id="c"><path d="m167.55,63.75c-33.43-2.82-61.06-21.45-68.65-29.7,4.87,19.64,5.79,47.16-7.45,73.34-20.1,28.46-59.93,38.93-72.07,41.05-.74.13-1.5.24-2.27.34,16.09,6.62,36.38,23.14,43.05,38.36,7.13,18.13-1.77,41.04-7.23,56.56,25.35-13.35,46.23-30.1,83.73-29.22,21.19.46,53.14,9.07,61.71,17.66,9.28-13.69,29.62-26.42,54.71-29.76,23.14-1.73,43.59,6.85,73.29,20.53-4-8.93-19.45-34.65-17.68-42.14,4.15-18.81,32.36-28.75,50.14-29.58-13.43-13.57-14.55-32.2-9.14-50.98,4.87-18.15,21.25-37.22,30.08-63.03-26.35,11.31-75.75,20.37-92.99,16.37-15.61-2.85-32.37-12.33-38.93-27.49-11.44,11.13-35.17,33.14-63.55,37.57-5.41.88-10.95.79-16.76.12Z" fill="url(#d)" stroke-width="0"/><path d="m163.55,43.75c-33.43-2.82-61.06-21.45-68.65-29.7,4.87,19.64,5.79,47.16-7.45,73.34-20.1,28.46-59.93,38.93-72.07,41.05-.74.13-1.5.24-2.27.34,16.09,6.62,36.38,23.14,43.05,38.36,7.13,18.13-1.77,41.04-7.23,56.56,25.35-13.35,46.23-30.1,83.73-29.22,21.19.46,53.14,9.07,61.71,17.66,9.28-13.69,29.62-26.42,54.71-29.76,23.14-1.73,43.59,6.85,73.29,20.53-4-8.93-19.45-34.65-17.68-42.14,4.15-18.81,32.36-28.75,50.14-29.58-13.43-13.57-14.55-32.2-9.14-50.98,4.87-18.15,21.25-37.22,30.08-63.03-26.35,11.31-75.75,20.37-92.99,16.37-15.61-2.85-32.37-12.33-38.93-27.49-11.44,11.13-35.17,33.14-63.55,37.57-5.41.88-10.95.79-16.76.12Z" fill="#fff" stroke-width="0"/><path d="m163.2,47.23c-24.16-2.02-53.44-13.72-70.88-30.81,0,0,5.97-3.21,5.97-3.21,6.22,25.2,4.05,52.75-7.84,76-8.81,12.47-21.22,21.88-34.61,28.84-13.33,6.78-27.5,11.87-42.3,14.21,0,0,.89-6.71.89-6.71,9.5,3.83,18.03,9.33,25.9,15.79,9.75,8.33,19.83,18.65,22.27,31.75,1.56,7.78,1.03,15.97-.35,23.59-1.82,10.11-5.13,19.65-8.23,28.83,0,0-7.64-6.6-7.63-6.6,23.43-13,45.13-27.77,73.25-29.92,13.47-1.33,27.18.06,40.35,2.84,6.55,1.38,13.03,3.09,19.47,5.32,6.94,2.54,13.85,5.13,19.51,10.39,0,0-10.01.94-10.01.94,3.88-5.56,8.6-10.11,13.69-13.99,12.63-9.54,27.67-15.29,43.21-17.64,27.85-3.39,54.28,10.11,78.65,21.36,0,0-6.87,6.8-6.87,6.8-4.65-10.11-10.4-20.13-14.5-30.57-1.64-4.59-3.93-9.85-2.73-14.97,4.8-17.66,23.99-26.1,40.22-29.92,4.59-1.01,9.24-1.7,14.02-1.87,0,0-2.32,5.96-2.32,5.96-16.66-16.41-15.55-41.84-7.37-62.1,8.09-18.68,21.19-36.18,27.49-55.51,0,0,4.69,4.35,4.69,4.35-23.05,9.74-75.42,22.36-99.4,15.63-15.43-4.03-30.45-13.46-37.11-28.57,0,0,5.65,1.12,5.65,1.12-21.76,21.25-50.81,42.77-83.09,38.67h0Zm.69-6.97c22.4,3.02,43.46-8.34,60.63-21.74,7.18-5.62,13.98-12.07,20.52-18.53,0,0,2.02,4.66,2.02,4.66,5.67,12.92,19.07,21.1,32.41,24.57,8.39,2.31,17,1.95,25.78,1.17,26.05-2.7,52.43-8.8,76.34-19.49,0,0-2.52,7.39-2.52,7.39-6.48,19.88-19.44,37.21-27.63,55.9-7.09,17.59-8.67,40.28,5.87,54.52,0,0,5.33,5.4,5.33,5.4l-7.65.56c-8.43.6-16.97,2.86-24.75,6.28-9.07,4.15-18.82,10.46-21.16,20.6-.08.32-.05.2-.06.3,0,.13,0,.43.04.77.81,4.83,3.17,9.43,5.42,14.2,1.93,3.93,4.03,7.85,6.16,11.78,1.79,3.45,4.76,8.54,6.44,12.2,0,0,5.79,12.47,5.79,12.47-24.71-10.49-50.2-25.02-77.34-25.27-1.9.04-4.03.08-5.93.26-3.34.49-6.69,1.19-9.96,2.04-15.27,4.14-30.81,12.34-39.88,25.49,0,0-4.7,6.49-4.7,6.49-1.99-1.97-5.52-6.23-7.98-7.62-9-5.41-19.46-8.25-29.71-10.72-17.95-4.22-36.81-5.08-54.65-.02-18.51,5.05-33.89,15.53-51.25,24.57,0,0-12.5,6.41-12.5,6.41,6.15-17.38,14.87-35.24,15.12-53.62.16-9.5-3.28-16.71-9.24-23.86-5.88-7.18-13.11-13.45-20.84-18.64-6.8-4.8-16.41-8.59-23.99-11.82,0,0,12.68-1.67,12.68-1.67,26.31-4.57,55.99-17.78,71.91-39.94,10.06-19.17,12.98-47.66,6.91-70.48,0,0-3.21-13.06-3.21-13.06l9.18,9.84c16.43,15.82,43.77,26.69,66.42,28.59h0Z" stroke-width="0"/><path d="m120.26,132.91c4.87-.4,7.99,1.13,10.73,4.32,4.33,5.37-12.24,17.08-19.26,21.5-2.39,1.52-10.86,6.56-18.1,9.59-3.9,1.59-12.17.22-12.59-2.22-.59-3.28,1.35-14.99,6.21-24.54.46-.96,1.12-3.07,1.68-4.05-1.92-1.2-2.12-4,1.26-6.51,6.82-5.08,12.6-8.3,20.51-12.27,5.43-2.72,10.93-3.41,16.43.02,3.62,2.39-1.38,8.8-6.86,14.16Zm-3.3,7.79c-4.14.63-7.25,2.77-10.92,3.97-5.7,4.23-11.05,7.85-14.08,10.01-.53,2.24-1.05,4.45-1.26,7.27,6.26-2.78,27.64-15.63,29.38-20.89.17-.67.18-.87-3.13-.35Zm-1.51-16.32c-4.67,2.15-10.15,5.17-14.04,8.05-1.94,3.7-3.64,7.78-5.01,10.48,1.52-1.18,3.92-2.59,5.54-3.99,5.01-4.21,12.4-10.17,15.91-15.44-.95.3-1.79.63-2.39.91Z" stroke-width="0"/><path d="m167.38,142.49c-.14.93-.36,1.26-.83,1.84-2.48,3.02-5.87,2.26-8.15-.18-3.56,2.91-8.21,5.93-13.25,7.25-3.71.94-9.37-1.24-10.36-4.45-1.01-3.32-1.15-5.05.37-10.56,1.85-6.69,9.95-13.36,16.9-12.67,2.51.26,5.1.54,7.48,1,.99-2.61,1.96-5.39,2.77-8.22,1.29-4.48-10.16.58-13.47,3.31-3.05,2.53-5.81,4.99-6.79,2.47-.66-1.5,2.15-5.26,5.13-8.47,3.68-3.96,9.04-7.23,14.33-8.54,4.36-1.14,12.93,4.61,11.84,8.98-3.57,14.23-5.12,20.34-5.96,28.25Zm-20.44-8.12c-3.09,2.32-7.01,6.93-5.71,9.27,1.17,2.01,9.81-4.48,15.25-8.84,0-.27.08-.57.15-.86-3.02-.51-7.49-1.27-9.69.43Z" stroke-width="0"/><path d="m207.36,111.86c-2.4,1.96-8.88,7.19-10.17,10.08,2.39,3.8,13.13,8.29,15.35,11.09,1.21,1.42.99,3.99-1.66,4.33-5.83.73-13.39-2.49-18.65-4.91-1.6-.75-3.98-2.06-5.95-3.57-.46,3.15-.77,6.46-.81,10.19-.06,6.72-9.7,1.28-9.69-5.2.02-14.36,7.33-34.35,13.79-50.57,4.55-11.51,13.07.74,10.79,4.17-2.39,3.57-7.03,16.26-9.8,24.67,4.32-4.25,9.46-8.24,14.28-11.19,3.42-2.07,11.8-3.54,12.61,2.21.11,1.24-8.78,7.63-10.09,8.7Z" stroke-width="0"/><path d="m248.82,130.67c-.24,1.15-.5,1.52-1.04,2.16-2.8,3.29-6.08,1.57-8.08-2.09-3.86,2.89-8.8,5.7-13.96,6.2-3.78.33-9.21-3.93-9.88-8.37-.67-4.58-.65-6.88,1.45-13.62,2.54-8.18,11.42-14.52,18.32-11.86,2.49.97,5.06,1.98,7.38,3.14,1.29-3.07,2.58-6.35,3.72-9.73,1.82-5.32-10.26-1.83-13.9.77-3.34,2.43-6.39,4.85-7.1,1.36-.5-2.09,2.74-6.15,6.1-9.44,4.15-4.05,9.92-6.77,15.4-7.07,4.52-.3,12.43,9.02,10.81,14.22-5.26,17.05-7.5,24.46-9.23,34.33Zm-19.49-15.27c-3.35,2.19-7.75,7.14-6.69,10.51.96,2.9,10.26-3.35,16.18-7.59.03-.35.14-.7.25-1.06-2.96-1.38-7.35-3.48-9.74-1.85Z" stroke-width="0"/><path d="m262.05,134.88c-3.12.07-5.94-2.58-6.41-6.65-.36-3.08,4.05-7.59,6.17-9.3,2.45-2.08,10.79-4.11,11.37,3.02.35,4.62-6.21,12.85-11.13,12.93Zm16.74-42.53c-2.16,5.28-5.39,9.24-6.31,15.5-.78,5.84-7.21,1.08-6.41-4.69,1.7-12.74,7.25-25.22,10.92-38.61,2.74-10.16,13.05-.15,12.99,6.59-.05,8.35-9.87,17.67-11.2,21.21Z" stroke-width="0"/><path d="m289.17,134.92c-3.12-.1-5.83-3.1-6.13-7.49-.24-3.33,4.36-7.91,6.55-9.6,2.53-2.09,10.97-3.77,11.25,3.88.15,4.96-6.75,13.4-11.66,13.21Zm18.53-44.52c-2.39,5.51-5.8,9.55-6.98,16.19-1.02,6.2-7.26.73-6.22-5.39,2.23-13.52,8.33-26.52,12.59-40.58,3.19-10.67,13.12.66,12.76,7.84-.42,8.89-10.67,18.25-12.15,21.95Z" stroke-width="0"/><path d="m161.03,94.96c-6.34-4.86-12.95-8.2-20.09-10.31-1.12-.47-2.4-.92-3.46-.49-.82.32-1.32,1.12-1.78,1.86-3.39,5.49-6.62,10.96-9.54,16.68" fill="none" stroke="#f33" stroke-linecap="round" stroke-linejoin="round" stroke-width="7"/><path d="m167.48,80.21c-7.18-.54-14.32-1.72-21.24-3.64-2.11-.59-4.22-1.28-5.97-2.59-1.98-1.61-3.21-4.14-4.07-7.02-1.14-3.86-1.89-8.22-2.43-12.73" fill="none" stroke="#f33" stroke-linecap="round" stroke-linejoin="round" stroke-width="7"/><path d="m119.69,61.51c2.74,2.74,5.18,5.82,7.2,9.12.58.95,1.14,1.94,1.37,2.98.35,1.57-.08,3.1-.61,4.58-2.24,6.14-5.71,11.88-10.3,17.02" fill="none" stroke="#f33" stroke-linecap="round" stroke-linejoin="round" stroke-width="7"/></g></svg>