<?xml version="1.0" encoding="UTF-8"?><svg id="b" xmlns="http://www.w3.org/2000/svg" width="513.24" height="273.59" xmlns:xlink="http://www.w3.org/1999/xlink" viewBox="0 0 513.24 273.59"><defs><pattern id="d" x="0" y="0" width="28.8" height="28.8" patternTransform="translate(-5079.85 -2861) rotate(16.93) scale(.5)" patternUnits="userSpaceOnUse" viewBox="0 0 28.8 28.8"><rect x="0" width="28.8" height="28.8" fill="none" stroke-width="0"/><path d="m28.8,32.4c1.99,0,3.6-1.61,3.6-3.6s-1.61-3.6-3.6-3.6-3.6,1.61-3.6,3.6,1.61,3.6,3.6,3.6Z" fill="#231f20" stroke-width="0"/><path d="m14.4,32.4c1.99,0,3.6-1.61,3.6-3.6s-1.61-3.6-3.6-3.6-3.6,1.61-3.6,3.6,1.61,3.6,3.6,3.6Z" fill="#231f20" stroke-width="0"/><circle cx="28.8" cy="14.4" r="3.6" fill="#231f20" stroke-width="0"/><path d="m14.4,18c1.99,0,3.6-1.61,3.6-3.6s-1.61-3.6-3.6-3.6-3.6,1.61-3.6,3.6,1.61,3.6,3.6,3.6Z" fill="#231f20" stroke-width="0"/><path d="m7.2,25.2c1.99,0,3.6-1.61,3.6-3.6s-1.61-3.6-3.6-3.6-3.6,1.61-3.6,3.6,1.61,3.6,3.6,3.6Z" fill="#231f20" stroke-width="0"/><path d="m21.6,25.2c1.99,0,3.6-1.61,3.6-3.6s-1.61-3.6-3.6-3.6-3.6,1.61-3.6,3.6,1.61,3.6,3.6,3.6Z" fill="#231f20" stroke-width="0"/><path d="m7.2,10.8c1.99,0,3.6-1.61,3.6-3.6s-1.61-3.6-3.6-3.6-3.6,1.61-3.6,3.6,1.61,3.6,3.6,3.6Z" fill="#231f20" stroke-width="0"/><path d="m21.6,10.8c1.99,0,3.6-1.61,3.6-3.6s-1.61-3.6-3.6-3.6-3.6,1.61-3.6,3.6,1.61,3.6,3.6,3.6Z" fill="#231f20" stroke-width="0"/><path d="m0,32.4c1.99,0,3.6-1.61,3.6-3.6s-1.61-3.6-3.6-3.6-3.6,1.61-3.6,3.6,1.61,3.6,3.6,3.6Z" fill="#231f20" stroke-width="0"/><circle cy="14.4" r="3.6" fill="#231f20" stroke-width="0"/><path d="m28.8,3.6c1.99,0,3.6-1.61,3.6-3.6s-1.61-3.6-3.6-3.6-3.6,1.61-3.6,3.6,1.61,3.6,3.6,3.6Z" fill="#231f20" stroke-width="0"/><path d="m14.4,3.6c1.99,0,3.6-1.61,3.6-3.6s-1.61-3.6-3.6-3.6-3.6,1.61-3.6,3.6,1.61,3.6,3.6,3.6Z" fill="#231f20" stroke-width="0"/><path d="m0,3.6c1.99,0,3.6-1.61,3.6-3.6S1.99-3.6,0-3.6-3.6-1.99-3.6,0-1.99,3.6,0,3.6Z" fill="#231f20" stroke-width="0"/></pattern><pattern id="e" patternTransform="translate(-3787.21 -3781.09) scale(.5)" xlink:href="#d"/></defs><g id="c"><path d="m143.92,69.81c-37.83,3.91-57.7-11.04-64.65-18.56,5.17,15.03,3.79,30.74-7.48,43.67-11.72,13.86-36.55,20.8-46.85,23.23-.63.16-1.31.31-1.99.46,15.73,2.25,34.33,10.92,43.17,21.59,9.28,15.27,1.48,36.28-6.09,51.24,23.42-12.35,40.07-27.04,70.65-30.67,16.68-3,38.26,7.34,42.79,16.89,8.25-14.92,29.58-25.67,48.63-25.57,13.34,4.59,22.14,17.32,36.18,37.42-2.2-9.97-7.99-27.35-4.94-35.16,4.06-10.36,31.8-.61,40.77,3.2-6.84-12.28-8.68-29.21-4.71-45.11,4.68-17.01,18.57-32.35,42.53-61.98-34.2,13.42-74.54,22.53-90.36,16.03-17.85-5.92-30.62-18.8-39.96-38.84-6.66,11.81-16.93,37.48-57.68,42.15Z" fill="url(#d)" stroke-width="0"/><path d="m139.92,49.81c-37.83,3.91-57.7-11.04-64.65-18.56,5.17,15.03,3.79,30.74-7.48,43.67-11.72,13.86-36.55,20.8-46.85,23.23-.63.16-1.31.31-1.99.46,15.73,2.25,34.33,10.92,43.17,21.59,9.28,15.27,1.48,36.28-6.09,51.24,23.42-12.35,40.07-27.04,70.65-30.67,16.68-3,38.26,7.34,42.79,16.89,8.25-14.92,29.58-25.67,48.63-25.57,13.34,4.59,22.14,17.32,36.18,37.42-2.2-9.97-7.99-27.35-4.94-35.16,4.06-10.36,31.8-.61,40.77,3.2-6.84-12.28-8.68-29.21-4.71-45.11,4.68-17.01,18.57-32.35,42.53-61.98-34.2,13.42-74.54,22.53-90.36,16.03-17.85-5.92-30.62-18.8-39.96-38.84-6.66,11.81-16.93,37.48-57.68,42.15Z" fill="#fff" stroke-width="0"/><path d="m140.3,53.29c-23.78,2.47-50.3-1.76-67.6-19.66,0,0,5.88-3.51,5.88-3.51,6.41,17.79,2.77,37.31-11.34,50.45-13.24,11.92-30.59,17.42-47.57,21.47,0,0-.22-6.89-.22-6.89,16.45,2.29,34.78,9.6,46.14,22.18,8.71,13.07,5.77,29.94.78,43.69-1.61,4.43-3.48,8.71-5.51,12.87,0,0-7.36-7.24-7.36-7.24,9.01-4.82,17.73-10.52,27.07-15.85,12.99-7.57,27.41-13.39,42.41-15.55,2.8-.37,5.65-.92,8.49-1.01,13.38-.28,26.72,4.11,37.21,12.52,2.67,2.28,4.98,4.74,6.67,8.13,0,0-11.59-.37-11.59-.37,2.85-4.99,6.6-9.12,10.69-12.58,12.5-10.32,28.49-15.98,44.7-15.63,14.31,4.72,23.57,17.64,31.83,29.3,2.56,3.66,5.05,7.32,7.53,10.96,0,0-9.27,4.07-9.27,4.07-2.03-10.01-5.24-19.77-5.33-30.27-.21-11.69,7.16-15.67,17.78-14.7,10.52,1.06,20.23,4.58,29.8,8.68,0,0-4.43,4.92-4.43,4.92-2.63-4.81-4.49-9.95-5.63-15.2-2.31-10.52-2.04-21.37.44-31.85,4.09-15.46,14.66-28.1,24.1-40.24,6.38-7.98,12.86-15.8,19.23-23.7,0,0,4,5.46,4,5.46-14.61,5.69-29.56,10.49-44.9,14.02-14.26,3.01-33.93,7.14-48.07,2-19.01-5.95-33.49-22.12-41.81-40.6,0,0,6.22.24,6.22.24-1.47,2.62-2.92,5.47-4.53,8.26-11.85,21.74-31.56,33.04-55.82,35.65h0Zm-.76-6.96c17.87-1.85,35.14-9.57,45.64-24.58,4.83-6.65,8.51-14.56,12.69-21.75,8.49,19.58,19.9,36.44,41.03,43.27,6.42,2.43,14.37,2.02,21.36,1.45,7.51-.71,15.03-2.1,22.48-3.79,19.06-4.26,38.01-11.21,56.17-18.49-8.98,11.13-18.57,22.89-27.47,33.91-6.28,7.91-12.53,15.86-17.31,24.37-9.45,16.21-9.78,38.66-.96,55.15,0,0,4.81,8.82,4.81,8.82l-9.24-3.89c-7.84-2.98-27.05-9.56-34.6-5.67-4.01,4.49,3.82,26.76,5.19,33.29,0,0,6.18,25.28,6.18,25.28-9.22-12.32-21.59-30.47-31.07-42.01-5.09-6-10.85-11.69-18.22-14.08,0,0,1.86.32,1.86.32-12.61.2-25.78,5.26-35.33,13.62-3.12,2.77-5.77,5.93-7.58,9.29l-5.23,9.74s-6.36-10.11-6.36-10.11c-1.4-2.98-5.5-5.91-8.67-7.77-7.77-4.42-17.49-7.23-26.36-6.13-2.37.33-5.11.63-7.52,1.08-23.13,3.59-41.86,17.78-62.46,28.6,0,0-15.01,7.76-15.01,7.76,8.44-17.56,25.11-42.09,14.73-61.46-7.44-9.17-25.72-18.36-39.82-20.46,0,0-18.46-3.11-18.46-3.11,26.45-5.42,67-12.26,73.84-43.41,1.63-7.58.72-15.64-1.87-23.16,0,0-5.37-15.56-5.37-15.56,0,0,11.25,12.05,11.25,12.05,3.6,3.86,8.13,7.09,12.95,9.67,14.8,7.89,32.24,9.48,48.76,7.79h0Z" stroke-width="0"/><path d="m100.43,124.84c-4.11.45-6.15.75-9.04,1.21.17-3.03.08-5.1-.42-9.63l-4.25-38.43c-.36-3.26-.85-5.78-1.53-8.64,2.99-.19,4.12-.31,8.93-.84l16.7-1.85c10.97-1.21,17.68,3.06,18.65,11.91.48,4.32-.44,7.64-2.86,10.42-1.39,1.66-2.6,2.44-5.26,3.59,3.7.38,5.4.91,7.51,2.47,3.2,2.37,5.08,5.74,5.59,10.34,1.1,9.91-4.87,16.23-16.62,17.53l-17.41,1.93Zm11.96-35c5.38-.6,8.24-3.85,7.71-8.66-.25-2.26-1.17-4.1-2.42-5.03-1.71-1.24-4.21-1.76-7.04-1.44l-14.65,1.62,1.67,15.15,14.72-1.63Zm-11.93,26.9l15.22-1.68c6.3-.7,9.49-4.2,8.86-9.94-.31-2.83-1.23-4.66-2.95-5.91-1.94-1.36-4.73-1.91-7.98-1.55l-15.08,1.67,1.93,17.41Z" stroke-width="0"/><path d="m167.02,112.82c-2.53,3-4.19,4.19-7.01,5.29-1.99.79-4.22,1.33-6.49,1.58-8.64.96-14.37-2.92-15.19-10.36-.55-4.95,2.07-9.76,6.73-12.35,4.39-2.42,9.55-3.71,19.65-5.04l-.4-3.61c-.45-4.11-3.45-5.92-8.83-5.33-2.83.31-5.65,1.41-7.13,2.87-1.24,1.14-1.76,2.2-2.33,4.84l-9.24-.63c1.17-4.29,2.24-6.27,4.72-8.48,3.19-2.93,7.03-4.43,13.12-5.11,6.79-.75,11.03,0,14.41,2.63,2.66,2,3.88,4.59,4.41,9.4l2.11,19.04c.41,3.75.77,5.65,1.54,8.78l-9.56,1.06-.51-4.6Zm-1.63-14.72c-13.49,1.78-18.54,4.7-17.93,10.22.37,3.33,3.07,5.11,7.04,4.67,3.75-.42,7.28-2.24,9.42-4.84,1.51-1.89,2.13-4.03,1.86-6.51l-.39-3.54Z" stroke-width="0"/><path d="m185.93,58.36c-.06,2.73.08,5.22.53,9.33l2.58,23.29,9.45-11.72c2.91-3.48,3.96-5.02,4.9-6.92l13.24-1.46q-3.64,4.06-6.36,7.29l-8.99,10.67,13.77,15.03q5.54,6.05,7.35,7.5l-12.6,1.39c-1.1-2.17-2.1-3.49-5.56-7.48l-8.88-10.34-5.19,6.16.51,4.6c.51,4.6.77,6.29,1.5,9l-9.98,1.1c.03-2.94-.09-5.36-.52-9.26l-4.19-37.87c-.47-4.25-.87-6.57-1.52-9.22l9.98-1.1Z" stroke-width="0"/><path d="m251.1,103.53c-2.53,3-4.19,4.19-7.01,5.29-1.99.79-4.22,1.33-6.49,1.58-8.64.96-14.37-2.92-15.19-10.36-.55-4.95,2.07-9.76,6.73-12.35,4.39-2.42,9.55-3.71,19.65-5.04l-.4-3.61c-.45-4.11-3.45-5.92-8.83-5.33-2.83.31-5.65,1.41-7.13,2.87-1.24,1.14-1.76,2.2-2.33,4.84l-9.24-.63c1.17-4.29,2.25-6.27,4.72-8.48,3.19-2.93,7.03-4.43,13.12-5.1,6.79-.75,11.03,0,14.41,2.63,2.66,2,3.87,4.59,4.41,9.4l2.11,19.04c.41,3.75.77,5.65,1.54,8.78l-9.56,1.06-.51-4.6Zm-1.63-14.72c-13.49,1.78-18.54,4.7-17.93,10.22.37,3.33,3.07,5.11,7.04,4.67,3.75-.42,7.28-2.24,9.42-4.84,1.51-1.89,2.13-4.03,1.86-6.51l-.39-3.54Z" stroke-width="0"/><circle cx="293.38" cy="83.38" r="26.02" stroke-width="0"/><path d="m314.17,149.44c-31.28,7.83-47.63-3.42-53.34-9.25,4.22,12.73,3.02,26.86-6.32,38.9-9.72,12.26-30.22,18.74-38.71,20.92-.52.14-1.08.27-1.64.4,12.95,1.65,28.25,8.57,35.49,17.41,7.42,12.93.91,30.51-5.27,42.75,18.51-9.35,31.76-20.93,55.17-21.75,12.95-1.27,29.46,11.15,32.86,20.94,7.37-13.76,27.17-23.19,47.09-21.98,15.12,4.99,24.52,17.63,39.29,35.81-1.47-9.3-6.37-26.03-1.37-34.45,6.81-11.46,40.99-5.76,50.86-3.36-6.16-12.22-7.52-30.9-4.65-49.29,2.87-18.39,14.46-32.8,26.2-57.87-25.34,12.76-68.4,20.69-87.25,14.63-18.85-6.06-31.36-18.67-40.01-37.25-5.55,10.98-14.36,36.1-48.42,43.46Z" fill="url(#d)" stroke-width="0"/><path d="m310.17,129.44c-31.28,7.83-47.63-3.42-53.34-9.25,4.22,12.73,3.02,26.86-6.32,38.9-9.72,12.26-30.22,18.74-38.71,20.92-.52.14-1.08.27-1.64.4,12.95,1.65,28.25,8.57,35.49,17.41,7.42,12.93.91,30.51-5.27,42.75,18.51-9.35,31.76-20.93,55.17-21.75,12.95-1.27,29.46,11.15,32.86,20.94,7.37-13.76,27.17-23.19,47.09-21.98,15.12,4.99,24.52,17.63,39.29,35.81-1.47-9.3-6.37-26.03-1.37-34.45,6.81-11.46,40.99-5.76,50.86-3.36-6.16-12.22-7.52-30.9-4.65-49.29,2.87-18.39,14.46-32.8,26.2-57.87-25.34,12.76-68.4,20.69-87.25,14.63-18.85-6.06-31.36-18.67-40.01-37.25-5.55,10.98-14.36,36.1-48.42,43.46Z" fill="#fff" stroke-width="0"/><path d="m310.96,132.85c-14.25,3.56-30.03,4.34-43.84-1.66-4.67-2.04-9.06-4.79-12.8-8.55l5.82-3.55c4.84,14.25,2.58,30.13-6.82,42.07-8.19,9.99-19.88,15.31-31.53,19.49-3.57,1.22-7.09,2.28-10.86,3.18,0,0-.33-6.89-.33-6.89,14,1.74,28.84,7.37,38.53,18.03,9.34,14.87,2.83,33.74-3.91,48.05,0,0-7.28-7.28-7.28-7.28,10.99-5.65,21.99-13.48,34.04-18.05,8.58-3.29,17.95-5.04,27.15-4.92,13.85.85,30.34,11.84,35.43,24.86,0,0-11.9-.94-11.9-.94,10.04-18,35.06-26.99,54.66-24.45,18.46,6.27,29.77,23.75,41.47,38.09,0,0-9.11,4.06-9.11,4.06-.47-3.36-1.21-7.03-1.81-10.74-1.28-8.93-3.13-19.59,2.34-27.71,7.13-9.01,22.41-8,32.55-7.32,7.59.71,14.92,1.9,22.34,3.76,0,0-3.95,4.98-3.95,4.98-8.2-17.15-7.82-40.41-3.46-58.43,5.47-18.49,17.23-34.37,24.97-51.8,0,0,4.74,4.61,4.74,4.61-5.65,2.81-11.45,5.14-17.34,7.15-19.66,6.65-54.15,14.11-74.06,7.16-18.78-6.13-32.61-20.91-40.6-38.58,0,0,6.3.1,6.3.1-2.32,4.75-5.16,10.94-7.95,15.35-9.35,15.77-24.96,26.29-42.8,29.94h0Zm-1.59-6.82c16.12-3.28,30.02-12.58,38.43-26.79,3.85-6.33,7.52-14.74,10.84-21.4,0,0,3.12,6.65,3.12,6.65,8.01,17.59,21.48,31.32,40.55,36.1,23.59,4.46,60.59-4.6,81.96-15.12,0,0,8.97-4.45,8.97-4.45-5.28,11.62-11.29,23.56-17.45,34.54-4.5,8.32-8.93,16.56-11.33,25.22-3.24,13.25-3.64,27.41-1.19,40.8,1.15,6.78,4.39,13.31,7.43,19.32-9.21-2.41-18.96-4.04-28.47-4.52-3.55-.19-7.09-.22-10.54.01-4.71.42-9.66.93-13.24,3.62-6.06,5.75.22,24.76,1.45,32.76,0,0,3.46,18.93,3.46,18.93,0,0-12.57-14.87-12.57-14.87-10.64-12.15-21.22-28.42-37.11-33.52,0,0,1.48.28,1.48.28-8.14-.36-16.46,1.21-23.85,4.51-3.69,1.65-7.14,3.74-10.11,6.23-2.96,2.49-5.42,5.39-7.04,8.5l-6.21,11.95s-5.69-12.89-5.69-12.89c-.36-1.09-1.1-2.47-2.06-3.79-3.1-4.23-7.54-7.75-12.19-10.24-5.04-2.74-9.76-3.52-15.09-2.92-18.61.86-33.56,12.22-50.09,20.46,0,0-14.69,7.24-14.69,7.24,0,0,7.41-14.51,7.41-14.51,6.57-12.14,11.53-26.86,6.63-37.46-7.83-9.35-20.61-14.7-32.46-16.79,0,0-18.47-2.58-18.47-2.58,11.85-2.86,27.21-5.85,38.07-11.2,7.87-3.73,15.2-8.22,19.95-15.27,0,0,1.34-2.12,1.34-2.12l1.19-2.2c4.57-9.02,4.9-19.63,1.7-29.23,0,0-4.67-14.14-4.67-14.14l10.49,10.59c13.06,12.64,33.34,12.52,50.05,8.29h0Z" stroke-width="0"/><path d="m219.01,236.77c10.47-7.1,22.14-12.17,33.78-17.02,35.17-13.98,71.9-25.38,109.85-28.07,12.62-.8,25.29-.86,37.93-.54,12.23.66,25.61,1.22,37.8,2.05,25.09,1.89,50.11,5.26,74.29,11.76.41.11.65.53.54.94-.1.39-.49.63-.88.56-24.43-4.49-49.36-5.21-74.09-4.22-12.37.42-24.7,1.52-36.92,3.44-12.04,1.56-24.54,3.54-36.57,5.42-12.17,1.7-24.33,3.28-36.55,4.68-9.14,1-18.37,2.24-27.49,3.4-9.17,1.05-18.52,2-27.58,3.71-12.15,2.19-24.28,4.8-36.07,8.49-5.88,1.86-11.72,3.95-17.25,6.71-.38.19-.85.04-1.04-.34-.17-.35-.06-.76.25-.97h0Z" fill="url(#e)" stroke-width="0"/><path d="m216.01,221.77c10.47-7.1,22.14-12.17,33.78-17.02,35.17-13.98,71.9-25.38,109.85-28.07,12.62-.8,25.29-.86,37.93-.54,12.23.66,25.61,1.22,37.8,2.05,25.09,1.89,50.11,5.26,74.29,11.76.41.11.65.53.54.94-.1.39-.49.63-.88.56-24.43-4.49-49.36-5.21-74.09-4.22-12.37.42-24.7,1.52-36.92,3.44-12.04,1.56-24.54,3.54-36.57,5.42-12.17,1.7-24.33,3.28-36.55,4.68-9.14,1-18.37,2.24-27.49,3.4-9.17,1.05-18.52,2-27.58,3.71-12.15,2.19-24.28,4.8-36.07,8.49-5.88,1.86-11.72,3.95-17.25,6.71-.38.19-.85.04-1.04-.34-.17-.35-.06-.76.25-.97h0Z" fill="#f33" stroke-width="0"/><path d="m278.02,94.23c.04-1.23,0-2.12-.18-3.7l-.98-8.88c-.17-1.56-.33-2.51-.63-3.65l3.85-.43.17,1.5c.05.42.06.51.08,1.22,1.48-2.4,2.89-3.35,5.44-3.64,2.18-.24,3.87.29,5.04,1.56.78.86,1.19,1.96,1.4,3.85l.75,6.79c.17,1.56.35,2.62.63,3.65l-4.1.45c0-1.29-.05-2.26-.21-3.7l-.69-6.28c-.13-1.19-.36-1.94-.76-2.44-.53-.69-1.43-1.02-2.5-.9-2.04.23-3.55,1.82-4.48,4.76l.63,5.71c.15,1.39.33,2.46.63,3.65l-4.07.45Z" fill="#fff" stroke-width="0"/><path d="m294.1,84.26c-.58-5.26,2.33-8.99,7.48-9.56,5.12-.57,8.74,2.41,9.32,7.64s-2.35,9.05-7.38,9.61c-5.18.57-8.83-2.4-9.41-7.69Zm3.65-.4c.38,3.48,2.43,5.43,5.37,5.1s4.52-2.65,4.14-6.1c-.4-3.65-2.36-5.55-5.36-5.22-2.97.33-4.54,2.68-4.15,6.21Z" fill="#fff" stroke-width="0"/><path d="m91.39,47.58c-7.21,3.43-13.2,7.79-18.33,13.2-.93.79-1.91,1.72-2.01,2.86-.08.87.39,1.69.84,2.43,3.34,5.52,6.74,10.89,10.51,16.09" fill="none" stroke="#f33" stroke-linecap="round" stroke-linejoin="round" stroke-width="7"/><path d="m81.19,35.13c-3.75,6.15-8.05,11.96-12.91,17.26-1.48,1.61-3.06,3.17-5.02,4.13-2.34,1.03-5.15.98-8.1.43-3.95-.74-8.18-2.07-12.44-3.63" fill="none" stroke="#f33" stroke-linecap="round" stroke-linejoin="round" stroke-width="7"/><path d="m42.78,69.15c3.69-1.2,7.54-1.97,11.4-2.26,1.11-.08,2.25-.13,3.28.14,1.55.41,2.73,1.49,3.8,2.63,4.45,4.8,7.98,10.5,10.46,16.92" fill="none" stroke="#f33" stroke-linecap="round" stroke-linejoin="round" stroke-width="7"/><path d="m271.28,189.83c-4.35.48-6.51.8-9.57,1.29.18-3.21.09-5.4-.44-10.19l-4.5-40.69c-.38-3.45-.9-6.12-1.62-9.15,3.16-.2,4.36-.33,9.46-.89l17.68-1.96c11.62-1.28,18.72,3.24,19.75,12.61.51,4.57-.47,8.09-3.03,11.03-1.47,1.76-2.75,2.58-5.57,3.8,3.91.4,5.72.96,7.95,2.61,3.39,2.51,5.38,6.08,5.91,10.95,1.16,10.49-5.15,17.18-17.59,18.56l-18.43,2.04Zm12.67-37.05c5.69-.63,8.73-4.08,8.16-9.17-.27-2.4-1.24-4.34-2.56-5.33-1.82-1.32-4.45-1.86-7.45-1.53l-15.51,1.71,1.77,16.04,15.59-1.72Zm-12.63,28.48l16.11-1.78c6.67-.74,10.05-4.45,9.38-10.52-.33-3-1.3-4.94-3.12-6.25-2.06-1.44-5-2.03-8.45-1.64l-15.96,1.76,2.04,18.43Z" stroke-width="0"/><path d="m318.27,124.25l1.05,9.52-11.02,1.22-1.05-9.52,11.02-1.22Zm1.76,16.64c-.07,2.81.06,5.3.56,9.88l2.59,23.38c.46,4.12.89,6.65,1.61,9.76l-10.94,1.21c.08-3.42-.06-6.06-.48-9.81l-2.6-23.53c-.46-4.12-.89-6.65-1.68-9.68l10.94-1.21Z" stroke-width="0"/><path d="m330.48,183.28c.09-3.27-.01-5.61-.48-9.81l-2.6-23.53c-.46-4.12-.89-6.65-1.68-9.68l10.19-1.13.44,3.97c.12,1.12.15,1.35.21,3.24,3.92-6.35,7.66-8.89,14.41-9.63,5.77-.64,10.25.76,13.35,4.14,2.07,2.27,3.15,5.19,3.71,10.21l1.99,17.98c.46,4.12.92,6.95,1.68,9.68l-10.87,1.2c0-3.41-.13-5.98-.55-9.8l-1.84-16.64c-.35-3.15-.95-5.13-2-6.45-1.41-1.82-3.79-2.69-6.63-2.38-5.4.6-9.4,4.83-11.88,12.62l1.67,15.14c.41,3.67.87,6.5,1.68,9.68l-10.79,1.19Z" stroke-width="0"/><path d="m384.03,179.1c3.37,3.72,6.85,5.01,12.25,4.41,5.77-.64,9.97-3.15,11.67-6.98,1.02-2.39,1.26-5.07.85-10.18-3.22,5.14-7.41,7.72-13.93,8.44-11.91,1.32-20.46-6.01-21.88-18.82-1.43-12.96,5.51-22.23,17.65-23.57,6.67-.74,11.31.8,15.04,5.01-.32-1.48-.33-1.63-.42-2.46l-.38-3.45,10.04-1.11c-.02,3.26.06,5.38.51,9.42l2.78,25.1c1,8.99-.32,14.98-4.26,19.13-3.41,3.49-9.44,5.9-17.16,6.75-8.77.97-13.94-.51-19.67-5.71l6.92-6Zm3.38-14.03c2.1,1.82,5.47,2.81,8.32,2.49,4.12-.46,8.05-3.32,9.76-7.07,1.17-2.48,1.53-5.33,1.15-8.77-.53-4.8-2.44-8.38-5.72-10.59-2.29-1.49-4.87-2.19-7.57-1.89-7.49.83-11.52,6.96-10.53,15.88.49,4.42,2.09,7.96,4.59,9.96Z" stroke-width="0"/><path d="m421.26,151.55c-1.54-13.94,6.17-23.82,19.8-25.33,13.56-1.5,23.16,6.39,24.69,20.25s-6.22,23.98-19.56,25.45c-13.71,1.52-23.38-6.37-24.93-20.38Zm9.67-1.07c1.02,9.22,6.45,14.38,14.24,13.52s11.97-7.01,10.96-16.16c-1.07-9.67-6.25-14.71-14.2-13.83-7.87.87-12.04,7.1-11,16.46Z" stroke-width="0"/><path d="m286.01,128.01c9.41,0,15.11,4.5,16.03,12.82.51,4.57-.47,8.09-3.03,11.03-1.47,1.76-2.75,2.58-5.57,3.8,3.91.4,5.72.96,7.95,2.61,3.39,2.51,5.38,6.08,5.91,10.95,1.16,10.49-5.15,17.18-17.59,18.56l-18.43,2.04c-4.35.48-6.51.8-9.57,1.29.18-3.21.09-5.4-.44-10.19l-4.5-40.69c-.38-3.45-.9-6.12-1.62-9.15,3.16-.2,4.36-.33,9.46-.89l17.68-1.96c1.3-.14,2.54-.21,3.72-.21m-17.65,26.48l15.59-1.72c5.69-.63,8.73-4.08,8.16-9.17-.27-2.4-1.24-4.34-2.56-5.33-1.47-1.06-3.47-1.62-5.77-1.62-.55,0-1.11.03-1.68.09l-15.51,1.71,1.77,16.04m2.96,26.75l16.11-1.78c6.67-.74,10.05-4.45,9.38-10.52-.33-3-1.3-4.94-3.12-6.25-1.65-1.15-3.86-1.76-6.45-1.76-.65,0-1.31.04-2,.11l-15.96,1.76,2.04,18.43m14.69-58.24v5-5h0c-1.36,0-2.8.08-4.27.24l-17.68,1.96c-5.12.57-6.18.68-9.22.87-1.47.09-2.83.83-3.7,2.01-.88,1.18-1.19,2.69-.85,4.13.64,2.73,1.15,5.23,1.52,8.55l4.5,40.69c.5,4.5.58,6.42.42,9.37-.08,1.51.52,2.98,1.64,3.99.93.83,2.12,1.29,3.35,1.29.26,0,.53-.02.79-.06,3.09-.5,5.17-.79,9.33-1.25l18.43-2.04c7.4-.82,13.11-3.3,16.98-7.39,4.03-4.26,5.77-10.03,5.04-16.68-.69-6.19-3.35-11.04-7.91-14.42-.19-.14-.37-.27-.55-.4,2.74-3.77,3.79-8.22,3.2-13.58-1.2-10.82-9.05-17.27-21-17.27h0Zm-13.91,19.87l10.54-1.17c.39-.04.77-.06,1.13-.06,1.58,0,2.41.39,2.75.61.14.17.49.78.61,1.89.13,1.19.35,3.2-3.74,3.65l-10.62,1.17-.67-6.1h0Zm2.69,24.35l10.99-1.22c.5-.06.99-.08,1.45-.08,1.5,0,2.76.3,3.55.83.3.22.82.68,1.05,2.73.17,1.54-.06,2.67-.69,3.37-.74.83-2.26,1.41-4.27,1.63l-11.14,1.23-.94-8.5h0Z" fill="#fff" stroke-width="0"/><path d="m318.27,124.25l1.05,9.52-11.02,1.22-1.05-9.52,11.02-1.22m1.76,16.64c-.07,2.81.06,5.3.56,9.87l2.59,23.38c.46,4.12.89,6.65,1.61,9.76l-10.94,1.21c.08-3.42-.06-6.06-.48-9.81l-2.6-23.53c-.46-4.12-.89-6.65-1.68-9.68l10.94-1.21m-1.76-21.64c-.18,0-.37.01-.55.03l-11.02,1.22c-2.74.3-4.72,2.77-4.42,5.52l1.05,9.52c.15,1.32.81,2.52,1.84,3.35.02.01.03.03.05.04-.09.11-.18.22-.26.34-.82,1.2-1.09,2.69-.72,4.1.72,2.74,1.11,5,1.54,8.96l2.6,23.53c.4,3.63.52,6.02.45,9.15-.03,1.44.56,2.83,1.62,3.8.93.85,2.13,1.31,3.38,1.31.18,0,.37-.01.55-.03l10.94-1.21c1.42-.16,2.71-.91,3.53-2.08.83-1.17,1.11-2.63.79-4.02-.7-3-1.09-5.4-1.51-9.17l-2.59-23.38c-.46-4.19-.6-6.51-.53-9.2.04-1.44-.55-2.83-1.62-3.81-.09-.08-.17-.15-.27-.23.85-1.01,1.3-2.35,1.14-3.77l-1.05-9.52c-.15-1.32-.81-2.52-1.84-3.35-.89-.71-1.99-1.1-3.13-1.1h0Zm1.76,26.64h0,0Z" fill="#fff" stroke-width="0"/><path d="m353.59,136.57c4.52,0,8.11,1.44,10.73,4.29,2.07,2.27,3.15,5.19,3.71,10.21l1.99,17.98c.46,4.12.92,6.95,1.68,9.68l-10.87,1.2c0-3.41-.13-5.98-.55-9.8l-1.84-16.64c-.35-3.15-.95-5.13-2-6.45-1.22-1.57-3.17-2.44-5.51-2.44-.36,0-.74.02-1.12.06-5.4.6-9.4,4.83-11.88,12.62l1.67,15.14c.41,3.67.87,6.5,1.68,9.68l-10.79,1.19c.09-3.27-.01-5.61-.48-9.81l-2.6-23.53c-.46-4.12-.89-6.65-1.68-9.68l10.19-1.13.44,3.97c.12,1.12.15,1.35.21,3.24,3.92-6.35,7.66-8.89,14.41-9.63.9-.1,1.78-.15,2.62-.15m0-5c-1.02,0-2.09.06-3.17.18-4.42.49-7.94,1.68-10.97,3.85-.91-.91-2.17-1.46-3.53-1.46-.18,0-.37.01-.56.03l-10.19,1.13c-1.44.16-2.75.94-3.57,2.14-.82,1.2-1.09,2.69-.72,4.1.72,2.75,1.11,5.01,1.54,8.96l2.6,23.53c.43,3.91.54,6.04.45,9.12-.04,1.45.55,2.84,1.61,3.82.93.86,2.14,1.32,3.39,1.32.18,0,.37-.01.55-.03l10.79-1.19c1.44-.16,2.74-.93,3.56-2.12.82-1.19,1.09-2.68.74-4.08-.71-2.8-1.15-5.32-1.55-8.99l-1.55-14.05c1.8-5.1,4.26-7.85,7.34-8.19.2-.02.39-.03.57-.03.44,0,1.22.07,1.57.51.01.02.02.03.04.05.14.17.62.97.94,3.89l1.84,16.63c.39,3.5.52,5.92.52,9.25,0,1.42.6,2.78,1.66,3.73.92.83,2.11,1.28,3.34,1.28.18,0,.37-.01.55-.03l10.87-1.2c1.46-.16,2.77-.95,3.59-2.17.82-1.21,1.07-2.73.68-4.14-.65-2.33-1.08-4.82-1.53-8.89l-1.99-17.98c-.67-6.03-2.16-9.93-4.98-13.03-3.57-3.88-8.55-5.92-14.43-5.92h0Z" fill="#fff" stroke-width="0"/><path d="m414.9,130.41h0m0,0c-.02,3.26.06,5.38.51,9.42l2.78,25.1c1,8.99-.32,14.98-4.26,19.13-3.41,3.49-9.44,5.9-17.16,6.75-1.65.18-3.18.28-4.61.28-6.13,0-10.41-1.77-15.06-5.99l6.92-6c2.85,3.15,5.77,4.55,9.87,4.55.75,0,1.54-.05,2.38-.14,5.77-.64,9.97-3.15,11.67-6.98,1.02-2.39,1.26-5.07.85-10.18-3.22,5.14-7.41,7.72-13.93,8.44-.92.1-1.82.15-2.7.15-10.49,0-17.87-7.15-19.18-18.97-1.43-12.96,5.51-22.23,17.65-23.57,1.07-.12,2.08-.18,3.05-.18,5.08,0,8.86,1.65,11.99,5.19-.32-1.48-.33-1.63-.42-2.46l-.38-3.45,10.04-1.11m-20.25,37.22c.36,0,.72-.02,1.07-.06,4.12-.46,8.05-3.32,9.76-7.07,1.17-2.48,1.53-5.33,1.15-8.77-.53-4.8-2.44-8.38-5.72-10.59-1.94-1.27-4.09-1.96-6.35-1.96-.4,0-.81.02-1.22.07-7.49.83-11.52,6.96-10.53,15.88.49,4.42,2.09,7.96,4.59,9.96,1.84,1.59,4.66,2.55,7.24,2.55m20.25-42.22c-.06,0-.12,0-.18,0-.15,0-.29.02-.44.03l-9.98,1.1c-1.31.14-2.5.8-3.33,1.82-2.22-.76-4.65-1.13-7.3-1.13-1.14,0-2.35.07-3.6.21-7.37.81-13.37,4.06-17.37,9.4-3.92,5.24-5.55,12.04-4.7,19.69,1,9.02,5.17,16.02,11.44,19.93l-5.61,4.86c-1.08.94-1.71,2.29-1.72,3.72-.02,1.43.58,2.8,1.64,3.76,5.63,5.11,11.14,7.29,18.42,7.29,1.59,0,3.28-.1,5.16-.31,8.91-.98,15.88-3.83,20.18-8.23.02-.02.03-.04.05-.05,4.98-5.25,6.76-12.6,5.6-23.12l-2.78-25.1c-.43-3.86-.5-5.76-.48-8.69,0-.06,0-.12,0-.18,0-2.75-2.22-4.98-4.96-5-.01,0-.03,0-.04,0h0Zm0,10h0,0Zm-20.25,27.22c-1.41,0-3.08-.56-3.97-1.33-.05-.04-.1-.08-.15-.12-1.41-1.13-2.41-3.53-2.75-6.61-.35-3.21.09-5.86,1.29-7.67,1.04-1.57,2.62-2.45,4.82-2.69.22-.02.45-.04.67-.04,1.22,0,2.42.38,3.59,1.13,2,1.37,3.15,3.65,3.52,6.98.28,2.54.06,4.47-.71,6.1,0,.02-.02.04-.03.06-.98,2.16-3.41,3.91-5.76,4.17-.17.02-.34.03-.52.03h0Z" fill="#fff" stroke-width="0"/><path d="m444.28,126.04c11.85,0,20.07,7.69,21.47,20.43,1.53,13.86-6.22,23.98-19.56,25.45-1.12.12-2.22.19-3.28.19-11.96,0-20.23-7.7-21.65-20.56-1.54-13.94,6.17-23.82,19.8-25.33,1.1-.12,2.17-.18,3.22-.18m-.77,38.05c.54,0,1.09-.03,1.65-.09,7.79-.86,11.97-7.01,10.96-16.16-.99-8.94-5.5-13.93-12.46-13.93-.56,0-1.14.03-1.74.1-7.87.87-12.04,7.1-11,16.46.95,8.55,5.68,13.61,12.58,13.61m.77-43.05v5-5h0c-1.23,0-2.5.07-3.77.21-16.33,1.81-26.06,14.2-24.22,30.84.83,7.49,3.74,13.78,8.41,18.19,4.72,4.46,11.02,6.82,18.21,6.82,1.25,0,2.54-.07,3.83-.22,7.93-.88,14.42-4.34,18.77-10,4.3-5.6,6.11-12.85,5.21-20.97-1.67-15.12-12.05-24.89-26.44-24.89h0Zm-.77,38.05c-5.74,0-7.24-5.74-7.61-9.16-.38-3.41.09-6.21,1.35-8.09,1.11-1.65,2.82-2.59,5.23-2.85.41-.05.81-.07,1.19-.07,4.28,0,6.8,3.19,7.49,9.48.49,4.47-.24,9.94-6.54,10.64-.38.04-.75.06-1.1.06h0Z" fill="#fff" stroke-width="0"/><path d="m79.02,204.47c1.11.5,1.68,1.32,2.05,2.58.57,2.05-4.23,4-6.27,4.68-.69.23-3.12.96-5.07,1.07-1.05.08-2.71-1.74-2.52-2.77.25-1.38,1.95-5.39,3.9-7.74.19-.25.54-.84.75-1.07-.29-.75-.06-1.72.88-1.93,1.89-.44,3.38-.48,5.39-.48,1.38,0,2.6.59,3.54,2.29.61,1.15-.98,2.41-2.64,3.37Zm-1.4,2.01c-.98-.33-1.85-.06-2.77-.17-1.64.59-3.17,1.03-4.05,1.32-.34.71-.69,1.42-1.03,2.41,1.68-.04,7.71-1.62,8.53-3.06.1-.19.11-.25-.67-.5Zm1.05-5.26c-1.19,0-2.62.11-3.71.42-.75.88-1.49,1.95-2.05,2.64.44-.15,1.09-.25,1.57-.46,1.47-.61,3.59-1.43,4.78-2.54-.23-.04-.44-.06-.59-.06Z" stroke-width="0"/><path d="m83.02,212.34c-.4,1.68-2.1-.55-1.66-2.24.48-1.85,1.45-4.53,2.66-6.62,1.34-2.33,2.66,1.53,2.1,2.18-1.15,1.34-2.56,4.44-3.1,6.67Zm4.67-10.67c-1.3,0-2.03-.65-1.97-2.01.04-1.15.86-2.06,1.78-2.03.99.06,1.15.82,1.26,1.74.1.8-.15,2.29-1.07,2.29Z" stroke-width="0"/><path d="m94.49,209.94c-.69,1.66-.44,2.6-1.05,2.81-.9.29-1.8-1.49-1.22-3.42.21-.69.98-2.56,2.06-4.34-1.26.27-4.03,3-6.25,6.52-.04.15-.08.31-.11.46-.48,1.85-2.31-.4-1.8-2.24.55-2.05,1.62-5.01,2.92-7.3,1.43-2.56,2.81.76,2.24,1.47-.42.5-.86,1.32-1.3,2.28,1.64-2.08,3.23-3.58,3.86-3.92.84-.46,1.3-.88,2.41.04.8.67,1.4,1.95.88,2.71-1.19,1.7-2.22,3.88-2.64,4.93Z" stroke-width="0"/><path d="m105.16,210.85c-.75,1.62-1.82,4.7-4.72,4.7-1.24,0-2.71-.96-3.29-1.53-.75-.75-.96-1.07-.75-1.66.11-.34.57-.34.99.11,1.03,1.13,2.85,1.47,4.15-.63.15-.23.29-.48.42-.71-.78.33-1.62.54-2.56.54-1.05,0-2.37-1.45-2.39-2.79-.02-1.36.21-2.64,1.34-4.17,1.01-1.38,3.61-3.14,5.45-2.41.54.21,1.03.46,1.49.76.11-.34.25-.67.36-.99,1.07-2.89,2.45.99,2.18,2.39-.25,1.32-1.3,3.38-2.68,6.39Zm-3.38-5.43c-1.28.55-2.91,2.05-3,3.19-.04.5,1.76.13,2.81-.25.55-.19,1.45-.71,2.22-1.17.21-.54.4-1.05.59-1.57-.8-.32-1.93-.52-2.62-.21Z" stroke-width="0"/><path d="m116.47,210.26c-1.22,1.49-2.6,2.26-4.86,2.26-1.89,0-4.13-1.7-4.13-3.31,0-1.51.34-2.05.99-3.29.82-1.55,4.53-4.36,6.56-4.17,2.01.19,2.89,1.51,3.17,3.38.27,1.74,0,3.04-1.74,5.12Zm-1.36-5.81c-1.51.11-3.67,1.72-4.57,2.91-.65.86-1.28,2.81.08,2.77,2.75-.1,5.53-2.26,5.53-4.88,0-.75-.38-.84-1.03-.8Z" stroke-width="0"/><path d="m134.54,203.43c-1.03.38-1.38-2.43-2.37-1.95-.59.29-2.08,2.22-2.5,2.83.67,0,3.8.23,3.65,1.2-.08.52-1.76.63-2.16.71-1.01.17-1.99.55-2.98.84-.55,1.13-1.11,2.27-1.47,3.48-.19.61-.31,1.22-.48,1.82-.1.31-.19.67-.52.84-.63.33-1.38-.71-1.57-1.2-.57-1.49.55-3.67,1.22-5.03-.31-.19-.65-.48-.8-.8-.19-.42-.33-1.2.23-1.42.59-.21,1.32-.29,1.93-.34.96-1.61,2.01-3.15,3.17-4.63.65-.82,1.53-1.43,2.64-1.43,1.78,0,2.31,2.16,2.56,3.56.1.59.15,1.28-.55,1.53Z" stroke-width="0"/><path d="m142.27,210.26c-1.22,1.49-2.6,2.26-4.86,2.26-1.89,0-4.13-1.7-4.13-3.31,0-1.51.34-2.05.99-3.29.82-1.55,4.53-4.36,6.56-4.17,2.01.19,2.89,1.51,3.17,3.38.27,1.74,0,3.04-1.74,5.12Zm-1.36-5.81c-1.51.11-3.67,1.72-4.57,2.91-.65.86-1.28,2.81.08,2.77,2.75-.1,5.53-2.26,5.53-4.88,0-.75-.38-.84-1.03-.8Z" stroke-width="0"/><path d="m153.42,205.29c-.34.17-.5-.11-.96-.06-1.17.13-3.71,1.34-5.91,5.05-.36.63-.5,1.32-.67,1.89-.54,1.85-2.03-.61-1.47-2.45.63-2.05,1.66-5.1,3.02-7.4,1.19-1.99,2.31-.02,2.47,1.3.67-.63,1.24-.99,1.64-1.11.8-.21,1.99.4,2.22,2.06.06.48-.21.63-.34.71Z" stroke-width="0"/><path d="m167.13,204.08c-.55.1-1.3.27-2.08.46-.67,1.07-1.26,2.05-1.51,2.45-.42.71-1.15,2.26-1.05,2.79.29,0,1.99-.23,2.91-.69.36-.17,1.63-.84,1.3.02-.38,1.01-2.96,3.1-4.17,3.46-1.28.38-3.23-1.2-2.83-2.73.4-1.55,1.09-3.14,1.91-4.72-.54-.13-1.26-.69-1.4-1.11-.13-.42-.15-1.28.4-1.4.86-.19,1.74-.29,2.62-.34.84-1.38,1.72-2.72,2.5-3.92,1.55-2.37,2.66,1.66,2.03,2.29-.29.29-.73.86-1.2,1.57,1.01.06,2.73.42,2.7,1.17-.04.52-1.66.63-2.12.71Z" stroke-width="0"/><path d="m175.98,210.41c-.55,1.51-.27,2.35-.86,2.54-.88.31-2.06-1.3-1.8-2.52.13-.63.92-2.96,1.89-4.59-1.26.25-5.09,4.44-5.74,5.91-.75,1.66-2.37-.15-1.95-1.93.92-3.86,3.67-8.64,5.85-12.01,1.53-2.37,2.87,1.24,2.22,1.87-.96.94-3.79,6.02-4.36,7.21,2.39-2.79,4-4.17,4.76-4.4,1.64-.48,3.1,1.85,2.5,2.73-1.07,1.55-2.16,4.23-2.52,5.18Z" stroke-width="0"/><path d="m186.37,208.08c-1.32,1.05-3.33,1.32-6.06-.15-.19.33-.34.67-.4,1.01-.17.88.34.94,1.26,1.19,1.57.4,4-.29,5.47-.92,1.51-.63.96.8-.38,1.93-1.05.88-2.92,1.78-5.09,1.78-1.51,0-3.42-.69-3.35-2.43.13-2.6,1.3-4.95,3.04-6.6,1.45-1.38,3.4-2.45,5.18-2.45.75,0,1.99.69,2.35,1.66.59,1.57-1.22,4.32-2.03,4.97Zm-2.83-3c-.42.23-.86.52-1.3.84.88.4,1.8.61,2.58.31.69-.27,1.53-1.05,1.66-1.78.15-.78-2.47.36-2.94.63Z" stroke-width="0"/><path d="m75.98,228.24c-.34.17-.5-.11-.96-.06-1.17.13-3.71,1.34-5.91,5.05-.36.63-.5,1.32-.67,1.89-.54,1.85-2.03-.61-1.47-2.45.63-2.05,1.66-5.1,3.02-7.4,1.19-1.99,2.31-.02,2.47,1.3.67-.63,1.24-.99,1.64-1.11.8-.21,1.99.4,2.22,2.06.06.48-.21.63-.34.71Z" stroke-width="0"/><path d="m83.5,231.03c-1.32,1.05-3.33,1.32-6.06-.15-.19.33-.34.67-.4,1.01-.17.88.34.94,1.26,1.19,1.57.4,4-.29,5.47-.92,1.51-.63.96.8-.38,1.93-1.05.88-2.92,1.78-5.09,1.78-1.51,0-3.42-.69-3.35-2.43.13-2.6,1.3-4.95,3.04-6.6,1.45-1.38,3.4-2.45,5.18-2.45.75,0,1.99.69,2.35,1.66.59,1.57-1.22,4.32-2.03,4.97Zm-2.83-3c-.42.23-.86.52-1.3.84.88.4,1.8.61,2.58.31.69-.27,1.53-1.05,1.66-1.78.15-.78-2.47.36-2.94.63Z" stroke-width="0"/><path d="m89.66,228.95c-.94,2.18-1.76,4.15-2.05,6.02-.29,1.78-2.24-.15-1.97-1.93.61-3.86,3.27-8.87,5.12-12.24,1.3-2.37,2.83,1.66,2.26,2.29-.86.96-2.94,4.86-3.36,5.85Z" stroke-width="0"/><path d="m98.15,235.05c-.48,1.85-2.03-.59-1.57-2.45l.02-.08c-1.47,1.55-2.81,2.62-3.63,2.62s-2.5-1.66-2.29-3.52c.15-1.28.88-3.17,1.45-4.17.92-1.55,1.76-3.04,2.39-3.14.69-.11,1.84,2.1.61,3.58-.77.92-2.18,3.61-1.97,4.38,1.43-.96,3.44-2.47,5.89-6.1.19-.29.31-.59.46-.86,1.43-2.58,2.6,1.68,2.01,2.39-1.2,1.47-2.75,4.89-3.37,7.34Z" stroke-width="0"/><path d="m110.39,232.58c-.31.55-2.2,1.68-2.66,1.85-1.7.61-2.68,1.05-4.32,1.05-1.3,0-2.16-.75-2.5-2.16-.32-1.4.11-2.73.78-3.88,1.05-1.8,4.67-4.82,6.46-5.03,1.22-.13,1.53.69,1.8,1.85.52,2.22-.08,2.93-.63,2.83-.76-.15-.57-1.45-1.42-1.45s-2.2.98-2.94,1.57c-.69.57-2.37,1.82-2.31,3.12.04.94,3.75.13,4.95-.4.88-.4,2.29-.88,2.93-.8.38.06.21.82-.13,1.45Z" stroke-width="0"/><path d="m118.59,227.04c-.55.1-1.3.27-2.08.46-.67,1.07-1.26,2.05-1.51,2.45-.42.71-1.15,2.26-1.05,2.79.29,0,1.99-.23,2.91-.69.36-.17,1.63-.84,1.3.02-.38,1.01-2.96,3.1-4.17,3.46-1.28.38-3.23-1.2-2.83-2.73.4-1.55,1.09-3.14,1.91-4.72-.54-.13-1.26-.69-1.4-1.11-.13-.42-.15-1.28.4-1.4.86-.19,1.74-.29,2.62-.34.84-1.38,1.72-2.72,2.5-3.92,1.55-2.37,2.66,1.66,2.03,2.29-.29.29-.73.86-1.2,1.57,1.01.06,2.73.42,2.7,1.17-.04.52-1.66.63-2.12.71Z" stroke-width="0"/><path d="m126.7,234.61c-.1.25-.17.33-.33.46-.8.69-1.57.27-1.93-.59-1.05.57-2.39,1.13-3.69,1.13-.96,0-2.1-1.17-2.06-2.26.04-1.11.15-1.66.94-3.15.96-1.82,3.25-2.83,4.78-1.99.55.31,1.13.61,1.64.94.4-.63.8-1.3,1.17-1.99.57-1.07-2.33-.76-3.27-.34-.86.4-1.66.82-1.7,0-.04-.5.86-1.26,1.74-1.84,1.09-.71,2.49-1.03,3.75-.88,1.03.13,2.64,2.33,2.14,3.37-1.66,3.44-2.45,5.03-3.17,7.15Zm-4.23-3.86c-.88.38-2.14,1.38-2.03,2.2.11.71,2.64-.48,4.21-1.26.02-.08.06-.15.1-.23-.67-.38-1.64-.99-2.27-.71Z" stroke-width="0"/><path d="m137.6,232.89c-.69,1.66-.44,2.6-1.05,2.81-.9.29-1.8-1.49-1.22-3.42.21-.69.98-2.56,2.06-4.34-1.26.27-4.03,3-6.25,6.52-.04.15-.08.31-.11.46-.48,1.85-2.31-.4-1.8-2.24.55-2.05,1.62-5.01,2.92-7.3,1.43-2.56,2.81.76,2.24,1.47-.42.5-.86,1.32-1.3,2.28,1.64-2.08,3.23-3.58,3.86-3.92.84-.46,1.3-.88,2.41.04.8.67,1.4,1.95.88,2.71-1.19,1.7-2.22,3.88-2.64,4.93Z" stroke-width="0"/><path d="m148.35,227.04c-.55.1-1.3.27-2.08.46-.67,1.07-1.26,2.05-1.51,2.45-.42.71-1.15,2.26-1.05,2.79.29,0,1.99-.23,2.91-.69.36-.17,1.63-.84,1.3.02-.38,1.01-2.96,3.1-4.17,3.46-1.28.38-3.23-1.2-2.83-2.73.4-1.55,1.09-3.14,1.91-4.72-.54-.13-1.26-.69-1.4-1.11-.13-.42-.15-1.28.4-1.4.86-.19,1.74-.29,2.62-.34.84-1.38,1.72-2.72,2.5-3.92,1.55-2.37,2.66,1.66,2.03,2.29-.29.29-.73.86-1.2,1.57,1.01.06,2.73.42,2.7,1.17-.04.52-1.66.63-2.12.71Z" stroke-width="0"/><path d="m165.14,232.56c-1.38,1.82-2.93,2.73-5.54,2.73-2.2,0-4.82-2.08-4.88-3.92-.08-1.85.31-2.5,1.03-4.03.9-1.89,5.16-5.33,7.46-5.1,2.26.21,3.33,1.76,3.75,4.05.36,1.97,0,3.88-1.82,6.27Zm-1.47-7.69c-1.17.02-4.21,2.24-5.3,3.77-.59.8-1.43,1.68-1.4,2.96.02.78.54,1.13,1.34,1.13,2.56,0,4.38-1.61,5.51-3.29.63-.94.94-2.29.94-3.35,0-.82-.44-1.24-1.09-1.22Z" stroke-width="0"/><path d="m175.3,227.04c-.55.1-1.3.27-2.08.46-.67,1.07-1.26,2.05-1.51,2.45-.42.71-1.15,2.26-1.05,2.79.29,0,1.99-.23,2.91-.69.36-.17,1.63-.84,1.3.02-.38,1.01-2.96,3.1-4.17,3.46-1.28.38-3.23-1.2-2.83-2.73.4-1.55,1.09-3.14,1.91-4.72-.54-.13-1.26-.69-1.4-1.11-.13-.42-.15-1.28.4-1.4.86-.19,1.74-.29,2.62-.34.84-1.38,1.72-2.72,2.5-3.92,1.55-2.37,2.66,1.66,2.03,2.29-.29.29-.73.86-1.2,1.57,1.01.06,2.73.42,2.7,1.17-.04.52-1.66.63-2.12.71Z" stroke-width="0"/><path d="m183.4,234.61c-.1.25-.17.33-.33.46-.8.69-1.57.27-1.93-.59-1.05.57-2.39,1.13-3.69,1.13-.96,0-2.1-1.17-2.06-2.26.04-1.11.15-1.66.94-3.15.96-1.82,3.25-2.83,4.78-1.99.55.31,1.13.61,1.64.94.4-.63.8-1.3,1.17-1.99.57-1.07-2.33-.76-3.27-.34-.86.4-1.66.82-1.7,0-.04-.5.86-1.26,1.74-1.84,1.09-.71,2.49-1.03,3.75-.88,1.03.13,2.64,2.33,2.14,3.37-1.66,3.44-2.45,5.03-3.17,7.15Zm-4.23-3.86c-.88.38-2.14,1.38-2.03,2.2.11.71,2.64-.48,4.21-1.26.02-.08.06-.15.1-.23-.67-.38-1.64-.99-2.27-.71Z" stroke-width="0"/><path d="m194.61,229c-.65.34-2.43,1.28-2.89,1.93.36,1.09,2.73,2.64,3.15,3.37.23.38.06.99-.61.99-1.47,0-3.15-1.09-4.28-1.97-.34-.27-.84-.73-1.22-1.22-.29.78-.55,1.62-.78,2.6-.42,1.78-2.43-.15-2.01-1.91.92-3.86,3.73-8.43,5.91-11.8,1.53-2.37,2.87,1.17,2.22,1.8-.69.67-2.33,3.4-3.42,5.33,1.22-.78,2.6-1.43,3.84-1.85.88-.29,2.87-.17,2.83,1.19-.02.29-2.37,1.36-2.73,1.55Z" stroke-width="0"/><path d="m203.93,235.05c-.48,1.85-2.03-.59-1.57-2.45l.02-.08c-1.47,1.55-2.81,2.62-3.63,2.62s-2.5-1.66-2.29-3.52c.15-1.28.88-3.17,1.45-4.17.92-1.55,1.76-3.04,2.39-3.14.69-.11,1.84,2.1.61,3.58-.77.92-2.18,3.61-1.97,4.38,1.43-.96,3.44-2.47,5.89-6.1.19-.29.31-.59.46-.86,1.43-2.58,2.6,1.68,2.01,2.39-1.2,1.47-2.75,4.89-3.37,7.34Z" stroke-width="0"/></g></svg>