<svg id="Layer_1" data-name="Layer 1" xmlns="http://www.w3.org/2000/svg" xmlns:xlink="http://www.w3.org/1999/xlink" viewBox="0 0 100 100"><defs><style>.cls-1,.cls-2{fill:#f29706;}.cls-1,.cls-5,.cls-6{stroke:#f29706;stroke-miterlimit:10;}.cls-1,.cls-10,.cls-5,.cls-6,.cls-8,.cls-9{stroke-width:2px;}.cls-3{clip-path:url(#clip-path);}.cls-4{fill:#ffca22;}.cls-10,.cls-5,.cls-8,.cls-9{fill:none;}.cls-6{fill:#ffe471;}.cls-7{fill:#ffd815;}.cls-8{stroke:#ffe471;}.cls-10,.cls-8,.cls-9{stroke-linecap:round;stroke-linejoin:round;}.cls-9{stroke:#fff;}.cls-10{stroke:#fff1b6;}</style><clipPath id="clip-path"><rect class="cls-1" x="1.24" y="16.13" width="97.52" height="82.62" rx="32.09"/></clipPath></defs><title>9-slice-tile-red-36-36-50-36</title><rect class="cls-2" x="1.24" y="16.13" width="97.52" height="82.62" rx="32.09"/><g class="cls-3"><path class="cls-4" d="M75.72,68.23c0,20.29,1.14,26.34-7.93,26.77l-1.12,0H33.33l-1.12,0c-9.07-.43-7.93-6.48-7.93-26.77,0-18.05-23-54.25-23-62V247.91H99.16l-.4-185V6.22C98.76,14,75.72,50.18,75.72,68.23Z"/></g><rect class="cls-5" x="1.24" y="16.13" width="97.52" height="82.62" rx="32.09"/><rect class="cls-6" x="1.24" y="1.25" width="97.52" height="82.62" rx="32.09"/><rect class="cls-7" x="4.96" y="4.97" width="90.08" height="75.18" rx="28.37"/><path class="cls-8" d="M10.64,10.65a32,32,0,0,1,22.69-9.4H66.67a32,32,0,0,1,22.69,9.4"/><path class="cls-9" d="M12.32,12.33C18,6.65,25.85,3.68,34.52,3.68"/><line class="cls-10" x1="3.63" y1="33.34" x2="3.63" y2="51.78"/></svg>