<svg id="Layer_1" data-name="Layer 1" xmlns="http://www.w3.org/2000/svg" xmlns:xlink="http://www.w3.org/1999/xlink" viewBox="0 0 100 100"><defs><style>.cls-1,.cls-3{fill:#ffd815;}.cls-1,.cls-6,.cls-7{stroke:#ffd815;}.cls-1,.cls-14,.cls-2,.cls-6,.cls-7{stroke-miterlimit:10;}.cls-1,.cls-10,.cls-14,.cls-2,.cls-6,.cls-7,.cls-9{stroke-width:2px;}.cls-11,.cls-2{fill:#f29706;}.cls-14,.cls-2{stroke:#f29706;}.cls-4{clip-path:url(#clip-path);}.cls-5{fill:#ffe36c;}.cls-10,.cls-14,.cls-6,.cls-9{fill:none;}.cls-7{fill:#fff7d4;}.cls-8{fill:#fff1b6;}.cls-9{stroke:#fff7d4;}.cls-10,.cls-9{stroke-linecap:round;stroke-linejoin:round;}.cls-10{stroke:#fff;}.cls-12{clip-path:url(#clip-path-2);}.cls-13{fill:#ffca22;}</style><clipPath id="clip-path"><rect class="cls-1" x="1.25" y="16.13" width="97.52" height="82.62" rx="32.09"/></clipPath><clipPath id="clip-path-2"><rect class="cls-2" x="1.24" y="-132.75" width="97.52" height="82.62" rx="32.09"/></clipPath></defs><title>9-slice-tile-light-yellow-36-36-50-36 copy 2</title><rect class="cls-3" x="1.25" y="16.13" width="97.52" height="82.62" rx="32.09"/><g class="cls-4"><path class="cls-5" d="M75.73,68.23c0,20.29,1.15,26.34-7.93,26.77l-1.12,0H33.34l-1.12,0c-9.07-.43-7.93-6.48-7.93-26.77,0-18.05-23-54.25-23-62V247.91H99.17l-.4-185V6.22C98.77,14,75.73,50.18,75.73,68.23Z"/></g><rect class="cls-6" x="1.25" y="16.13" width="97.52" height="82.62" rx="32.09"/><rect class="cls-7" x="1.25" y="1.25" width="97.52" height="82.62" rx="32.09"/><rect class="cls-8" x="4.97" y="4.97" width="90.08" height="75.18" rx="28.37"/><path class="cls-9" d="M10.65,10.65a32,32,0,0,1,22.69-9.4H66.68a32,32,0,0,1,22.69,9.4"/><path class="cls-10" d="M12.33,12.33C18,6.65,25.86,3.68,34.53,3.68"/><line class="cls-10" x1="3.64" y1="33.34" x2="3.64" y2="51.78"/><rect class="cls-11" x="1.24" y="-132.75" width="97.52" height="82.62" rx="32.09"/><g class="cls-12"><path class="cls-13" d="M75.72-80.65c0,20.28,1.14,26.34-7.93,26.77l-1.12,0H33.33l-1.12,0c-9.07-.43-7.93-6.49-7.93-26.77,0-18.06-23-54.26-23-62V99H99.16l-.4-185v-56.71C98.76-134.91,75.72-98.71,75.72-80.65Z"/></g><rect class="cls-14" x="1.24" y="-132.75" width="97.52" height="82.62" rx="32.09"/></svg>