<svg id="Layer_1" data-name="Layer 1" xmlns="http://www.w3.org/2000/svg" xmlns:xlink="http://www.w3.org/1999/xlink" viewBox="0 0 100 100"><defs><style>.cls-1,.cls-8{fill:#018bff;}.cls-1,.cls-13,.cls-14{stroke:#018bff;}.cls-1,.cls-13,.cls-14,.cls-2,.cls-6,.cls-7{stroke-miterlimit:10;}.cls-1,.cls-13,.cls-14,.cls-16,.cls-17{stroke-width:2px;}.cls-2,.cls-3{fill:#1850ff;}.cls-2,.cls-6,.cls-7{stroke:#1850ff;}.cls-10,.cls-2,.cls-6,.cls-7,.cls-9{stroke-width:2.5px;}.cls-4{clip-path:url(#clip-path);}.cls-5{fill:#889ea3;}.cls-10,.cls-13,.cls-16,.cls-17,.cls-6,.cls-9{fill:none;}.cls-7{fill:#019eff;}.cls-9{stroke:#009eff;}.cls-10,.cls-16,.cls-17,.cls-9{stroke-linecap:round;stroke-linejoin:round;}.cls-10{stroke:#61deff;}.cls-11{clip-path:url(#clip-path-2);}.cls-12{fill:#9dc6b1;}.cls-14{fill:#d7f7ff;}.cls-15{fill:#c5f0ff;}.cls-16{stroke:#d7f7ff;}.cls-17{stroke:#fff;}</style><clipPath id="clip-path"><rect class="cls-2" x="1.25" y="16.13" width="97.52" height="82.62" rx="32.09"/></clipPath><clipPath id="clip-path-2"><rect class="cls-1" x="1.25" y="16.13" width="97.52" height="82.62" rx="32.09"/></clipPath><symbol id="_9-slice-tile" data-name="9-slice-tile" viewBox="0 0 100.02 247.91"><rect class="cls-3" x="1.25" y="16.13" width="97.52" height="82.62" rx="32.09"/><g class="cls-4"><path class="cls-5" d="M75.73,68.23c0,20.29,1.15,26.34-7.93,26.77l-1.12,0H33.34l-1.12,0c-9.07-.43-7.93-6.48-7.93-26.77,0-18.05-23-54.25-23-62V247.91H99.17l-.4-185V6.22C98.77,14,75.73,50.18,75.73,68.23Z"/></g><rect class="cls-6" x="1.25" y="16.13" width="97.52" height="82.62" rx="32.09"/><rect class="cls-7" x="1.25" y="1.25" width="97.52" height="82.62" rx="32.09"/><rect class="cls-8" x="4.97" y="4.97" width="90.08" height="75.18" rx="28.37"/><path class="cls-9" d="M10.65,10.65a32,32,0,0,1,22.69-9.4H66.68a32,32,0,0,1,22.69,9.4"/><path class="cls-10" d="M12.33,12.33C18,6.65,25.86,3.68,34.53,3.68"/><line class="cls-10" x1="3.64" y1="33.34" x2="3.64" y2="51.78"/></symbol></defs><title>9-slice-tile-light-blue-36-36-50-36 copy</title><rect class="cls-8" x="1.25" y="16.13" width="97.52" height="82.62" rx="32.09"/><g class="cls-11"><path class="cls-12" d="M75.73,68.23c0,20.29,1.15,26.34-7.93,26.77l-1.12,0H33.34l-1.12,0c-9.07-.43-7.93-6.48-7.93-26.77,0-18.05-23-54.25-23-62V247.91H99.17l-.4-185V6.22C98.77,14,75.73,50.18,75.73,68.23Z"/></g><rect class="cls-13" x="1.25" y="16.13" width="97.52" height="82.62" rx="32.09"/><rect class="cls-14" x="1.25" y="1.25" width="97.52" height="82.62" rx="32.09"/><rect class="cls-15" x="4.97" y="4.97" width="90.08" height="75.18" rx="28.37"/><path class="cls-16" d="M10.65,10.65a32,32,0,0,1,22.69-9.4H66.68a32,32,0,0,1,22.69,9.4"/><path class="cls-17" d="M12.33,12.33C18,6.65,25.86,3.68,34.53,3.68"/><line class="cls-17" x1="3.64" y1="33.34" x2="3.64" y2="51.78"/><use width="100.02" height="247.91" transform="translate(0 -148.89)" xlink:href="#_9-slice-tile"/></svg>