<svg xmlns="http://www.w3.org/2000/svg" viewBox="0 0 49 52"><defs><style>.cls-1,.cls-2{stroke:#000;stroke-width:5px;}.cls-1,.cls-2,.cls-4{stroke-linecap:round;stroke-linejoin:round;}.cls-2{fill:#fff;}.cls-3{fill-rule:evenodd;}.cls-4{stroke:#fff;}</style></defs><title>spell-curse</title><g id="Layer_2" data-name="Layer 2"><g id="Layer_1-2" data-name="Layer 1"><rect class="cls-1" x="2.5" y="2.5" width="44" height="47"/><rect class="cls-2" x="2.5" y="2.5" width="44" height="44"/><path class="cls-3" d="M24.5,9.81a13.14,13.14,0,0,1,13.29,13A12.89,12.89,0,0,1,32.2,33.38v3a2.8,2.8,0,0,1-2.8,2.8H19.6a2.8,2.8,0,0,1-2.8-2.8v-3a12.89,12.89,0,0,1-5.59-10.59A13.14,13.14,0,0,1,24.5,9.81ZM18.2,18A4.1,4.1,0,1,1,14,22.11,4.15,4.15,0,0,1,18.2,18Zm12.6.68a4.1,4.1,0,1,1-4.2,4.1A4.14,4.14,0,0,1,30.8,18.69Zm-5,8.08a1.4,1.4,0,0,0-2.66,0l-.66,2a1.39,1.39,0,0,0,1.66,1.8l.33-.08.33.08a1.39,1.39,0,0,0,1.66-1.8Z"/><path class="cls-4" d="M21.7,33.73v2.73"/><path class="cls-4" d="M24.5,33.73v2.73"/><path class="cls-4" d="M27.3,33.73v2.73"/><path class="cls-4" d="M30.1,33.73v2.73"/><path class="cls-4" d="M18.9,33.73v2.73"/><path class="cls-4" d="M16.1,35.09H32.9"/></g></g></svg>