<?xml version="1.0" encoding="UTF-8"?><svg id="b" xmlns="http://www.w3.org/2000/svg" width="430.05" height="415.13" xmlns:xlink="http://www.w3.org/1999/xlink" viewBox="0 0 430.05 415.13"><defs><pattern id="d" x="0" y="0" width="28.8" height="28.8" patternTransform="translate(-7825.79 -3195.71) rotate(16.93) scale(.5)" patternUnits="userSpaceOnUse" viewBox="0 0 28.8 28.8"><rect x="0" width="28.8" height="28.8" fill="none" stroke-width="0"/><path d="m28.8,32.4c1.99,0,3.6-1.61,3.6-3.6s-1.61-3.6-3.6-3.6-3.6,1.61-3.6,3.6,1.61,3.6,3.6,3.6Z" fill="#231f20" stroke-width="0"/><path d="m14.4,32.4c1.99,0,3.6-1.61,3.6-3.6s-1.61-3.6-3.6-3.6-3.6,1.61-3.6,3.6,1.61,3.6,3.6,3.6Z" fill="#231f20" stroke-width="0"/><circle cx="28.8" cy="14.4" r="3.6" fill="#231f20" stroke-width="0"/><path d="m14.4,18c1.99,0,3.6-1.61,3.6-3.6s-1.61-3.6-3.6-3.6-3.6,1.61-3.6,3.6,1.61,3.6,3.6,3.6Z" fill="#231f20" stroke-width="0"/><path d="m7.2,25.2c1.99,0,3.6-1.61,3.6-3.6s-1.61-3.6-3.6-3.6-3.6,1.61-3.6,3.6,1.61,3.6,3.6,3.6Z" fill="#231f20" stroke-width="0"/><path d="m21.6,25.2c1.99,0,3.6-1.61,3.6-3.6s-1.61-3.6-3.6-3.6-3.6,1.61-3.6,3.6,1.61,3.6,3.6,3.6Z" fill="#231f20" stroke-width="0"/><path d="m7.2,10.8c1.99,0,3.6-1.61,3.6-3.6s-1.61-3.6-3.6-3.6-3.6,1.61-3.6,3.6,1.61,3.6,3.6,3.6Z" fill="#231f20" stroke-width="0"/><path d="m21.6,10.8c1.99,0,3.6-1.61,3.6-3.6s-1.61-3.6-3.6-3.6-3.6,1.61-3.6,3.6,1.61,3.6,3.6,3.6Z" fill="#231f20" stroke-width="0"/><path d="m0,32.4c1.99,0,3.6-1.61,3.6-3.6s-1.61-3.6-3.6-3.6-3.6,1.61-3.6,3.6,1.61,3.6,3.6,3.6Z" fill="#231f20" stroke-width="0"/><circle cy="14.4" r="3.6" fill="#231f20" stroke-width="0"/><path d="m28.8,3.6c1.99,0,3.6-1.61,3.6-3.6s-1.61-3.6-3.6-3.6-3.6,1.61-3.6,3.6,1.61,3.6,3.6,3.6Z" fill="#231f20" stroke-width="0"/><path d="m14.4,3.6c1.99,0,3.6-1.61,3.6-3.6s-1.61-3.6-3.6-3.6-3.6,1.61-3.6,3.6,1.61,3.6,3.6,3.6Z" fill="#231f20" stroke-width="0"/><path d="m0,3.6c1.99,0,3.6-1.61,3.6-3.6S1.99-3.6,0-3.6-3.6-1.99-3.6,0-1.99,3.6,0,3.6Z" fill="#231f20" stroke-width="0"/></pattern><pattern id="e" patternTransform="translate(-6533.16 -4115.81) scale(.5)" xlink:href="#d"/><pattern id="f" patternTransform="translate(-6533.16 -4115.81) scale(.5)" xlink:href="#d"/></defs><g id="c"><path d="m155.84,148.22c-42.37,15.14-66.63,1.85-75.33-5.5,7.45,17.51,7.49,37.97-4.12,56.84-12.12,19.26-40.03,32.11-51.64,36.72-.71.29-1.47.58-2.24.86,18.32.1,40.58,7.37,51.8,18.77,11.96,17.23,4.97,43.57-2.19,62.18,24.78-16.62,41.92-35.52,74.59-40.77,17.97-4.07,42.59,10.85,48.54,24.28,8.65-21,35.21-37.95,63.25-39.7,21.77,4.51,36.46,20.99,59.34,44.47-3.18-13.07-12.08-36.19-6.1-49.13,8.14-17.6,56.67-15.4,70.79-13.68-10.11-16.43-14.28-42.97-12.49-69.83,1.79-26.86,16.26-49.52,29.65-87.49-33.98,22.87-94.32,46.09-122.49,44.55-28.16-1.55-47.92-14.64-62.47-38.55-6.16,15.13-14.09,46.85-58.89,55.97Z" fill="url(#d)" stroke-width="0"/><path d="m151.84,128.22c-42.37,15.14-66.63,1.85-75.33-5.5,7.45,17.51,7.49,37.97-4.12,56.84-12.12,19.26-40.03,32.11-51.64,36.72-.71.29-1.47.58-2.24.86,18.32.1,40.58,7.37,51.8,18.77,11.96,17.23,4.97,43.57-2.19,62.18,24.78-16.62,41.92-35.52,74.59-40.77,17.97-4.07,42.59,10.85,48.54,24.28,8.65-21,35.21-37.95,63.25-39.7,21.77,4.51,36.46,20.99,59.34,44.47-3.18-13.07-12.08-36.19-6.1-49.13,8.14-17.6,56.67-15.4,70.79-13.68-10.11-16.43-14.28-42.97-12.49-69.83,1.79-26.86,16.26-49.52,29.65-87.49-33.98,22.87-94.32,46.09-122.49,44.55-28.16-1.55-47.92-14.64-62.47-38.55-6.16,15.13-14.09,46.85-58.89,55.97Z" fill="#fff" stroke-width="0"/><path d="m152.78,131.59c-19.07,6.77-40.34,9.96-60.04,3.69-6.62-2.13-12.96-5.28-18.49-9.88l5.48-4.04c9.01,20.34,6.67,45.35-6.62,63.34-9.96,13.15-24.14,22.02-38.62,29.3-4.83,2.37-9.65,4.51-14.79,6.44,0,0-1.17-6.79-1.17-6.79,18.83.04,40.96,5.9,54.99,19.11,3.95,5.03,6.17,11.28,7.26,17.32,2.79,17.1-1.88,34.07-7.59,49.96,0,.01-8.08-6.45-8.08-6.44,22.12-15.4,43.38-35.67,71.21-41.12,1.16-.28,3.36-.69,4.52-.9,8.45-2.03,17.62-.64,25.28,2.14,12.46,4.7,25.01,12.87,31.09,25.25,0,0-11.98.16-11.98.16,12-26.66,41.59-41.52,69.73-43.08,7.02,1.44,13.83,4.15,19.86,7.77,16.35,9.84,29.55,25.53,42.73,38.96,0,0-8.72,4.83-8.71,4.82-1.12-4.82-2.62-9.9-3.93-15.05-3.01-12.65-7.82-31.26,2.23-42.04,14.3-14.35,52.73-12.59,71.83-10.4,0,0-3.4,5.31-3.4,5.31-7.44-12.38-10.68-26.46-12.36-40.54-1.43-13.97-1.7-28.21.72-42.07,2.6-13.84,8-26.81,13.35-39.64,5.34-12.67,10.62-25.23,15.13-38.07l5.25,4.07c-7.37,4.92-14.99,9.34-22.77,13.42-27.11,14-69.72,31.72-100.31,31.76-29.13-.7-52.14-15.48-66.81-40.26,0,0,6.23-.5,6.23-.5-2.6,6.63-5.09,13.67-8.49,20.09-10.84,21.17-29.72,33.33-52.7,37.93h0Zm-1.88-6.74c13.39-2.71,26.64-8.3,36.4-18.04,10.04-9.52,15.45-23.09,20.19-35.88,0,0,2.54-6.54,2.54-6.54,5.38,9.17,11.48,18.46,19.38,25.47,12.25,11.37,28.74,17.03,45.33,17.48,8.27.16,16.76-1.42,24.89-3.28,24.99-6.06,49.15-15.88,71.98-27.69,10.61-5.44,21.04-12.16,30.85-18.87,0,0-3.48,9.91-3.48,9.91-4.58,13.06-9.95,25.82-15.27,38.44-6.55,15.76-13.04,31.21-14.18,48.02-1.27,22.55.42,48.03,11.97,67.86,0,0,3.75,6.15,3.75,6.15-18.56-2.48-49.77-3.33-66.67,4.95-3.8,1.95-6.77,4.55-7.61,8.68-2,8.98,1,19.37,3.45,28.44,2.89,9.13,6.77,24.09,9.2,33.61-6.72-6.77-20.03-20.19-26.73-26.94-12.53-12.29-25.92-25.59-43.59-29.03,0,0,1.54.11,1.54.11-17.88,1.38-35.77,9.13-48.19,22.13-4.03,4.27-7.32,9.1-9.4,14.24,0,0-5.28,13.07-5.28,13.07-1.31-2.46-6.99-13.71-8.3-15.78-5.24-7.41-13.44-12.75-21.85-16.04-6.32-2.38-12.52-3.38-18.75-2.01,0,0-2.22.38-2.22.38-27.19,4.41-47.29,23.86-69.75,38.89,0,0-14.2,9.37-14.2,9.37,3.36-9.05,8.72-21.49,11.26-30.56,4.45-14.98,5.75-31-1.11-42.33-12.17-12.06-31.76-17.74-48.61-18.43,0,0-18.48-.51-18.48-.51,9.3-3.43,22.76-7.92,31.38-12.42,17.75-8.91,36.1-20.89,43.07-40.18,5.43-13.93,4.75-29.72-1.17-43.44,0,0-5.69-13.37-5.69-13.37l11.17,9.32c20.23,16.18,49.13,13.1,72.14,4.8h0Z" stroke-width="0"/><path d="m30.79,89.85c41.04,6.96,79.1,24.89,116.81,41.84,9.43,4.35,18.76,8.93,27.87,13.91,36.66,19.48,71.82,41.93,103.83,68.43,16.18,12.88,31.72,26.88,46.9,40.9,6.39,5.89,16.47,15.18,22.65,21.25,29.63,28.87,57.6,59.61,81.06,93.58.24.35.15.83-.2,1.07-.34.23-.8.15-1.05-.17-34.56-44.59-76.91-82.7-122.02-116.32-18.6-13.36-37.6-26.65-56.76-39.21-32.85-22.03-68.88-46.34-102.34-67.27-29.08-18.57-59.46-35.37-91.48-48.32-5.85-2.22-12.13-4.45-18.13-6.23,0,0-7.42-1.94-7.42-1.94-.42-.1-.69-.52-.57-.94.1-.38.47-.62.85-.57h0Z" fill="url(#e)" stroke-width="0"/><path d="m27.79,74.85c41.04,6.96,79.1,24.89,116.81,41.84,9.43,4.35,18.76,8.93,27.87,13.91,36.66,19.48,71.82,41.93,103.83,68.43,16.18,12.88,31.72,26.88,46.9,40.9,6.39,5.89,16.47,15.18,22.65,21.25,29.63,28.87,57.6,59.61,81.06,93.58.24.35.15.83-.2,1.07-.34.23-.8.15-1.05-.17-34.56-44.59-76.91-82.7-122.02-116.32-18.6-13.36-37.6-26.65-56.76-39.21-32.85-22.03-68.88-46.34-102.34-67.27-29.08-18.57-59.46-35.37-91.48-48.32-5.85-2.22-12.13-4.45-18.13-6.23,0,0-7.42-1.94-7.42-1.94-.42-.1-.69-.52-.57-.94.1-.38.47-.62.85-.57h0Z" fill="#f33" stroke-width="0"/><path d="m85.52,414.26c6.96-41.04,24.89-79.1,41.84-116.81,4.35-9.43,8.93-18.76,13.9-27.87,19.48-36.66,41.93-71.82,68.43-103.83,12.88-16.18,26.88-31.72,40.9-46.9,5.89-6.39,15.18-16.47,21.25-22.65,28.87-29.63,59.61-57.6,93.58-81.06.35-.24.83-.15,1.07.2.23.34.15.8-.17,1.05-44.59,34.56-82.7,76.91-116.32,122.02-13.36,18.6-26.65,37.6-39.21,56.76-22.03,32.85-46.34,68.88-67.27,102.34-18.57,29.08-35.37,59.46-48.32,91.48-2.22,5.85-4.45,12.13-6.23,18.13,0,0-1.94,7.42-1.94,7.42-.1.42-.52.69-.94.57-.38-.1-.62-.47-.57-.85h0Z" fill="url(#f)" stroke-width="0"/><path d="m82.52,399.26c6.96-41.04,24.89-79.1,41.84-116.81,4.35-9.43,8.93-18.76,13.9-27.87,19.48-36.66,41.93-71.82,68.43-103.83,12.88-16.18,26.88-31.72,40.9-46.9,5.89-6.39,15.18-16.47,21.25-22.65,28.87-29.63,59.61-57.6,93.58-81.06.35-.24.83-.15,1.07.2.23.34.15.8-.17,1.05-44.59,34.56-82.7,76.91-116.32,122.02-13.36,18.6-26.65,37.6-39.21,56.76-22.03,32.85-46.34,68.88-67.27,102.34-18.57,29.08-35.37,59.46-48.32,91.48-2.22,5.85-4.45,12.13-6.23,18.13,0,0-1.94,7.42-1.94,7.42-.1.42-.52.69-.94.57-.38-.1-.62-.47-.57-.85h0Z" fill="#f33" stroke-width="0"/><path d="m122.53,188.27c-.19.62-.28.83-.41,1.64-.09.22-.12.58-.23.97-.1.62-.19,1.06-.26,1.33q-.4,1.84-.64,2.75c5.91-2.98,11.88-5.84,17.89-8.6,2.82-1.26,3.58-1.71,5.16-2.95,2.47.59,4.95,1.23,7.41,1.94-.53,1.45-.65,1.88-.9,4.74-.87,10.52-3.46,19.07-7.86,26.11-4.54,7.32-10.96,13.47-20.82,20.24-3.45-2.06-6.3-3-11.05-3.58,8.75-5.79,14.78-11.22,19.34-17.72,3.82-5.5,6.11-11.71,6.72-18.68-6.31,2.71-12.56,5.54-18.76,8.5-2.67,6.82-5.98,12.08-11.11,18.06-4.59-.81-6.72-.89-11.97-.19,6.71-7.48,10.5-14.02,12.67-22.02.86-3.24,1.09-5.18.8-6.93,4.64-1.97,9.31-3.83,14.01-5.59Z" stroke-width="0"/><path d="m180.09,214.86c.36,1.39.72,2.78,1.08,4.16-4.27.8-8.53,1.65-12.78,2.57-.49-3.22-.91-5.19-2.12-9.41-2.82-9.76-5.64-19.52-8.47-29.28-.71-2.45-1.29-4.19-2.19-6.43,2.62-.89,4.1-1.45,8.98-3.37,13.29-5.22,26.8-9.91,40.49-14.04,4.73-1.42,5.88-1.74,9.43-3.05.27,2.56.62,5.17,1.19,8.55,2.03,12.16,4.06,24.32,6.09,36.48.92,5.54,1.65,8.97,2.48,11.82-4.29.4-8.57.86-12.84,1.37-.3-1.53-.59-3.07-.89-4.6-10.2,1.41-20.36,3.15-30.46,5.22Zm23.08-43.58c-10.72,2.94-21.34,6.22-31.84,9.84,2.08,8.03,4.17,16.06,6.25,24.08,10.22-2.51,20.51-4.7,30.86-6.54-1.76-9.13-3.52-18.26-5.27-27.38Z" stroke-width="0"/><path d="m283.04,213.46c-6.7-9.83-13.61-17.14-22.51-23.69-6.08,9.64-13.87,17.08-24.07,23.41-3.24-5.09-5.07-7.21-9.77-10.99,8.8-4.78,15.64-10.53,21.6-18.24,6.11-7.88,10.04-15.76,12.84-25.94-6.68,1.15-13.33,2.43-19.95,3.83-6.56,1.45-8.97,2.15-12.02,3.27-.76-4.43-1.53-8.86-2.3-13.28,3.07-.4,5.18-.77,8.21-1.49.62-.15,2.1-.5,4.35-1.1,8.86-2.18,17.79-4.15,26.78-5.89,3.71-.74,4.18-.81,6.26-2.03,2.49,2.18,4.96,4.43,7.41,6.74-1.11,1.47-1.53,2.41-2.53,5.51-3.48,11.36-5.94,17.6-9.66,24.31,9.57,6.69,12.91,9.34,24.8,22.78-3.22,4.36-6.36,8.62-9.43,12.8Z" stroke-width="0"/><path d="m308.36,188.54c.13-1.87.12-2.72.11-4.22q-.02-1.78-.36-7.32c-.59-9.91-1.21-19.78-1.85-29.61-.2-3.82-.65-7.98-1.11-12.51,6.26-.68,12.53-1.26,18.83-1.72-.28,2.26-.87,9.09-1.16,13.18-.68,10.28-1.33,20.53-1.96,30.75-.2,4.06-.3,5.99-.31,7.44-.01.97-.02,2.03.02,4.45-4.07-.2-8.14-.34-12.2-.44Zm-1.07,24c-.06-5.89-.13-11.78-.19-17.67,4.9.18,9.8.44,14.71.78-.09,6.11-.17,12.22-.26,18.34-4.74-.55-9.5-1.03-14.25-1.44Z" stroke-width="0"/><path d="m122.53,188.27c-.19.62-.28.83-.41,1.64-.09.22-.12.58-.23.97-.1.62-.19,1.06-.26,1.33q-.4,1.84-.64,2.75c5.91-2.98,11.88-5.84,17.89-8.6,2.82-1.26,3.58-1.71,5.16-2.95,2.47.59,4.95,1.23,7.41,1.94-.53,1.45-.65,1.88-.9,4.74-.87,10.52-3.46,19.07-7.86,26.11-4.54,7.32-10.96,13.47-20.82,20.24-3.45-2.06-6.3-3-11.05-3.58,8.75-5.79,14.78-11.22,19.34-17.72,3.82-5.5,6.11-11.71,6.72-18.68-6.31,2.71-12.56,5.54-18.76,8.5-2.67,6.82-5.98,12.08-11.11,18.06-4.59-.81-6.72-.89-11.97-.19,6.71-7.48,10.5-14.02,12.67-22.02.86-3.24,1.09-5.18.8-6.93,4.64-1.97,9.31-3.83,14.01-5.59Z" stroke-width="0"/><path d="m180.09,214.86c.36,1.39.72,2.78,1.08,4.16-4.27.8-8.53,1.65-12.78,2.57-.49-3.22-.91-5.19-2.12-9.41-2.82-9.76-5.64-19.52-8.47-29.28-.71-2.45-1.29-4.19-2.19-6.43,2.62-.89,4.1-1.45,8.98-3.37,13.29-5.22,26.8-9.91,40.49-14.04,4.73-1.42,5.88-1.74,9.43-3.05.27,2.56.62,5.17,1.19,8.55,2.03,12.16,4.06,24.32,6.09,36.48.92,5.54,1.65,8.97,2.48,11.82-4.29.4-8.57.86-12.84,1.37-.3-1.53-.59-3.07-.89-4.6-10.2,1.41-20.36,3.15-30.46,5.22Zm23.08-43.58c-10.72,2.94-21.34,6.22-31.84,9.84,2.08,8.03,4.17,16.06,6.25,24.08,10.22-2.51,20.51-4.7,30.86-6.54-1.76-9.13-3.52-18.26-5.27-27.38Z" stroke-width="0"/><path d="m283.04,213.46c-6.7-9.83-13.61-17.14-22.51-23.69-6.08,9.64-13.87,17.08-24.07,23.41-3.24-5.09-5.07-7.21-9.77-10.99,8.8-4.78,15.64-10.53,21.6-18.24,6.11-7.88,10.04-15.76,12.84-25.94-6.68,1.15-13.33,2.43-19.95,3.83-6.56,1.45-8.97,2.15-12.02,3.27-.76-4.43-1.53-8.86-2.3-13.28,3.07-.4,5.18-.77,8.21-1.49.62-.15,2.1-.5,4.35-1.1,8.86-2.18,17.79-4.15,26.78-5.89,3.71-.74,4.18-.81,6.26-2.03,2.49,2.18,4.96,4.43,7.41,6.74-1.11,1.47-1.53,2.41-2.53,5.51-3.48,11.36-5.94,17.6-9.66,24.31,9.57,6.69,12.91,9.34,24.8,22.78-3.22,4.36-6.36,8.62-9.43,12.8Z" stroke-width="0"/><path d="m308.36,188.54c.13-1.87.12-2.72.11-4.22q-.02-1.78-.36-7.32c-.59-9.91-1.21-19.78-1.85-29.61-.2-3.82-.65-7.98-1.11-12.51,6.26-.68,12.53-1.26,18.83-1.72-.28,2.26-.87,9.09-1.16,13.18-.68,10.28-1.33,20.53-1.96,30.75-.2,4.06-.3,5.99-.31,7.44-.01.97-.02,2.03.02,4.45-4.07-.2-8.14-.34-12.2-.44Zm-1.07,24c-.06-5.89-.13-11.78-.19-17.67,4.9.18,9.8.44,14.71.78-.09,6.11-.17,12.22-.26,18.34-4.74-.55-9.5-1.03-14.25-1.44Z" stroke-width="0"/><path d="m144.05,183.4c2.47.59,4.95,1.23,7.41,1.94-.53,1.45-.65,1.88-.9,4.74-.87,10.52-3.46,19.07-7.86,26.11-4.54,7.32-10.96,13.47-20.82,20.24-3.45-2.06-6.3-3-11.05-3.58,8.75-5.79,14.78-11.22,19.34-17.72,3.82-5.5,6.11-11.71,6.72-18.68-6.31,2.71-12.56,5.54-18.76,8.5-2.67,6.82-5.98,12.08-11.11,18.06-2.5-.44-4.26-.67-6.2-.67-1.63,0-3.37.16-5.77.47,6.71-7.48,10.5-14.02,12.67-22.02.86-3.24,1.09-5.18.8-6.93,4.64-1.97,9.31-3.83,14.01-5.59-.19.62-.28.83-.41,1.64-.09.22-.12.58-.23.97-.1.62-.19,1.06-.26,1.33q-.4,1.84-.64,2.75c5.91-2.98,11.88-5.84,17.89-8.6,2.82-1.26,3.58-1.71,5.16-2.95m0-5c-1.11,0-2.2.37-3.09,1.07-1.15.9-1.52,1.16-4.11,2.32-3.24,1.49-6.48,3.01-9.7,4.56-.26-.63-.66-1.21-1.17-1.7-.95-.9-2.18-1.37-3.44-1.37-.59,0-1.18.1-1.75.32-4.76,1.78-9.54,3.68-14.22,5.67-2.12.9-3.36,3.14-2.98,5.42.11.66.11,1.75-.7,4.84-1.96,7.21-5.31,13-11.56,19.96-1.4,1.56-1.68,3.82-.7,5.67.87,1.66,2.59,2.67,4.42,2.67.22,0,.44-.01.65-.04,2.32-.3,3.8-.43,5.12-.43,1.48,0,2.88.15,5.33.59.29.05.58.08.87.08,1.44,0,2.83-.63,3.79-1.74,5.1-5.94,8.53-11.31,11.22-17.63,2.61-1.23,5.24-2.45,7.88-3.64-.96,2.54-2.23,4.96-3.85,7.29-4.07,5.8-9.62,10.86-17.99,16.39-1.75,1.16-2.59,3.28-2.11,5.32.48,2.04,2.18,3.56,4.26,3.82,4.01.49,6.22,1.2,9.09,2.91.79.47,1.68.71,2.56.71.99,0,1.98-.29,2.83-.88,10.56-7.26,17.42-13.96,22.24-21.73,4.85-7.76,7.66-17.03,8.6-28.34.2-2.31.23-2.4.61-3.42.48-1.31.39-2.75-.24-3.99-.63-1.24-1.75-2.16-3.09-2.54-2.53-.72-5.1-1.39-7.63-1.99-.38-.09-.77-.14-1.16-.14h0Z" fill="#fff" stroke-width="0"/><path d="m214.52,156.01c.27,2.56.62,5.17,1.19,8.55,2.03,12.16,4.06,24.32,6.09,36.48.93,5.54,1.65,8.97,2.48,11.82-4.29.4-8.57.86-12.84,1.37-.3-1.53-.59-3.07-.89-4.6-10.2,1.41-20.36,3.15-30.46,5.22.36,1.39.72,2.78,1.08,4.16-4.27.8-8.53,1.65-12.78,2.57-.49-3.22-.91-5.19-2.12-9.41-2.82-9.76-5.64-19.52-8.47-29.28-.71-2.45-1.29-4.19-2.19-6.43,2.62-.89,4.1-1.45,8.98-3.37,13.29-5.22,26.8-9.91,40.49-14.04,4.73-1.42,5.88-1.74,9.43-3.05m-36.94,49.19c10.22-2.51,20.51-4.7,30.86-6.54-1.76-9.13-3.52-18.26-5.27-27.38-10.72,2.94-21.34,6.22-31.84,9.84,2.08,8.03,4.17,16.06,6.25,24.08m36.94-54.19c-.58,0-1.17.1-1.73.31-3.11,1.15-4.25,1.49-8.03,2.62l-1.11.33c-13.77,4.15-27.52,8.92-40.88,14.17-4.73,1.87-6.21,2.42-8.76,3.29-1.3.44-2.36,1.4-2.93,2.64s-.61,2.67-.1,3.95c.81,2.03,1.34,3.59,2.03,5.96l4.69,16.23,3.77,13.05c1.17,4.04,1.53,5.81,1.98,8.77.21,1.36.97,2.58,2.1,3.36.84.58,1.83.88,2.84.88.35,0,.7-.04,1.05-.11,4.18-.9,8.43-1.76,12.64-2.54,1.36-.25,2.56-1.06,3.3-2.23.56-.89.83-1.92.77-2.96,6.76-1.31,13.58-2.47,20.38-3.48.49,2.33,2.55,3.97,4.89,3.97.2,0,.4-.01.6-.04,4.21-.51,8.48-.97,12.71-1.36,1.49-.14,2.83-.93,3.67-2.17.84-1.23,1.08-2.78.66-4.21-.78-2.67-1.46-5.92-2.35-11.24l-3.05-18.24-3.05-18.24c-.53-3.17-.88-5.71-1.15-8.25-.16-1.54-1.02-2.91-2.33-3.73-.8-.5-1.72-.76-2.64-.76h0Zm-37.18,33.34c7.25-2.43,14.59-4.7,21.95-6.8l1.61,8.36,1.68,8.74c-7.15,1.35-14.31,2.87-21.39,4.54l-.63-2.43-3.22-12.4h0Z" fill="#fff" stroke-width="0"/><path d="m272.46,141.31c2.49,2.18,4.96,4.43,7.41,6.74-1.11,1.47-1.53,2.41-2.53,5.51-3.48,11.36-5.94,17.6-9.66,24.31,9.57,6.69,12.91,9.34,24.8,22.78-3.22,4.36-6.36,8.62-9.43,12.8-6.7-9.83-13.61-17.14-22.51-23.69-6.08,9.64-13.87,17.08-24.07,23.41-3.24-5.09-5.07-7.21-9.77-10.99,8.8-4.78,15.64-10.53,21.6-18.24,6.11-7.88,10.04-15.76,12.84-25.94-6.68,1.15-13.33,2.43-19.95,3.83-6.56,1.45-8.97,2.15-12.02,3.27-.76-4.43-1.53-8.86-2.3-13.28,3.07-.4,5.18-.77,8.21-1.49.62-.15,2.1-.5,4.35-1.1,8.86-2.18,17.79-4.15,26.78-5.89,3.71-.74,4.18-.81,6.26-2.03m0-5c-.87,0-1.74.23-2.53.69q-1.29.76-4.38,1.38l-.33.07c-8.99,1.75-18.08,3.75-26.99,5.94-.03,0-.06.02-.1.02-2.15.58-3.58.92-4.19,1.07-2.71.65-4.65,1-7.72,1.4-1.35.18-2.57.9-3.38,1.99-.81,1.1-1.13,2.48-.9,3.82.77,4.42,1.53,8.84,2.3,13.27.25,1.46,1.14,2.74,2.43,3.48.77.44,1.63.67,2.5.67.58,0,1.17-.1,1.73-.31,2.71-1,4.89-1.65,11.38-3.08,3.8-.8,7.65-1.57,11.51-2.3-2.33,5.97-5.32,11.17-9.43,16.47-5.49,7.09-11.86,12.46-20.04,16.9-1.47.8-2.44,2.28-2.59,3.94-.15,1.67.54,3.3,1.84,4.34,4.2,3.38,5.66,5.03,8.69,9.78.95,1.49,2.57,2.31,4.22,2.31.9,0,1.81-.24,2.63-.75,9.39-5.83,16.66-12.4,22.56-20.44,6.49,5.37,11.93,11.48,17.24,19.28.91,1.34,2.42,2.15,4.04,2.18.03,0,.06,0,.09,0,1.59,0,3.08-.76,4.03-2.04,3.07-4.18,6.21-8.44,9.43-12.79,1.4-1.9,1.29-4.52-.28-6.28-10.33-11.67-14.38-15.46-22.08-21.02,2.8-5.66,5.08-11.8,7.98-21.27.94-2.92,1.16-3.21,1.75-4,1.53-2.03,1.29-4.89-.56-6.64-2.48-2.34-5.01-4.65-7.55-6.87-.93-.82-2.11-1.24-3.3-1.24h0Z" fill="#fff" stroke-width="0"/><path d="m323.98,133.16c-.28,2.26-.87,9.09-1.16,13.18-.68,10.28-1.33,20.53-1.96,30.75-.2,4.06-.3,5.99-.31,7.44-.01.97-.02,2.03.02,4.45-4.07-.2-8.14-.34-12.2-.44.13-1.87.12-2.72.11-4.22q-.01-1.78-.36-7.32c-.59-9.91-1.21-19.78-1.85-29.61-.2-3.82-.65-7.98-1.11-12.51,6.26-.68,12.53-1.26,18.83-1.72m-16.88,61.71c4.9.18,9.8.44,14.71.78-.09,6.11-.17,12.22-.26,18.34-4.74-.55-9.5-1.03-14.25-1.44-.06-5.89-.13-11.78-.19-17.67m16.88-66.71c-.12,0-.25,0-.37.01-6.32.47-12.71,1.05-19,1.74-2.73.3-4.71,2.74-4.43,5.48l.16,1.55c.39,3.84.76,7.46.94,10.72,0,.02,0,.04,0,.06.64,9.84,1.26,19.8,1.84,29.58.34,5.36.34,5.39.35,7.01v.05c.01,1.46.02,2.17-.1,3.82-.07.97.15,1.93.61,2.77-.13.1-.25.21-.37.33-.98.95-1.53,2.27-1.51,3.64l.19,17.67c.03,2.58,2.01,4.71,4.57,4.93,4.69.4,9.43.88,14.1,1.43.19.02.39.03.58.03,1.21,0,2.38-.44,3.3-1.24,1.06-.93,1.68-2.27,1.7-3.69v-.25s.26-18.09.26-18.09c.02-1.66-.76-3.15-2-4.07.51-.82.78-1.77.77-2.75-.04-2.37-.03-3.38-.02-4.29.01-1.32.11-3.17.29-6.86l.02-.38c.62-10.1,1.28-20.42,1.95-30.69.3-4.12.88-10.81,1.14-12.89.19-1.49-.3-2.98-1.34-4.07-.95-1-2.26-1.56-3.62-1.56h0Zm0,10h0,0Z" fill="#fff" stroke-width="0"/></g></svg>