<?xml version="1.0" encoding="UTF-8"?><svg id="b" xmlns="http://www.w3.org/2000/svg" width="491.37" height="503.37" xmlns:xlink="http://www.w3.org/1999/xlink" viewBox="0 0 491.37 503.37"><defs><pattern id="d" x="0" y="0" width="28.8" height="28.8" patternTransform="translate(-8515.1 -3089.62) rotate(16.93) scale(.5)" patternUnits="userSpaceOnUse" viewBox="0 0 28.8 28.8"><rect x="0" width="28.8" height="28.8" fill="none" stroke-width="0"/><path d="m28.8,32.4c1.99,0,3.6-1.61,3.6-3.6s-1.61-3.6-3.6-3.6-3.6,1.61-3.6,3.6,1.61,3.6,3.6,3.6Z" fill="#231f20" stroke-width="0"/><path d="m14.4,32.4c1.99,0,3.6-1.61,3.6-3.6s-1.61-3.6-3.6-3.6-3.6,1.61-3.6,3.6,1.61,3.6,3.6,3.6Z" fill="#231f20" stroke-width="0"/><circle cx="28.8" cy="14.4" r="3.6" fill="#231f20" stroke-width="0"/><path d="m14.4,18c1.99,0,3.6-1.61,3.6-3.6s-1.61-3.6-3.6-3.6-3.6,1.61-3.6,3.6,1.61,3.6,3.6,3.6Z" fill="#231f20" stroke-width="0"/><path d="m7.2,25.2c1.99,0,3.6-1.61,3.6-3.6s-1.61-3.6-3.6-3.6-3.6,1.61-3.6,3.6,1.61,3.6,3.6,3.6Z" fill="#231f20" stroke-width="0"/><path d="m21.6,25.2c1.99,0,3.6-1.61,3.6-3.6s-1.61-3.6-3.6-3.6-3.6,1.61-3.6,3.6,1.61,3.6,3.6,3.6Z" fill="#231f20" stroke-width="0"/><path d="m7.2,10.8c1.99,0,3.6-1.61,3.6-3.6s-1.61-3.6-3.6-3.6-3.6,1.61-3.6,3.6,1.61,3.6,3.6,3.6Z" fill="#231f20" stroke-width="0"/><path d="m21.6,10.8c1.99,0,3.6-1.61,3.6-3.6s-1.61-3.6-3.6-3.6-3.6,1.61-3.6,3.6,1.61,3.6,3.6,3.6Z" fill="#231f20" stroke-width="0"/><path d="m0,32.4c1.99,0,3.6-1.61,3.6-3.6s-1.61-3.6-3.6-3.6-3.6,1.61-3.6,3.6,1.61,3.6,3.6,3.6Z" fill="#231f20" stroke-width="0"/><circle cy="14.4" r="3.6" fill="#231f20" stroke-width="0"/><path d="m28.8,3.6c1.99,0,3.6-1.61,3.6-3.6s-1.61-3.6-3.6-3.6-3.6,1.61-3.6,3.6,1.61,3.6,3.6,3.6Z" fill="#231f20" stroke-width="0"/><path d="m14.4,3.6c1.99,0,3.6-1.61,3.6-3.6s-1.61-3.6-3.6-3.6-3.6,1.61-3.6,3.6,1.61,3.6,3.6,3.6Z" fill="#231f20" stroke-width="0"/><path d="m0,3.6c1.99,0,3.6-1.61,3.6-3.6S1.99-3.6,0-3.6-3.6-1.99-3.6,0-1.99,3.6,0,3.6Z" fill="#231f20" stroke-width="0"/></pattern><pattern id="e" patternTransform="translate(-7222.46 -4009.71) scale(.5)" xlink:href="#d"/><pattern id="f" patternTransform="translate(-7222.46 -4009.71) scale(.5)" xlink:href="#d"/></defs><g id="c"><path d="m167.04,257.6c-41.11,17.06-64.39,3.47-72.75-4.06,7.15,17.92,7.19,38.86-3.95,58.17-11.64,19.72-38.42,32.86-49.57,37.58-.68.3-1.41.59-2.15.88,17.59.11,38.95,7.54,49.72,19.21,11.48,17.63,4.77,44.59-2.1,63.64,23.78-17.01,40.24-36.35,71.59-41.73,17.25-4.16,40.88,11.11,46.59,24.85,8.3-21.49,33.8-38.85,60.71-40.63,20.89,4.62,35,21.49,56.96,45.51-3.05-13.37-11.6-37.04-5.85-50.28,7.81-18.02,54.4-15.76,67.95-14-9.71-16.82-13.71-43.98-11.99-71.47,1.72-27.49,15.61-50.69,28.46-89.55-32.56,23.22-89.49,42.53-115.52,37-26.03-5.53-44.31-21.79-58.1-47.51-6.18,17.1-15.08,55.5-59.99,72.37Z" fill="url(#d)" stroke-width="0"/><path d="m163.04,237.6c-41.11,17.06-64.39,3.47-72.75-4.06,7.15,17.92,7.19,38.86-3.95,58.17-11.64,19.72-38.42,32.86-49.57,37.58-.68.3-1.41.59-2.15.88,17.59.11,38.95,7.54,49.72,19.21,11.48,17.63,4.77,44.59-2.1,63.64,23.78-17.01,40.24-36.35,71.59-41.73,17.25-4.16,40.88,11.11,46.59,24.85,8.3-21.49,33.8-38.85,60.71-40.63,20.89,4.62,35,21.49,56.96,45.51-3.05-13.37-11.6-37.04-5.85-50.28,7.81-18.02,54.4-15.76,67.95-14-9.71-16.82-13.71-43.98-11.99-71.47,1.72-27.49,15.61-50.69,28.46-89.55-32.56,23.22-89.49,42.53-115.52,37-26.03-5.53-44.31-21.79-58.1-47.51-6.18,17.1-15.08,55.5-59.99,72.37Z" fill="#fff" stroke-width="0"/><path d="m164.32,240.86c-24.05,10.23-55.24,13.77-76.38-4.71,0,0,5.59-3.9,5.59-3.9,7.29,17.86,6.98,38.85-1.57,56.27-10.22,21.69-34.72,35.98-56.1,44.93,0,0-1.24-6.77-1.24-6.77,4.8-.05,9.56.39,14.24,1.2,13.92,2.54,29.43,8.3,39.23,19.06,10.03,15.39,8.02,34.8,4.05,51.67-1.34,5.53-2.99,10.94-4.82,16.26,0,0-8.25-6.25-8.25-6.25,25.93-19.22,43.34-39.23,77.86-43.91,18.62-1.63,41.81,12.02,49.5,28.93,0,0-12.1.15-12.1.15,5.37-13.35,15.57-23.87,27.44-31.41,11.93-7.51,25.69-12.03,39.83-12.75,26.22,5.73,43.05,29.44,60.29,47.9,0,0-8.85,4.63-8.85,4.63-2.25-10-5.37-20.21-6.72-30.64-1.55-12.22-1.19-25.32,10.79-32.09,16.58-9.41,44.98-8.39,63.51-6.17,0,0-3.48,5.22-3.48,5.22-12.84-22.76-15.02-58.66-11.18-84.18,2.45-14.1,7.64-27.41,12.79-40.58,5.15-13.02,10.24-25.92,14.57-39.09,0,0,5.36,3.95,5.36,3.95-14,9.87-29.28,17.51-45.09,23.91-20.61,8.07-50.02,17.45-72.21,13.84-27.93-5.06-48.71-24.96-61.44-49.45,0,0,6.38-.46,6.38-.46-2.47,7.13-5.48,16.44-8.57,23.19-10.15,23.84-29.01,42.34-53.43,51.24h0Zm-2.57-6.51c22.73-8.25,40.17-25.37,49.6-47.58,4.03-9.11,7.64-20.81,10.97-30.24,0,0,3.79,7.05,3.79,7.05,12.38,23.67,32.16,42.58,59.42,46.29,27.06,2.18,64-11.86,87.99-24.22,10.37-5.26,20.4-12.11,29.77-18.91-5.31,16.68-11.54,33.45-18.02,49.54-6.32,16.19-12.53,32.1-13.59,49.24-1.18,23,.35,48.97,11.53,69.47,0,0,3.48,6.09,3.48,6.09-7.21-1.01-14.78-1.71-22.07-1.74-12.38-.07-42.41.58-48.33,13.2-1.3,3.32-1.5,6.8-1.36,10.47.34,7.37,2.12,14.52,4.05,21.77,2.75,9.22,6.49,24.65,8.8,34.23-6.58-7.07-19.57-21.03-26.11-28.06-8.16-8.57-16.61-17.41-26.54-23.55-4.81-2.97-9.91-5.08-15.26-6.22,0,0,1.64.12,1.64.12-11.7.91-23.23,5-33.06,11.45-9.52,6.26-17.94,15.12-21.96,25.72,0,0-5.32,14.1-5.32,14.1,0,0-6.78-13.95-6.78-13.95-.83-2.04-2.13-4-3.57-5.77-8-9.45-21.99-17.6-34.51-15.96-1.02.2-3.1.58-4.12.76-14.36,2.74-26.93,9.51-38.87,18.45-12.99,10.01-28.06,21.83-42.07,31.25,7.76-22.14,22.28-53.33,9.31-75.54,0,0,.46.6.46.6-2.65-2.97-5.96-5.58-9.55-7.82-10.98-6.69-24.05-10.5-36.88-10.95,0,0-17.4-.5-17.4-.5,0,0,16.16-6.26,16.16-6.26,18.03-7.59,37.43-18.57,48.71-34.97,10.93-16.75,12.56-38.64,4.98-57.1,0,0-5.49-13.78-5.49-13.78,0,0,11.08,9.88,11.08,9.88,4.33,3.86,9.7,6.76,15.37,8.62,17.68,5.79,36.94,1.73,53.75-5.21h0Z" stroke-width="0"/><path d="m3.41,271.63c37.37-18.33,78.74-26,119.25-34.28,10.19-1.98,20.44-3.71,30.74-4.99,41.14-5.61,82.79-7.92,124.24-5.11,20.66,1,41.45,3.29,61.95,5.8,8.63,1.05,22.23,2.7,30.8,4.01,40.91,6.12,81.57,14.73,120.46,28.6.4.14.61.58.47.98-.14.39-.56.59-.95.48-54.1-16-110.73-22.2-166.99-23.13-22.9.02-46.08.33-68.97,1.34-39.53,1.31-82.98,2.62-122.36,5.18-34.45,1.92-68.92,6.03-102.47,14.22-6.05,1.62-12.44,3.48-18.36,5.53,0,0-7.16,2.76-7.16,2.76-.4.17-.86-.02-1.02-.43-.14-.37.02-.78.36-.96h0Z" fill="url(#e)" stroke-width="0"/><path d="m.41,256.63c37.37-18.33,78.74-26,119.25-34.28,10.19-1.98,20.44-3.71,30.74-4.99,41.14-5.61,82.79-7.92,124.24-5.11,20.66,1,41.45,3.29,61.95,5.8,8.63,1.05,22.23,2.7,30.8,4.01,40.91,6.12,81.57,14.73,120.46,28.6.4.14.61.58.47.98-.14.39-.56.59-.95.48-54.1-16-110.73-22.2-166.99-23.13-22.9.02-46.08.33-68.97,1.34-39.53,1.31-82.98,2.62-122.36,5.18-34.45,1.92-68.92,6.03-102.47,14.22-6.05,1.62-12.44,3.48-18.36,5.53,0,0-7.16,2.76-7.16,2.76-.4.17-.86-.02-1.02-.43-.14-.37.02-.78.36-.96H.41Z" fill="#f33" stroke-width="0"/><path d="m237.33,502.96c-18.33-37.37-26-78.74-34.28-119.25-1.98-10.19-3.71-20.44-4.99-30.74-5.61-41.14-7.92-82.79-5.11-124.24,1-20.66,3.29-41.45,5.8-61.95,1.05-8.63,2.7-22.23,4.01-30.8,6.12-40.92,14.73-81.57,28.6-120.46.14-.4.58-.61.98-.47.39.14.59.56.48.95-16,54.1-22.2,110.73-23.13,166.99.02,22.9.33,46.08,1.34,68.97,1.31,39.53,2.62,82.98,5.18,122.36,1.92,34.45,6.03,68.92,14.22,102.47,1.62,6.05,3.48,12.44,5.53,18.36,0,0,2.76,7.16,2.76,7.16.17.4-.03.86-.43,1.02-.37.14-.78-.02-.96-.36h0Z" fill="url(#f)" stroke-width="0"/><path d="m234.33,487.96c-18.33-37.37-26-78.74-34.28-119.25-1.98-10.19-3.71-20.44-4.99-30.74-5.61-41.14-7.92-82.79-5.11-124.24,1-20.66,3.29-41.45,5.8-61.95,1.05-8.63,2.7-22.23,4.01-30.8,6.12-40.92,14.73-81.57,28.6-120.46.14-.4.58-.61.98-.47.39.14.59.56.48.95-16,54.1-22.2,110.73-23.13,166.99.02,22.9.33,46.08,1.34,68.97,1.31,39.53,2.62,82.98,5.18,122.36,1.92,34.45,6.03,68.92,14.22,102.47,1.62,6.05,3.48,12.44,5.53,18.36,0,0,2.76,7.16,2.76,7.16.17.4-.03.86-.43,1.02-.37.14-.78-.02-.96-.36h0Z" fill="#f33" stroke-width="0"/><path d="m155.91,296.7c0,.08,0,.16,0,.25,0,.25-.02.44-.04.63,0,.53.02,1.06.03,1.59-.25,19.88-8.86,33.98-27.9,47.03-3.53-2.07-6.18-3-11.81-3.76,16.53-10.38,25.87-23.36,25.69-37.02-9.91,4.43-19.67,9.19-29.29,14.27-7.29,3.93-8.88,4.92-11.2,6.39-1.15-2.29-2.3-4.58-3.46-6.87,2.71-1.35,4.65-2.46,11.69-6.54,11.76-6.77,23.79-13.05,36.04-18.85-.9-3.3,1.74-7.44,6.2-9.6,4.61-2.23,9.15-1.08,10.23,2.5,1.08,3.59-1.65,7.77-6.18,9.72,0,.08,0,.16,0,.25Zm-6.19-4.46c.54,1.58,2.87,2.12,5.12,1.15,2.24-.97,3.68-3.21,3.16-4.88-.54-1.72-2.89-2.3-5.15-1.24-2.26,1.06-3.68,3.34-3.13,4.97Z" stroke-width="0"/><path d="m165.88,297.08c3.37-.89,5.72-1.65,11.85-3.81,12.23-4.28,24.63-8.08,37.16-11.4,3.6-.95,4.11-1.14,5.86-2.33,2.32,1.5,4.63,3.06,6.92,4.67-.67,1.51-.77,1.84-1.3,5.03-1.99,11.61-5.74,20.4-11.59,27.09-4.52,5.21-9.06,8.55-17.85,13.44-2.76-3.37-5.39-5.57-10.54-8.51,8-3.78,12.65-6.85,17.03-11.49,4.46-4.66,6.85-9.19,8.32-15.92-10.63,2.54-21.18,5.43-31.62,8.68-5.71,1.79-6.92,2.27-11.36,4.06-.96-3.17-1.92-6.34-2.88-9.52Zm1.84-16.83c2.99-.88,5.75-1.92,11.05-4.04,7.94-3.17,15.95-6.14,24.04-8.91,6.01-2.05,9.29-3.23,11.89-4.51.74,3.96,1.48,7.92,2.22,11.88-2.91.59-6.49,1.46-11.68,3.05-8.11,2.48-16.16,5.17-24.14,8.05-5.83,2.12-7.42,2.82-10.58,4.29-.94-3.27-1.88-6.53-2.82-9.8Z" stroke-width="0"/><path d="m286.37,322.21c-6.83-9.74-13.85-16.94-22.84-23.34-5.95,9.67-13.64,17.15-23.76,23.55-3.32-5-5.18-7.08-9.94-10.76,8.74-4.87,15.5-10.67,21.37-18.41,6-7.92,9.84-15.82,12.5-25.99-6.68,1.25-13.33,2.63-19.94,4.14-6.55,1.56-8.96,2.29-12,3.46-.83-4.38-1.66-8.76-2.5-13.13,3.07-.46,5.18-.86,8.21-1.64.62-.16,2.09-.54,4.34-1.18,8.85-2.33,17.77-4.45,26.77-6.33,3.71-.8,4.18-.88,6.25-2.13,2.53,2.14,5.04,4.34,7.52,6.61-1.09,1.48-1.5,2.42-2.46,5.53-3.34,11.37-5.73,17.62-9.36,24.35,9.67,6.53,13.06,9.13,25.12,22.41-3.17,4.37-6.25,8.66-9.27,12.85Z" stroke-width="0"/><path d="m311.39,297.12c.11-1.87.09-2.72.06-4.22q-.04-1.78-.45-7.31c-.71-9.89-1.44-19.74-2.2-29.55-.25-3.81-.74-7.97-1.26-12.48,6.27-.77,12.56-1.43,18.87-1.97-.26,2.26-.77,9.1-1.02,13.19-.57,10.29-1.1,20.54-1.62,30.76-.15,4.06-.23,5.99-.23,7.44,0,.97,0,2.03.07,4.45-4.08-.16-8.15-.27-12.22-.33Zm-.78,23.98c-.13-5.88-.27-11.76-.4-17.65,4.91.14,9.82.36,14.73.65-.02,6.11-.03,12.22-.05,18.34-4.75-.52-9.51-.97-14.27-1.34Z" stroke-width="0"/><path d="m155.91,296.7c0,.08,0,.16,0,.25,0,.25-.02.44-.04.63,0,.53.02,1.06.03,1.59-.25,19.88-8.86,33.98-27.9,47.03-3.53-2.07-6.18-3-11.81-3.76,16.53-10.38,25.87-23.36,25.69-37.02-9.91,4.43-19.67,9.19-29.29,14.27-7.29,3.93-8.88,4.92-11.2,6.39-1.15-2.29-2.3-4.58-3.46-6.87,2.71-1.35,4.65-2.46,11.69-6.54,11.76-6.77,23.79-13.05,36.04-18.85-.9-3.3,1.74-7.44,6.2-9.6,4.61-2.23,9.15-1.08,10.23,2.5,1.08,3.59-1.65,7.77-6.18,9.72,0,.08,0,.16,0,.25Zm-6.19-4.46c.54,1.58,2.87,2.12,5.12,1.15,2.24-.97,3.68-3.21,3.16-4.88-.54-1.72-2.89-2.3-5.15-1.24-2.26,1.06-3.68,3.34-3.13,4.97Z" stroke-width="0"/><path d="m165.88,297.08c3.37-.89,5.72-1.65,11.85-3.81,12.23-4.28,24.63-8.08,37.16-11.4,3.6-.95,4.11-1.14,5.86-2.33,2.32,1.5,4.63,3.06,6.92,4.67-.67,1.51-.77,1.84-1.3,5.03-1.99,11.61-5.74,20.4-11.59,27.09-4.52,5.21-9.06,8.55-17.85,13.44-2.76-3.37-5.39-5.57-10.54-8.51,8-3.78,12.65-6.85,17.03-11.49,4.46-4.66,6.85-9.19,8.32-15.92-10.63,2.54-21.18,5.43-31.62,8.68-5.71,1.79-6.92,2.27-11.36,4.06-.96-3.17-1.92-6.34-2.88-9.52Zm1.84-16.83c2.99-.88,5.75-1.92,11.05-4.04,7.94-3.17,15.95-6.14,24.04-8.91,6.01-2.05,9.29-3.23,11.89-4.51.74,3.96,1.48,7.92,2.22,11.88-2.91.59-6.49,1.46-11.68,3.05-8.11,2.48-16.16,5.17-24.14,8.05-5.83,2.12-7.42,2.82-10.58,4.29-.94-3.27-1.88-6.53-2.82-9.8Z" stroke-width="0"/><path d="m286.37,322.21c-6.83-9.74-13.85-16.94-22.84-23.34-5.95,9.67-13.64,17.15-23.76,23.55-3.32-5-5.18-7.08-9.94-10.76,8.74-4.87,15.5-10.67,21.37-18.41,6-7.92,9.84-15.82,12.5-25.99-6.68,1.25-13.33,2.63-19.94,4.14-6.55,1.56-8.96,2.29-12,3.46-.83-4.38-1.66-8.76-2.5-13.13,3.07-.46,5.18-.86,8.21-1.64.62-.16,2.09-.54,4.34-1.18,8.85-2.33,17.77-4.45,26.77-6.33,3.71-.8,4.18-.88,6.25-2.13,2.53,2.14,5.04,4.34,7.52,6.61-1.09,1.48-1.5,2.42-2.46,5.53-3.34,11.37-5.73,17.62-9.36,24.35,9.67,6.53,13.06,9.13,25.12,22.41-3.17,4.37-6.25,8.66-9.27,12.85Z" stroke-width="0"/><path d="m311.39,297.12c.11-1.87.09-2.72.06-4.22q-.04-1.78-.45-7.31c-.71-9.89-1.44-19.74-2.2-29.55-.25-3.81-.74-7.97-1.26-12.48,6.27-.77,12.56-1.43,18.87-1.97-.26,2.26-.77,9.1-1.02,13.19-.57,10.29-1.1,20.54-1.62,30.76-.15,4.06-.23,5.99-.23,7.44,0,.97,0,2.03.07,4.45-4.08-.16-8.15-.27-12.22-.33Zm-.78,23.98c-.13-5.88-.27-11.76-.4-17.65,4.91.14,9.82.36,14.73.65-.02,6.11-.03,12.22-.05,18.34-4.75-.52-9.51-.97-14.27-1.34Z" stroke-width="0"/><path d="m156.5,283.09c2.71,0,4.9,1.3,5.6,3.64,1.08,3.59-1.65,7.77-6.18,9.72,0,.08,0,.16,0,.25,0,.08,0,.16,0,.25,0,.25-.02.44-.04.63,0,.53.02,1.06.02,1.59-.25,19.88-8.86,33.98-27.9,47.03-3.53-2.07-6.18-3-11.81-3.76,16.53-10.38,25.87-23.36,25.69-37.02-9.91,4.43-19.67,9.19-29.29,14.27-7.29,3.93-8.88,4.92-11.2,6.39-1.15-2.29-2.3-4.58-3.46-6.87,2.71-1.35,4.65-2.46,11.69-6.54,11.76-6.77,23.79-13.05,36.04-18.85-.9-3.3,1.74-7.44,6.2-9.6,1.6-.77,3.19-1.14,4.63-1.14m-3.9,10.79c.71,0,1.48-.16,2.24-.49,2.24-.97,3.68-3.21,3.16-4.88-.35-1.14-1.5-1.77-2.88-1.77-.72,0-1.5.17-2.27.53-2.26,1.06-3.68,3.34-3.13,4.97.36,1.05,1.5,1.64,2.88,1.64m3.9-15.79c-2.24,0-4.59.57-6.81,1.64-4.97,2.41-8.31,6.61-9.04,10.96-11.36,5.46-22.62,11.39-33.51,17.66-7.11,4.11-8.88,5.13-11.42,6.39-1.19.59-2.1,1.63-2.52,2.9s-.32,2.64.28,3.83l3.46,6.87c.64,1.26,1.78,2.2,3.14,2.57.44.12.88.18,1.33.18.94,0,1.88-.27,2.69-.78,2.11-1.35,3.5-2.23,10.88-6.21,6.73-3.55,13.62-6.99,20.57-10.26-2.91,8.69-10.47,17.12-22.01,24.37-1.78,1.12-2.67,3.24-2.23,5.29.45,2.06,2.13,3.62,4.22,3.9,5.18.7,7.18,1.49,9.95,3.11.78.46,1.66.69,2.53.69.99,0,1.98-.29,2.83-.88,20.48-14.04,29.76-29.76,30.07-50.93,4.99-3.42,7.51-9.03,5.99-14.1-1.31-4.38-5.39-7.21-10.39-7.21h0Z" fill="#fff" stroke-width="0"/><path d="m214.7,262.79c.74,3.96,1.48,7.92,2.22,11.88-2.91.59-6.49,1.46-11.68,3.05-8.11,2.48-16.16,5.17-24.14,8.05-5.83,2.12-7.42,2.82-10.58,4.29-.94-3.27-1.88-6.53-2.82-9.8,2.99-.88,5.75-1.92,11.05-4.04,7.94-3.17,15.95-6.14,24.04-8.91,6.01-2.05,9.29-3.23,11.9-4.51m6.05,16.75c2.32,1.5,4.63,3.06,6.92,4.67-.67,1.51-.77,1.84-1.3,5.03-1.99,11.61-5.74,20.4-11.59,27.09-4.52,5.21-9.06,8.55-17.85,13.44-2.76-3.37-5.39-5.57-10.54-8.51,8-3.78,12.65-6.85,17.03-11.49,4.46-4.66,6.85-9.19,8.32-15.92-10.63,2.54-21.18,5.43-31.62,8.68-5.71,1.79-6.92,2.27-11.36,4.06-.96-3.17-1.92-6.34-2.88-9.52,3.37-.89,5.72-1.65,11.85-3.81,12.23-4.28,24.63-8.08,37.16-11.4,3.6-.95,4.11-1.14,5.86-2.33m-6.05-21.75c-.76,0-1.51.17-2.21.51-2.32,1.14-5.49,2.28-11.3,4.27-8.14,2.79-16.31,5.82-24.28,9-5.5,2.2-7.98,3.11-10.61,3.89-2.64.78-4.15,3.54-3.39,6.18l2.82,9.8c.05.16.1.31.16.47-.42.12-.84.23-1.29.35-1.31.35-2.43,1.21-3.09,2.4-.66,1.18-.81,2.59-.42,3.88l2.88,9.52c.41,1.34,1.36,2.46,2.63,3.06.68.33,1.42.49,2.16.49.64,0,1.27-.12,1.87-.36,4.38-1.77,5.5-2.21,10.98-3.93,7.33-2.28,14.8-4.41,22.28-6.35-1.06,1.86-2.39,3.58-4.1,5.36-3.87,4.1-7.93,6.82-15.55,10.42-1.69.8-2.79,2.46-2.86,4.33-.07,1.86.9,3.61,2.52,4.54,4.98,2.84,6.99,4.7,9.15,7.34.98,1.19,2.41,1.83,3.87,1.83.83,0,1.66-.2,2.43-.63,9.52-5.29,14.37-8.96,19.2-14.53,6.43-7.35,10.6-17.01,12.74-29.52.45-2.75.46-2.77.94-3.84.97-2.18.27-4.75-1.69-6.13-2.33-1.64-4.71-3.25-7.07-4.78-.48-.31-1.01-.53-1.55-.66,0-.31-.03-.62-.09-.93l-.74-3.96-1.48-7.92c-.29-1.54-1.28-2.85-2.67-3.55-.7-.35-1.47-.53-2.24-.53h0Z" fill="#fff" stroke-width="0"/><path d="m274.83,250.46c2.53,2.14,5.04,4.34,7.52,6.61-1.09,1.48-1.5,2.42-2.46,5.53-3.34,11.37-5.73,17.62-9.36,24.35,9.67,6.53,13.06,9.13,25.12,22.41-3.17,4.37-6.25,8.66-9.27,12.85-6.83-9.74-13.85-16.94-22.84-23.34-5.95,9.67-13.64,17.15-23.76,23.55-3.32-5-5.18-7.08-9.94-10.76,8.74-4.87,15.5-10.67,21.37-18.41,6-7.92,9.84-15.82,12.5-25.99-6.68,1.25-13.33,2.63-19.94,4.14-6.55,1.56-8.96,2.29-12,3.46-.83-4.38-1.66-8.76-2.5-13.13,3.07-.46,5.18-.86,8.21-1.64.62-.16,2.09-.54,4.34-1.18,8.85-2.33,17.77-4.45,26.77-6.33,3.71-.8,4.18-.88,6.25-2.13m0-5c-.89,0-1.78.24-2.58.72q-1.29.78-4.39,1.45l-.34.07c-8.99,1.89-18.08,4.04-26.99,6.38-.03,0-.06.02-.09.03-2.22.63-3.67,1.01-4.22,1.15-2.68.69-4.62,1.08-7.7,1.54-1.35.2-2.55.94-3.34,2.05-.79,1.11-1.09,2.49-.83,3.83.83,4.37,1.67,8.74,2.49,13.12.28,1.46,1.18,2.72,2.48,3.44.75.42,1.59.63,2.43.63.61,0,1.21-.11,1.79-.33,2.72-1.05,4.9-1.73,11.36-3.27,3.79-.86,7.63-1.69,11.49-2.48-2.25,5.95-5.17,11.14-9.19,16.45-5.39,7.11-11.69,12.53-19.82,17.06-1.47.82-2.43,2.32-2.55,3.99-.13,1.68.6,3.3,1.93,4.33,4.25,3.29,5.74,4.9,8.83,9.57.96,1.45,2.55,2.24,4.17,2.24.92,0,1.84-.25,2.67-.78,9.32-5.9,16.52-12.53,22.31-20.59,6.58,5.27,12.11,11.3,17.52,19.02.93,1.33,2.44,2.12,4.06,2.13.01,0,.02,0,.03,0,1.61,0,3.12-.77,4.06-2.08,3.02-4.19,6.11-8.47,9.27-12.84,1.39-1.92,1.24-4.54-.35-6.29-10.89-11.99-15.12-15.67-22.36-20.7,2.72-5.66,4.87-11.66,7.69-21.26.91-2.93,1.12-3.23,1.7-4.02,1.52-2.06,1.23-4.93-.66-6.65-2.51-2.29-5.08-4.56-7.66-6.73-.92-.78-2.07-1.18-3.23-1.18h0Z" fill="#fff" stroke-width="0"/><path d="m326.41,241.6c-.26,2.26-.77,9.1-1.02,13.19-.57,10.29-1.1,20.54-1.62,30.76-.15,4.06-.23,5.99-.23,7.44,0,.97,0,2.03.07,4.45-4.07-.16-8.15-.27-12.22-.33.11-1.87.09-2.72.06-4.22q-.04-1.78-.45-7.31c-.71-9.89-1.44-19.74-2.2-29.55-.25-3.81-.74-7.97-1.26-12.48,6.27-.77,12.56-1.43,18.87-1.97m-16.21,61.85c4.91.14,9.82.36,14.73.65-.02,6.11-.03,12.22-.05,18.34-4.75-.52-9.51-.97-14.27-1.34-.13-5.88-.27-11.76-.4-17.65m16.21-66.85c-.14,0-.29,0-.43.02-6.33.54-12.74,1.21-19.05,1.99-2.73.33-4.67,2.81-4.36,5.54l.11.94c.47,4.05.91,7.87,1.13,11.28,0,.02,0,.04,0,.06.77,9.91,1.5,19.84,2.2,29.52.4,5.25.4,5.37.44,6.91v.15c.03,1.4.05,2.11-.05,3.81-.06.97.17,1.92.64,2.75-.13.1-.25.21-.36.33-.97.97-1.5,2.29-1.47,3.66l.4,17.65c.06,2.57,2.05,4.67,4.61,4.87,4.69.37,9.44.81,14.11,1.32.18.02.37.03.55.03,1.22,0,2.41-.45,3.33-1.27,1.06-.95,1.66-2.3,1.67-3.71l.03-10.19.02-8.15c0-1.66-.8-3.14-2.05-4.05.5-.82.77-1.78.74-2.77-.07-2.28-.07-3.31-.07-4.22v-.08c0-1.26.07-3.01.2-6.51l.03-.71c.52-10.27,1.06-20.6,1.61-30.71.25-4.03.76-10.8,1-12.9.17-1.49-.34-2.98-1.39-4.05-.95-.97-2.24-1.51-3.58-1.51h0Zm0,10h0,0Z" fill="#fff" stroke-width="0"/></g></svg>