<?xml version="1.0" encoding="UTF-8"?><svg id="b" xmlns="http://www.w3.org/2000/svg" width="450.02" height="422.23" xmlns:xlink="http://www.w3.org/1999/xlink" viewBox="0 0 450.02 422.23"><defs><pattern id="d" x="0" y="0" width="28.8" height="28.8" patternTransform="translate(-7115.65 -2942.81) rotate(16.93) scale(.5)" patternUnits="userSpaceOnUse" viewBox="0 0 28.8 28.8"><rect x="0" width="28.8" height="28.8" fill="none" stroke-width="0"/><path d="m28.8,32.4c1.99,0,3.6-1.61,3.6-3.6s-1.61-3.6-3.6-3.6-3.6,1.61-3.6,3.6,1.61,3.6,3.6,3.6Z" fill="#231f20" stroke-width="0"/><path d="m14.4,32.4c1.99,0,3.6-1.61,3.6-3.6s-1.61-3.6-3.6-3.6-3.6,1.61-3.6,3.6,1.61,3.6,3.6,3.6Z" fill="#231f20" stroke-width="0"/><circle cx="28.8" cy="14.4" r="3.6" fill="#231f20" stroke-width="0"/><path d="m14.4,18c1.99,0,3.6-1.61,3.6-3.6s-1.61-3.6-3.6-3.6-3.6,1.61-3.6,3.6,1.61,3.6,3.6,3.6Z" fill="#231f20" stroke-width="0"/><path d="m7.2,25.2c1.99,0,3.6-1.61,3.6-3.6s-1.61-3.6-3.6-3.6-3.6,1.61-3.6,3.6,1.61,3.6,3.6,3.6Z" fill="#231f20" stroke-width="0"/><path d="m21.6,25.2c1.99,0,3.6-1.61,3.6-3.6s-1.61-3.6-3.6-3.6-3.6,1.61-3.6,3.6,1.61,3.6,3.6,3.6Z" fill="#231f20" stroke-width="0"/><path d="m7.2,10.8c1.99,0,3.6-1.61,3.6-3.6s-1.61-3.6-3.6-3.6-3.6,1.61-3.6,3.6,1.61,3.6,3.6,3.6Z" fill="#231f20" stroke-width="0"/><path d="m21.6,10.8c1.99,0,3.6-1.61,3.6-3.6s-1.61-3.6-3.6-3.6-3.6,1.61-3.6,3.6,1.61,3.6,3.6,3.6Z" fill="#231f20" stroke-width="0"/><path d="m0,32.4c1.99,0,3.6-1.61,3.6-3.6s-1.61-3.6-3.6-3.6-3.6,1.61-3.6,3.6,1.61,3.6,3.6,3.6Z" fill="#231f20" stroke-width="0"/><circle cy="14.4" r="3.6" fill="#231f20" stroke-width="0"/><path d="m28.8,3.6c1.99,0,3.6-1.61,3.6-3.6s-1.61-3.6-3.6-3.6-3.6,1.61-3.6,3.6,1.61,3.6,3.6,3.6Z" fill="#231f20" stroke-width="0"/><path d="m14.4,3.6c1.99,0,3.6-1.61,3.6-3.6s-1.61-3.6-3.6-3.6-3.6,1.61-3.6,3.6,1.61,3.6,3.6,3.6Z" fill="#231f20" stroke-width="0"/><path d="m0,3.6c1.99,0,3.6-1.61,3.6-3.6S1.99-3.6,0-3.6-3.6-1.99-3.6,0-1.99,3.6,0,3.6Z" fill="#231f20" stroke-width="0"/></pattern><pattern id="e" patternTransform="translate(-5823.01 -3862.9) scale(.5)" xlink:href="#d"/></defs><g id="c"><path d="m181.18,170.86c-47.55,5.38-70.54-11.14-78.35-19.29,4.74,16.64,1.24,34.25-14.13,48.06-15.97,14.04-47.3,19.25-60.2,20.79-.79.1-1.64.19-2.49.27,19.09,3.93,41.04,14.85,50.77,27.01,9.49,17.34-2.35,38.54-13.03,53.06,28.71-9.12,49.86-21.79,84.83-19.47,19.44.26,42.54,18.26,46.42,31.07,12.65-16.26,43.28-25.29,72.82-20.92,21.92,8.45,34.39,25.71,54.19,50.71-1.06-11.91-6.34-33.68,2.14-43.56,11.53-13.45,61.76-1.38,76.18,3.06-7.7-16.26-7.46-39.98-.95-62.72,6.51-22.74,25.52-39.22,46.05-69.1-39.29,12.42-104.41,16.23-131.75,5.9-27.34-10.33-44.45-28-55.09-52.64-9.6,13.03-25.76,43.38-77.41,47.77Z" fill="url(#d)" stroke-width="0"/><path d="m177.18,150.86c-47.55,5.38-70.54-11.14-78.35-19.29,4.74,16.64,1.24,34.25-14.13,48.06-15.97,14.04-47.3,19.25-60.2,20.79-.79.1-1.64.19-2.49.27,19.09,3.93,41.04,14.85,50.77,27.01,9.49,17.34-2.35,38.54-13.03,53.06,28.71-9.12,49.86-21.79,84.83-19.47,19.44.26,42.54,18.26,46.42,31.07,12.65-16.26,43.28-25.29,72.82-20.92,21.92,8.45,34.39,25.71,54.19,50.71-1.06-11.91-6.34-33.68,2.14-43.56,11.53-13.45,61.76-1.38,76.18,3.06-7.7-16.26-7.46-39.98-.95-62.72,6.51-22.74,25.52-39.22,46.05-69.1-39.29,12.42-104.41,16.23-131.75,5.9-27.34-10.33-44.45-28-55.09-52.64-9.6,13.03-25.76,43.38-77.41,47.77Z" fill="#fff" stroke-width="0"/><path d="m177.53,154.34c-21.15,2.32-43.51,1.29-63.12-7.85-6.58-3.11-12.82-7.09-18.1-12.51,0,0,5.89-3.38,5.89-3.38,5.59,18.8-.15,38.29-14.77,51.27-13.84,11.92-32.45,16.64-49.93,20.1-5.03.91-9.99,1.66-15.16,2.19,0,0,.38-6.92.39-6.91,18.66,3.76,40.84,12.91,53.58,27.63,6.11,9.57,5.56,22.12,2.1,32.37-3.22,9.75-8.44,18.47-14.28,26.71,0,0-6-8.38-6-8.38,23.06-7.64,46.5-19.23,71.52-20.29,5.51-.37,11.17-.21,16.68.05,17.39,1.16,34.73,11.76,45.46,25.14,2.14,2.81,4.14,5.92,5.46,9.98,0,0-11.38-2.11-11.38-2.11,17.77-21.58,54.01-27.19,80.06-22.35,18.81,7.14,32.57,22.73,44.57,38.07,3.92,4.96,7.74,9.94,11.57,14.87,0,0-9.19,3.67-9.19,3.66-1-14.49-6.8-36.93,5.44-48.43,15.33-13.03,60.86-1.37,79.06,4.13,0,0-4.19,4.84-4.19,4.84-2.81-5.98-4.44-12.33-5.31-18.68-1.7-12.66-.66-25.45,1.99-37.85,1.36-6.21,3.05-12.48,5.75-18.26,2.68-5.87,6.05-11.29,9.65-16.42,10.75-15.03,23.03-28.88,33.31-44.08,0,0,3.94,5.32,3.94,5.32-17.17,5.32-34.83,8.31-52.63,10.21-22.25,2.14-44.83,2.98-67-.65-13.52-2.19-26.42-8.11-37.74-15.83-15.15-10.36-26.62-25.65-33.73-42.42,0,0,6.03.69,6.03.69-4.55,6.38-9.14,13.27-14.57,19.14-16.4,18.66-40.94,28.2-65.31,30.04h0Zm-.69-6.97c22.77-1.72,45.5-10.37,60.82-27.78,6.58-7.17,11.8-15.65,17.71-23.51,4.01,9.74,8.79,19.45,15.31,27.66,10.44,13.51,25.12,23.26,41.12,29.01,7.95,2.77,16.63,3.93,25.08,4.69,17.34,1.38,34.92.72,52.25-1.03,17.3-1.85,34.65-4.78,51.24-9.92,0,0,9.65-3.01,9.65-3.01,0,0-5.71,8.33-5.71,8.33-7.02,10.25-14.72,20-22.34,29.6-9.38,12.02-18.78,23.64-23.08,38-5.45,19.47-7.81,41.86.6,60.73,0,0,3.25,6.97,3.25,6.97-19.44-5.75-53.87-14.09-73.48-8.91-3.1.98-5.2,2.09-6.65,4.61-3.67,7.15-2.43,15.48-1.61,23.49,1.46,8.98,3.07,23.32,3.97,32.68,0,0-11-13.63-11-13.63-15.18-18.21-29.23-39.9-52.24-48.48,0,0,1.24.33,1.24.33-18.15-2.38-37.54-.11-53.72,8.5-5.2,2.82-9.85,6.43-13.1,10.66,0,0-7.98,9.35-7.98,9.35,0,0-3.4-11.46-3.4-11.46-.53-1.77-1.72-3.96-3.25-6-8.7-11.17-23.75-20.67-38.09-21.03-16.15-1.2-31.87,1.44-47.4,6.67-15.82,5.51-33.85,12.15-50.41,16.91,11.42-16.05,33.59-40.07,23.23-60.94,0,0,.43.65.43.65-2.62-3.37-6.03-6.44-9.71-9.18-11.31-8.23-24.64-14.03-38.25-17.21,0,0-21.31-4.62-21.31-4.62,0,0,21.69-2.3,21.69-2.3,19.76-2.36,45.6-7.29,61.03-20.5,12.58-11.05,17.63-28.03,12.74-44.17,0,0-3.87-13.44-3.87-13.44l9.77,10.06c4.42,4.56,10.07,8.21,16.03,11.02,18.45,8.57,39.44,9.39,59.45,7.21h0Z" stroke-width="0"/><path d="m225.26,15.44c7.31,15.73,11.66,32.63,15.63,49.46,7.25,33.86,12.96,68.24,14.62,102.88,2.15,34.64-.52,69.41-5.69,103.69-2.81,16.8-5.78,34.4-9.08,51.12-6.89,33.85-15.82,67.36-29.01,99.17-.16.39-.61.58-1,.42-.38-.16-.56-.58-.43-.96,15.12-44.51,22.2-91.46,24.67-138.27.35-10.46.59-21.44.86-31.94.02-32.12.86-76.16.88-108.32,0-25.46.03-51.3-2.92-76.59-1.97-16.89-4.33-33.92-9.93-50.05-.15-.4.06-.84.47-.99.37-.13.78.04.95.39h0Z" fill="url(#e)" stroke-width="0"/><path d="m222.26.44c7.31,15.73,11.66,32.63,15.63,49.46,7.25,33.86,12.96,68.24,14.62,102.88,2.15,34.64-.52,69.41-5.69,103.69-2.81,16.8-5.78,34.4-9.08,51.12-6.89,33.85-15.82,67.36-29.01,99.17-.16.39-.61.58-1,.42-.38-.16-.56-.58-.43-.96,15.12-44.51,22.2-91.46,24.67-138.27.35-10.46.59-21.44.86-31.94.02-32.12.86-76.16.88-108.32,0-25.46.03-51.3-2.92-76.59-1.97-16.89-4.33-33.92-9.93-50.05-.15-.4.06-.84.47-.99.37-.13.78.04.95.39h0Z" fill="#f33" stroke-width="0"/><path d="m105.39,237.41c-.6,0-1.19-.21-1.66-.63-2.53-2.23-3.82-3.02-7.31-4.4-.92-.36-1.53-1.24-1.57-2.22-.04-.99.5-1.9,1.39-2.34,6.84-3.38,12.05-7.06,16.41-11.6,3.19-3.32,5.46-6.47,7.14-9.98-3.6.96-7.21,1.96-10.78,2.99-5.19,1.52-6.96,2.14-9.19,3.01-.29.12-.61.17-.92.17-.38,0-.75-.09-1.1-.26-.63-.31-1.1-.87-1.3-1.55-.67-2.29-1.34-4.58-2.01-6.87-.19-.66-.11-1.37.24-1.96s.92-1.02,1.59-1.18c2.49-.58,4.06-1.01,6.23-1.68.48-.15,1.61-.5,3.33-1.07,6.9-2.17,13.9-4.25,20.85-6.19l.25-.07c2.57-.73,2.73-.77,3.99-1.49.38-.22.8-.32,1.23-.32.35,0,.7.07,1.02.22,2.04.91,4.1,1.88,6.13,2.87.7.34,1.2.99,1.35,1.75.15.76-.06,1.55-.57,2.14-.51.59-.67.81-1.29,2.48-1.82,5.21-3.34,8.71-5.27,11.98,6.13,2.11,9.52,3.73,18.26,8.9.64.38,1.08,1.03,1.2,1.77.12.74-.11,1.49-.6,2.05-2.41,2.71-4.79,5.36-7.14,7.95-.49.54-1.17.82-1.85.82-.54,0-1.09-.18-1.55-.54-5.21-4.12-10.41-7.07-16.67-9.44-4.62,5.42-10.59,10.02-18.63,14.38-.37.2-.78.3-1.19.3Z" stroke-width="0"/><path d="m132.21,192.29c2.02.91,4.04,1.85,6.05,2.84-.8.92-1.1,1.47-1.76,3.26-2.28,6.53-4.01,10.18-6.75,14.2,7.87,2.59,10.61,3.67,20.81,9.7-2.4,2.7-4.78,5.34-7.13,7.93-5.86-4.63-11.7-7.85-19.03-10.44-4.61,5.85-10.77,10.67-19.01,15.13-2.7-2.39-4.21-3.33-8.04-4.85,7.07-3.5,12.5-7.32,17.1-12.11,4.71-4.9,7.6-9.58,9.48-15.39-5.22,1.35-10.42,2.77-15.61,4.26-5.14,1.51-7.03,2.15-9.42,3.09-.67-2.29-1.34-4.58-2.01-6.87,2.4-.56,4.04-1,6.4-1.73.48-.15,1.63-.51,3.37-1.08,6.88-2.17,13.79-4.22,20.74-6.16,2.86-.81,3.23-.9,4.8-1.79m0-5c-.85,0-1.7.22-2.46.65q-1,.57-3.44,1.26l-.26.07c-6.95,1.94-13.98,4.03-20.88,6.2-.02,0-.04.01-.06.02-1.69.56-2.81.9-3.28,1.05-2.11.66-3.64,1.07-6.07,1.64-1.34.31-2.49,1.16-3.18,2.35-.69,1.19-.86,2.61-.48,3.92.67,2.28,1.34,4.57,2.01,6.86.39,1.35,1.34,2.47,2.6,3.09.69.34,1.45.51,2.2.51.62,0,1.24-.12,1.83-.35,2.15-.85,3.88-1.45,8.99-2.95,1.55-.44,3.12-.89,4.69-1.32-1.03,1.39-2.21,2.77-3.57,4.19-4.15,4.32-9.14,7.84-15.71,11.09-1.77.88-2.86,2.71-2.78,4.68.08,1.97,1.31,3.71,3.15,4.44,3.38,1.35,4.38,2.01,6.57,3.95.94.83,2.12,1.26,3.31,1.26.81,0,1.63-.2,2.38-.6,7.66-4.14,13.52-8.52,18.16-13.61,5.31,2.17,9.85,4.84,14.41,8.43.91.72,2.01,1.08,3.1,1.08,1.36,0,2.72-.56,3.7-1.64,2.33-2.57,4.74-5.25,7.16-7.97.99-1.12,1.44-2.62,1.2-4.09-.23-1.48-1.11-2.77-2.39-3.53-7.54-4.46-11.18-6.33-15.93-8.12,1.38-2.71,2.62-5.76,4.03-9.8.46-1.26.51-1.31.81-1.65,1.03-1.17,1.45-2.75,1.14-4.28-.31-1.53-1.3-2.82-2.7-3.51-2.05-1-4.13-1.98-6.21-2.91-.65-.29-1.35-.44-2.04-.44h0Z" fill="#fff" stroke-width="0"/><path d="m167.02,231.96c-.84,0-1.65-.42-2.12-1.17-1.72-2.74-3.46-4.55-6.89-7.16-.74-.56-1.11-1.49-.95-2.41.15-.92.8-1.67,1.69-1.96,6.62-2.17,10.45-4.09,14.13-7.09,2.6-2.09,4.41-4.17,5.84-6.82-7.22.87-14.48,1.87-21.64,3-4.65.74-5.6.95-9.31,1.83-.19.04-.38.07-.58.07-.5,0-.99-.15-1.41-.43-.58-.4-.97-1.02-1.07-1.71l-1.15-8.09c-.1-.68.09-1.36.51-1.9.42-.54,1.05-.88,1.73-.94,1.2-.11,2.23-.23,3.43-.4-.02-.01-.05-.03-.07-.04-.61-.4-1.01-1.04-1.1-1.76l-1.09-8.25c-.09-.67.1-1.34.51-1.87s1.03-.87,1.69-.94c2.26-.25,4.42-.64,8.88-1.62,6.59-1.44,13.28-2.8,19.9-4.02,4.62-.85,7.35-1.41,9.44-2.1.25-.08.52-.12.78-.12.49,0,.98.15,1.4.43.64.43,1.04,1.14,1.09,1.91l.6,9.42c.05.75-.24,1.44-.73,1.93.25-.08.52-.13.78-.13.57,0,1.13.19,1.58.57,1.71,1.4,3.42,2.84,5.08,4.28.92.8,1.13,2.15.5,3.19-.54.88-.58.95-1.24,3.18-2.82,9.27-6.98,16.24-12.71,21.32-4.33,3.87-8.51,6.3-16.56,9.64-.31.13-.64.19-.96.19Zm21.67-41.5c-2.62.2-5.5.55-9.04,1.11-3.49.56-7,1.15-10.51,1.77,5.66-.91,11.34-1.74,16.99-2.48,1.32-.17,2.05-.28,2.56-.4Z" stroke-width="0"/><path d="m188.16,178.52c.2,3.14.4,6.28.6,9.42-2.35.17-5.26.48-9.51,1.16-6.65,1.06-13.28,2.23-19.89,3.51-4.84.94-6.17,1.28-8.83,2.02-.36-2.75-.73-5.5-1.09-8.25,2.45-.27,4.74-.7,9.14-1.67,6.58-1.44,13.19-2.78,19.82-4.01,4.92-.91,7.6-1.47,9.77-2.19m3.15,13.57c1.69,1.38,3.37,2.79,5.03,4.24-.68,1.11-.79,1.35-1.51,3.77-2.68,8.81-6.56,15.36-11.97,20.16-4.18,3.74-8.2,6.03-15.86,9.2-1.84-2.94-3.7-4.94-7.5-7.82,6.86-2.24,10.93-4.26,14.93-7.53,4.07-3.27,6.45-6.61,8.31-11.74-8.71.98-17.4,2.15-26.07,3.51-4.74.75-5.76.98-9.5,1.86-.38-2.7-.77-5.39-1.15-8.09,2.77-.26,4.72-.55,9.82-1.49,10.16-1.87,20.37-3.48,30.61-4.83,2.94-.38,3.36-.49,4.86-1.25m-3.15-18.57c-.53,0-1.05.08-1.56.25-1.96.64-4.6,1.19-9.11,2.02-6.65,1.23-13.37,2.59-19.98,4.04-4.36.96-6.46,1.34-8.62,1.58-1.34.15-2.56.83-3.39,1.89-.83,1.06-1.2,2.41-1.02,3.74l.46,3.45.56,4.2c-1.33.14-2.55.82-3.39,1.87-.85,1.07-1.22,2.45-1.03,3.8l.58,4.05.58,4.05c.2,1.39.97,2.63,2.13,3.43.84.57,1.82.87,2.82.87.38,0,.77-.04,1.15-.13,3.63-.86,4.56-1.07,9.13-1.79,5.2-.82,10.46-1.57,15.72-2.25-.57.55-1.19,1.1-1.87,1.65-3.49,2.84-6.97,4.58-13.35,6.67-1.77.58-3.07,2.09-3.38,3.92s.42,3.68,1.9,4.81c3.58,2.73,4.93,4.33,6.29,6.5.94,1.5,2.56,2.35,4.24,2.35.64,0,1.29-.12,1.91-.38,8.34-3.46,12.7-6.01,17.27-10.09,6.07-5.39,10.46-12.73,13.42-22.43q.58-1.95.99-2.62c1.27-2.09.85-4.79-.99-6.39-1.68-1.46-3.41-2.91-5.14-4.33-.23-.19-.47-.35-.72-.49,0-.03,0-.07,0-.1l-.6-9.43c-.1-1.54-.91-2.96-2.19-3.82-.84-.57-1.81-.86-2.8-.86h0Z" fill="#fff" stroke-width="0"/><path d="m215.55,230.63c-.88,0-1.74-.47-2.19-1.3-1.92-3.5-2.96-4.83-6.18-7.92-.61-.59-.88-1.44-.73-2.27.16-.83.73-1.53,1.51-1.85,9.12-3.73,14.77-8.36,18.43-15.39-2.46.88-4.91,1.76-7.35,2.64-.27.1-.56.15-.85.15-.41,0-.81-.1-1.18-.3-.26-.14-.49-.32-.68-.53-.29.51-.75.92-1.34,1.12-3.11,1.11-6.21,2.22-9.29,3.32-.27.1-.56.15-.84.15-.39,0-.78-.09-1.13-.27-.61-.31-1.07-.86-1.27-1.52-1.83-6.15-3.13-9.32-5.83-14.13-.36-.63-.42-1.39-.17-2.08s.78-1.23,1.46-1.48c2.99-1.13,6-2.27,9.02-3.4.29-.11.58-.16.88-.16.85,0,1.67.43,2.13,1.19,0,.02.02.03.03.05.02-.07.04-.14.07-.21.26-.68.79-1.21,1.47-1.46,2.99-1.1,5.99-2.19,9-3.29.28-.1.57-.15.85-.15.89,0,1.74.48,2.19,1.3,2.82,5.13,4.14,8.08,5.47,12.54,1.2-3.85,2-8.05,2.07-11.1.02-.73.35-1.41.92-1.87.45-.37,1.01-.56,1.58-.56.15,0,.29.01.44.04,3.43.61,6.88,1.28,10.26,1.99.7.15,1.3.58,1.66,1.2.36.62.43,1.36.2,2.04-.36,1.06-.4,1.24-.95,3.77-2.14,9.69-4.68,16.49-8.24,22.07-3.4,5.32-7.8,9.81-13.08,13.33-2.16,1.4-3.77,2.31-7.21,4.07-.36.19-.75.28-1.14.28Z" stroke-width="0"/><path d="m221.38,184.05c3.35,6.1,4.45,8.88,6.05,14.84-3.09,1.1-6.17,2.21-9.23,3.31-1.23-5.03-2.95-9.51-5.81-14.86,2.99-1.1,5.98-2.19,9-3.29m12.23.31c3.41.61,6.8,1.26,10.19,1.97-.4,1.2-.47,1.46-1.02,4.04-2.05,9.3-4.52,15.95-7.91,21.25-3.26,5.11-7.44,9.31-12.36,12.59-2.02,1.31-3.58,2.19-6.96,3.93-2.05-3.74-3.25-5.27-6.64-8.52,11.65-4.76,18.11-10.99,21.92-21.67,1.6-4.5,2.69-9.8,2.78-13.58m-25.79,3.56c2.55,4.15,4.57,8.93,6.34,14.71-3.11,1.11-6.21,2.22-9.3,3.33-1.8-6.07-3.16-9.49-6.05-14.64,2.99-1.13,5.99-2.26,9.01-3.4m13.56-8.87c-.57,0-1.15.1-1.71.3-3.02,1.1-6.02,2.19-9.01,3.29-.4.15-.78.34-1.12.58-.55-.2-1.13-.31-1.72-.31s-1.18.1-1.75.32c-3.02,1.13-6.03,2.27-9.03,3.4-1.36.52-2.43,1.6-2.93,2.97-.5,1.37-.37,2.89.34,4.15,2.59,4.63,3.85,7.68,5.62,13.62.39,1.32,1.31,2.42,2.53,3.04.71.36,1.48.54,2.26.54.57,0,1.14-.1,1.69-.29,3.08-1.11,6.18-2.21,9.29-3.32.29-.11.57-.24.84-.39.49.16,1.01.24,1.52.24.54,0,1.08-.09,1.61-.27-3.13,3.25-7.24,5.79-12.78,8.06-1.57.64-2.7,2.03-3.02,3.69-.32,1.66.23,3.37,1.45,4.55,3.03,2.9,3.93,4.07,5.72,7.32.91,1.65,2.62,2.59,4.39,2.59.77,0,1.55-.18,2.28-.55,3.48-1.78,5.21-2.76,7.4-4.18.02-.01.04-.03.06-.04,5.57-3.71,10.21-8.44,13.8-14.06,3.73-5.84,6.38-12.89,8.58-22.86.54-2.51.56-2.58.88-3.53.45-1.35.3-2.84-.41-4.07-.71-1.24-1.92-2.11-3.31-2.4-3.41-.71-6.89-1.39-10.34-2-.29-.05-.58-.08-.88-.08-1.14,0-2.26.39-3.16,1.13-1.13.92-1.8,2.29-1.83,3.75-.02.75-.09,1.6-.2,2.5-.73-1.52-1.58-3.16-2.65-5.09-.9-1.64-2.6-2.59-4.38-2.59h0Z" fill="#fff" stroke-width="0"/><path d="m251.51,231.62c-.48,0-.96-.14-1.37-.41-.57-.37-.96-.96-1.08-1.63-.78-4.22-1.61-8.54-2.46-12.83-.15-.74.05-1.51.54-2.09.47-.57,1.18-.89,1.92-.89.02,0,.56,0,.56,0,5,0,11.84-1.34,17.02-3.34,6.71-2.58,12.06-6.86,16.82-13.47,3.22-4.54,5.3-8.55,7.96-15.31.34-.86,1.12-1.46,2.04-1.57.1-.01.19-.02.28-.02.82,0,1.59.4,2.06,1.08,3.29,4.79,4.7,6.58,7.68,9.22.83.73,1.08,1.93.61,2.93-4.25,9.12-7.35,14.18-11.82,19.31-7.02,8.22-15.06,13.37-25.27,16.18-3.77,1.06-6.56,1.52-11.03,2.1-1.54.17-2.6.38-3.91.68-.18.04-.37.06-.56.06Zm13.23-21.62c-.64,0-1.26-.24-1.73-.69-4.71-4.5-9.66-7.7-16.04-10.35-.68-.28-1.19-.84-1.42-1.54-.22-.7-.13-1.46.25-2.08,1.97-3.19,3.96-6.41,5.98-9.67.47-.75,1.28-1.18,2.12-1.18.32,0,.64.06.95.19,7.21,2.98,11.89,5.72,17.25,10.12.93.76,1.18,2.07.61,3.12-1.96,3.63-3.89,7.22-5.79,10.77-.37.69-1.04,1.17-1.81,1.29-.13.02-.26.03-.39.03Zm5.89-17.95c-.56,0-1.1-.19-1.54-.53-5.62-4.41-10.42-7.06-16.57-9.14-.72-.24-1.29-.8-1.55-1.51-.26-.71-.18-1.51.21-2.16,1.98-3.24,3.98-6.52,6.01-9.84.46-.76,1.28-1.19,2.13-1.19.27,0,.54.04.81.14,7.37,2.53,12.81,5.18,18.18,8.86,1.08.74,1.41,2.19.75,3.32-2.12,3.64-4.21,7.24-6.27,10.8-.36.63-.98,1.07-1.69,1.2-.16.03-.32.05-.47.05Z" stroke-width="0"/><path d="m259.32,170.18c7.36,2.52,12.56,5.12,17.58,8.56-2.12,3.64-4.21,7.24-6.27,10.81-6.05-4.75-11.1-7.44-17.32-9.54,1.97-3.24,3.98-6.52,6.01-9.83m34.42,12.38c3.29,4.78,4.86,6.83,8.09,9.68-4.12,8.83-7.11,13.76-11.44,18.72-6.83,8-14.5,12.78-24.05,15.41-3.5.99-6.02,1.43-10.69,2.03-1.69.19-2.86.43-4.14.72-.8-4.32-1.62-8.61-2.46-12.86.18,0,.37,0,.56,0,5.15,0,12.21-1.31,17.92-3.51,7.2-2.76,12.88-7.3,17.95-14.34,3.35-4.72,5.52-8.9,8.26-15.86m-39.83,4.42c6.99,2.88,11.4,5.46,16.62,9.74-1.96,3.63-3.9,7.22-5.8,10.78-4.89-4.68-10.07-8.05-16.8-10.85,1.96-3.18,3.96-6.41,5.98-9.67m5.41-21.8c-1.7,0-3.33.87-4.26,2.38-2.04,3.32-4.04,6.6-6.02,9.84-.79,1.3-.95,2.88-.43,4.31.3.82.8,1.53,1.44,2.08-.14.17-.27.35-.39.55-2.03,3.26-4.02,6.49-5.99,9.68-.77,1.25-.95,2.77-.5,4.16.45,1.39,1.49,2.52,2.84,3.08,5.48,2.28,9.84,4.97,13.93,8.61-3.59.87-7.32,1.39-10.33,1.39-.16,0-.31,0-.46,0-.03,0-.07,0-.1,0-1.48,0-2.88.65-3.83,1.79-.97,1.16-1.37,2.7-1.07,4.18.83,4.21,1.66,8.52,2.45,12.8.25,1.34,1.03,2.52,2.17,3.27.82.54,1.78.82,2.75.82.37,0,.75-.04,1.11-.13,1.25-.29,2.2-.47,3.58-.63.03,0,.06,0,.08-.01,4.59-.59,7.47-1.07,11.4-2.18,10.68-2.94,19.11-8.33,26.48-16.96,4.63-5.32,7.82-10.52,12.18-19.87.94-2.01.44-4.39-1.22-5.86-2.78-2.46-4.12-4.17-7.28-8.77-.94-1.37-2.49-2.17-4.12-2.17-.19,0-.38.01-.57.03-1.84.21-3.41,1.42-4.09,3.14-2.57,6.55-4.58,10.42-7.69,14.79-2.98,4.13-6.1,7.23-9.7,9.56,1.07-1.98,2.14-3.98,3.23-5.98,1.06-1.96.69-4.37-.87-5.92.35-.33.65-.71.9-1.13,2.05-3.56,4.14-7.15,6.26-10.79,1.32-2.26.67-5.16-1.49-6.64-5.57-3.82-11.19-6.56-18.78-9.17-.53-.18-1.08-.27-1.62-.27h0Z" fill="#fff" stroke-width="0"/><path d="m341.54,244.33c-.31,0-.61-.06-.9-.17-1.54-.6-3.98-1.28-7.06-1.99-8.75-2.01-17.66-3.83-26.5-5.42-3.47-.62-5.33-.87-7.4-.99-.69-.04-1.33-.36-1.77-.88-.44-.53-.65-1.21-.57-1.89l1.31-11.52c.08-.74.5-1.41,1.12-1.81.41-.27.88-.4,1.36-.4.25,0,.51.04.75.12,1.97.62,3.15.86,7.38,1.51,4.05.62,8.15,1.29,12.21,2,2.19-7.71,3.04-10.9,4.81-18.37-2.93-.36-5.89-.71-8.83-1.03-3.35-.36-5.16-.49-6.91-.49-.23,0-.73,0-.74,0-.71,0-1.38-.3-1.86-.83-.48-.54-.71-1.26-.62-1.98l1.43-11.67c.09-.7.46-1.33,1.04-1.74.42-.3.93-.46,1.44-.46.18,0,.37.02.55.06,2.42.54,3.52.69,7.88,1.06,4.98.42,10.02.91,15,1.46.43.05.74.07.99.07.42,0,.7-.05,1.35-.35.34-.16.69-.23,1.05-.23.8,0,1.58.39,2.06,1.08,1.29,1.87,2.59,3.8,3.86,5.74.52.79.55,1.82.07,2.64q-.97,1.66-2.99,9.19c-1.05,3.93-2.77,10.17-5.1,18.56.22.04.44.09.66.13,3.08.62,5.32.94,7.28,1.03.72.03,1.39.38,1.83.94s.63,1.29.51,2l-2.24,12.59c-.13.74-.58,1.37-1.23,1.74-.38.21-.8.32-1.23.32Z" stroke-width="0"/><path d="m311.23,188.81c2.55.57,3.77.74,8.22,1.11,4.98.42,9.96.91,14.94,1.45.48.05.89.08,1.26.08.85,0,1.5-.16,2.4-.58,1.29,1.88,2.57,3.78,3.83,5.7q-1.13,1.93-3.24,9.81c-1.44,5.38-3.83,14-5.81,21.13,1.1.22,2.2.43,3.3.65,3.24.65,5.58.98,7.66,1.08-.75,4.2-1.49,8.39-2.24,12.59-1.82-.7-4.52-1.43-7.4-2.09-8.83-2.03-17.71-3.84-26.62-5.44-3.71-.67-5.61-.91-7.7-1.02.44-3.84.87-7.68,1.31-11.52,2.18.69,3.51.95,7.76,1.59,4.8.73,9.59,1.52,14.37,2.38,2.97-10.42,3.67-13.01,6.09-23.36-3.87-.5-7.75-.96-11.63-1.38-3.56-.38-5.41-.5-7.17-.5-.25,0-.5,0-.75,0,.48-3.89.96-7.78,1.43-11.67m0-5c-1.02,0-2.03.31-2.88.91-1.15.81-1.91,2.08-2.08,3.48l-.67,5.5-.76,6.17c-.18,1.44.28,2.88,1.25,3.95.95,1.05,2.3,1.65,3.72,1.65.03,0,.06,0,.09,0,.22,0,.44,0,.66,0,1.65,0,3.39.12,6.64.48,2,.22,4.01.45,6.02.68-1.2,4.98-2.01,8.04-3.52,13.38-3.34-.57-6.7-1.11-10.03-1.62-4.12-.62-5.17-.84-7.01-1.42-.49-.16-1-.23-1.51-.23-.96,0-1.9.27-2.72.81-1.25.81-2.08,2.14-2.25,3.63l-.66,5.76-.66,5.76c-.16,1.37.26,2.74,1.15,3.79.89,1.05,2.17,1.69,3.54,1.77,1.69.1,3.32.28,7.1.95,8.79,1.58,17.67,3.4,26.38,5.4,3.75.86,5.72,1.5,6.72,1.88.58.23,1.19.34,1.8.34.85,0,1.7-.22,2.45-.64,1.3-.73,2.21-2.01,2.47-3.48l.79-4.46,1.45-8.13c.25-1.42-.12-2.87-1.01-3.99-.9-1.12-2.23-1.81-3.67-1.88-1.39-.07-2.96-.26-4.93-.61,1.98-7.15,3.42-12.41,4.38-15.97q1.93-7.21,2.72-8.57c.96-1.64.91-3.69-.13-5.28-1.27-1.93-2.58-3.88-3.89-5.78-.96-1.39-2.52-2.17-4.12-2.17-.71,0-1.42.15-2.09.46-.15.07-.23.1-.28.12h-.03c-.15,0-.39-.02-.72-.05-4.98-.54-10.05-1.04-15.06-1.46-4.27-.36-5.25-.49-7.55-1-.36-.08-.73-.12-1.09-.12h0Z" fill="#fff" stroke-width="0"/><path d="m367.54,251.8c-.24,0-.48-.03-.71-.1-3.71-1.1-7.47-2.17-11.18-3.19-1.27-.35-2.05-1.62-1.79-2.9l3.23-16.11c.13-.66.53-1.25,1.1-1.61.41-.26.88-.4,1.35-.4.19,0,.38.02.57.07,3.85.91,7.77,1.88,11.63,2.87,1.3.34,2.1,1.64,1.82,2.95l-3.59,16.45c-.15.68-.57,1.27-1.17,1.62-.39.23-.83.35-1.27.35Zm3.83-22.63c-.2,0-.39-.02-.59-.07-3.17-.77-6.39-1.52-9.57-2.24-.67-.15-1.24-.57-1.59-1.15-.35-.59-.45-1.29-.27-1.95.44-1.6.58-2.28.85-3.65q.32-1.58,1.09-6.6c1.43-9.11,2.83-18.19,4.22-27.25.5-3.06.91-6.44,1.35-10.01l.18-1.51c.15-1.27,1.23-2.2,2.48-2.2.1,0,.2,0,.3.02,4.93.6,9.93,1.26,14.88,1.98.73.11,1.37.53,1.76,1.15.39.62.49,1.39.26,2.09-.6,1.89-2.3,7.86-3.3,11.54-2.42,9.12-4.82,18.23-7.21,27.32l-.1.42c-.82,3.27-1.23,4.92-1.5,6.12l-.03.15c-.18.82-.38,1.77-.76,3.8-.13.67-.52,1.27-1.1,1.64-.41.26-.88.4-1.36.4Z" stroke-width="0"/><path d="m369.52,175.05c4.94.6,9.89,1.26,14.82,1.97-.63,1.98-2.34,8.02-3.33,11.65-2.42,9.13-4.83,18.25-7.21,27.34-.91,3.62-1.34,5.35-1.62,6.65-.19.87-.39,1.83-.81,4.01-3.2-.78-6.4-1.53-9.61-2.25.46-1.68.62-2.45.89-3.82q.33-1.62,1.11-6.71c1.43-9.1,2.83-18.19,4.22-27.25.58-3.51,1.03-7.39,1.54-11.6m-9.98,54.94c3.87.91,7.73,1.87,11.58,2.86-1.2,5.48-2.39,10.97-3.58,16.45-3.73-1.11-7.48-2.17-11.23-3.2,1.08-5.37,2.15-10.74,3.23-16.11m9.97-59.94c-2.49,0-4.65,1.86-4.96,4.4l-.18,1.48c-.43,3.56-.84,6.92-1.33,9.91,0,.02,0,.04,0,.05-1.38,9.02-2.8,18.19-4.22,27.23q-.76,4.97-1.07,6.48c-.27,1.33-.4,1.99-.82,3.5-.24.87-.24,1.77,0,2.63-.03.02-.06.04-.09.05-1.14.73-1.94,1.9-2.2,3.22l-1.62,8.06-1.62,8.06c-.52,2.58,1.05,5.11,3.58,5.81,3.7,1.01,7.45,2.08,11.13,3.17.47.14.94.21,1.42.21.89,0,1.77-.24,2.55-.7,1.2-.71,2.04-1.88,2.34-3.24l3.58-16.45c.31-1.44-.03-2.88-.84-4,.56-.66.94-1.45,1.11-2.32.38-2,.58-2.93.75-3.74l.03-.14c.25-1.17.67-2.82,1.49-6.11l.09-.34c2.37-9.03,4.79-18.22,7.2-27.31.98-3.63,2.66-9.54,3.26-11.41.45-1.4.26-2.93-.52-4.17-.78-1.25-2.07-2.09-3.52-2.3-4.95-.72-9.98-1.39-14.94-1.99-.2-.02-.41-.04-.61-.04h0Z" fill="#fff" stroke-width="0"/></g></svg>