<?xml version="1.0" encoding="UTF-8"?><svg id="b" xmlns="http://www.w3.org/2000/svg" width="453.47" height="316.56" xmlns:xlink="http://www.w3.org/1999/xlink" viewBox="0 0 453.47 316.56"><defs><pattern id="d" x="0" y="0" width="28.8" height="28.8" patternTransform="translate(-7117.35 -3370.94) rotate(16.93) scale(.5)" patternUnits="userSpaceOnUse" viewBox="0 0 28.8 28.8"><rect x="0" width="28.8" height="28.8" fill="none" stroke-width="0"/><path d="m28.8,32.4c1.99,0,3.6-1.61,3.6-3.6s-1.61-3.6-3.6-3.6-3.6,1.61-3.6,3.6,1.61,3.6,3.6,3.6Z" fill="#231f20" stroke-width="0"/><path d="m14.4,32.4c1.99,0,3.6-1.61,3.6-3.6s-1.61-3.6-3.6-3.6-3.6,1.61-3.6,3.6,1.61,3.6,3.6,3.6Z" fill="#231f20" stroke-width="0"/><circle cx="28.8" cy="14.4" r="3.6" fill="#231f20" stroke-width="0"/><path d="m14.4,18c1.99,0,3.6-1.61,3.6-3.6s-1.61-3.6-3.6-3.6-3.6,1.61-3.6,3.6,1.61,3.6,3.6,3.6Z" fill="#231f20" stroke-width="0"/><path d="m7.2,25.2c1.99,0,3.6-1.61,3.6-3.6s-1.61-3.6-3.6-3.6-3.6,1.61-3.6,3.6,1.61,3.6,3.6,3.6Z" fill="#231f20" stroke-width="0"/><path d="m21.6,25.2c1.99,0,3.6-1.61,3.6-3.6s-1.61-3.6-3.6-3.6-3.6,1.61-3.6,3.6,1.61,3.6,3.6,3.6Z" fill="#231f20" stroke-width="0"/><path d="m7.2,10.8c1.99,0,3.6-1.61,3.6-3.6s-1.61-3.6-3.6-3.6-3.6,1.61-3.6,3.6,1.61,3.6,3.6,3.6Z" fill="#231f20" stroke-width="0"/><path d="m21.6,10.8c1.99,0,3.6-1.61,3.6-3.6s-1.61-3.6-3.6-3.6-3.6,1.61-3.6,3.6,1.61,3.6,3.6,3.6Z" fill="#231f20" stroke-width="0"/><path d="m0,32.4c1.99,0,3.6-1.61,3.6-3.6s-1.61-3.6-3.6-3.6-3.6,1.61-3.6,3.6,1.61,3.6,3.6,3.6Z" fill="#231f20" stroke-width="0"/><circle cy="14.4" r="3.6" fill="#231f20" stroke-width="0"/><path d="m28.8,3.6c1.99,0,3.6-1.61,3.6-3.6s-1.61-3.6-3.6-3.6-3.6,1.61-3.6,3.6,1.61,3.6,3.6,3.6Z" fill="#231f20" stroke-width="0"/><path d="m14.4,3.6c1.99,0,3.6-1.61,3.6-3.6s-1.61-3.6-3.6-3.6-3.6,1.61-3.6,3.6,1.61,3.6,3.6,3.6Z" fill="#231f20" stroke-width="0"/><path d="m0,3.6c1.99,0,3.6-1.61,3.6-3.6S1.99-3.6,0-3.6-3.6-1.99-3.6,0-1.99,3.6,0,3.6Z" fill="#231f20" stroke-width="0"/></pattern><pattern id="e" patternTransform="translate(-5824.71 -4291.03) scale(.5)" xlink:href="#d"/></defs><g id="c"><path d="m185.54,87.08c-47.85-.02-68.83-19.03-75.67-28.01,2.83,17.06-2.63,34.17-19.46,46.16-17.46,12.15-49.17,13.79-62.16,13.86-.8.01-1.65,0-2.5-.01,18.52,6.06,39.1,19.38,47.4,32.57,7.47,18.3-6.68,38.03-18.94,51.25,29.56-5.82,52-16.02,86.49-9.77,19.29,2.46,40.21,22.95,42.61,36.11,14.4-14.73,45.86-20.25,74.72-12.57,20.83,10.87,31.27,29.43,48.12,56.5.29-11.96-2.5-34.18,7.04-43.04,12.97-12.06,61.52,5.6,75.35,11.64-5.82-17.03-2.9-40.56,6.13-62.43,9.04-21.86,29.79-36.09,53.56-63.46-40.45,7.91-105.57,4.34-131.58-9.01-26-13.35-41.01-32.84-48.8-58.52-11.01,11.86-30.49,40.2-82.3,38.73Z" fill="url(#d)" stroke-width="0"/><path d="m181.54,67.08c-47.85-.02-68.83-19.03-75.67-28.01,2.83,17.06-2.63,34.17-19.46,46.16-17.46,12.15-49.17,13.79-62.16,13.86-.8.01-1.65,0-2.5-.01,18.52,6.06,39.1,19.38,47.4,32.57,7.47,18.3-6.68,38.03-18.94,51.25,29.56-5.82,52-16.02,86.49-9.77,19.29,2.46,40.21,22.95,42.61,36.11,14.4-14.73,45.86-20.25,74.72-12.57,20.83,10.87,31.27,29.43,48.12,56.5.29-11.96-2.5-34.18,7.04-43.04,12.97-12.06,61.52,5.6,75.35,11.64-5.82-17.03-2.9-40.56,6.13-62.43,9.04-21.86,29.79-36.09,53.56-63.46-40.45,7.91-105.57,4.34-131.58-9.01-26-13.35-41.01-32.84-48.8-58.52-11.01,11.86-30.49,40.2-82.3,38.73Z" fill="#fff" stroke-width="0"/><path d="m181.49,70.58c-21.27-.08-43.38-3.62-61.83-14.92-6.18-3.84-11.94-8.49-16.58-14.47l6.24-2.69c3.42,19.35-4.45,37.99-20.47,49.28-15.12,10.28-34.1,12.87-51.88,14.34-5.1.34-10.11.53-15.31.46,0,0,1.16-6.83,1.16-6.83,18.12,5.84,39.12,17.44,50.12,33.5,4.99,10.2,3.03,22.61-1.57,32.4-4.3,9.32-10.47,17.4-17.2,24.93,0,0-5.02-9-5.02-9,23.77-4.99,48.38-13.86,73.35-12.09,5.51.25,11.12,1.05,16.57,1.94,17.15,3.11,33.18,15.61,42.34,30.11,1.81,3.03,3.44,6.35,4.3,10.53,0,0-11.07-3.38-11.07-3.38,20.09-19.44,56.73-20.92,82.07-13.18,17.88,9.22,29.8,26.26,39.99,42.85,3.34,5.38,6.56,10.75,9.82,16.08,0,0-9.55,2.6-9.55,2.6.64-14.51-2.58-37.46,10.87-47.51,16.71-11.22,60.63,5.51,78.09,13.02,0,0-4.71,4.34-4.71,4.34-2.12-6.26-3.02-12.75-3.17-19.16-.26-12.77,2.22-25.36,6.25-37.38,2.05-6.02,4.44-12.06,7.77-17.5,3.32-5.53,7.29-10.53,11.44-15.23,12.38-13.72,26.14-26.1,38.07-40.04,0,0,3.31,5.73,3.31,5.73-17.66,3.35-35.54,4.32-53.44,4.21-22.35-.38-44.88-2.1-66.5-8.21-13.18-3.7-25.34-11.04-35.72-19.99-13.88-12-23.56-28.49-28.73-45.96,0,0,5.91,1.36,5.91,1.36-5.24,5.83-10.58,12.16-16.64,17.37-18.4,16.69-43.86,23.4-68.28,22.47h0Zm.1-7c22.82.86,46.38-5.17,63.57-20.74,7.35-6.38,13.49-14.21,20.25-21.36,2.88,10.13,6.54,20.32,12.09,29.22,8.85,14.6,22.34,25.95,37.59,33.47,7.59,3.65,16.08,5.78,24.39,7.49,17.08,3.33,34.62,4.65,52.03,4.87,17.39.11,34.97-.84,52.03-4.08,0,0,9.93-1.9,9.93-1.9l-6.61,7.63c-8.14,9.39-16.89,18.21-25.54,26.89-10.68,10.88-21.33,21.36-27.22,35.15-7.61,18.73-12.49,40.71-6.25,60.41,0,0,2.44,7.29,2.44,7.29-18.67-7.91-51.94-20.08-72.01-17.14-3.19.62-5.4,1.49-7.13,3.83-4.45,6.69-4.16,15.11-4.25,23.16.43,9.09.42,23.52.25,32.92,0,0-9.39-14.79-9.39-14.79-13.02-19.81-24.54-42.94-46.43-54.07,0,0,1.2.46,1.2.46-17.76-4.41-37.29-4.35-54.34,2.38-5.49,2.22-10.51,5.28-14.22,9.12,0,0-8.98,8.39-8.98,8.39,0,0-2.09-11.77-2.09-11.77-.32-1.82-1.27-4.13-2.56-6.33-7.39-12.08-21.26-23.21-35.47-25.19-15.91-3.02-31.83-2.17-47.85,1.28-16.34,3.69-35.01,8.26-52,11.11,13.16-14.66,37.89-36.02,29.96-57.93,0,0,.36.69.36.69-2.22-3.64-5.26-7.08-8.61-10.22-10.3-9.45-22.9-16.72-36.06-21.42,0,0-20.65-6.99-20.65-6.99,0,0,21.81.17,21.81.17,19.9-.12,46.13-2.1,62.95-13.49,13.74-9.56,20.69-25.86,17.65-42.45,0,0-2.33-13.79-2.33-13.79,0,0,8.57,11.1,8.57,11.1,3.88,5.03,9.08,9.29,14.68,12.76,17.36,10.6,38.13,13.79,58.26,13.88h0Z" stroke-width="0"/><path d="m117.83,315.59c4.64-16.72,12.29-32.4,20.17-47.78,16.44-30.47,34.39-60.35,55.59-87.79,20.83-27.77,45.42-52.5,71.58-75.23,13.03-10.97,26.71-22.44,40.06-33.03,27.2-21.29,55.73-41.01,86.4-56.67.38-.19.84-.04,1.03.33.19.36.05.81-.3,1.01-40.38,24.07-76.21,55.22-108.45,89.25-7.05,7.74-14.36,15.94-21.36,23.75-20.85,24.43-50.05,57.41-70.92,81.88-16.51,19.38-33.29,39.02-47.45,60.2-9.45,14.14-18.71,28.63-24.9,44.54-.15.4-.6.6-.99.45-.37-.14-.57-.54-.47-.91h0Z" fill="url(#e)" stroke-width="0"/><path d="m114.83,300.59c4.64-16.72,12.29-32.4,20.17-47.78,16.44-30.47,34.39-60.35,55.59-87.79,20.83-27.77,45.42-52.5,71.58-75.23,13.03-10.97,26.71-22.44,40.06-33.03C329.44,35.46,357.97,15.75,388.64.08c.38-.19.84-.04,1.03.33.19.36.05.81-.3,1.01-40.38,24.07-76.21,55.22-108.45,89.25-7.05,7.74-14.36,15.94-21.36,23.75-20.85,24.43-50.05,57.41-70.92,81.88-16.51,19.38-33.29,39.02-47.45,60.2-9.45,14.14-18.71,28.63-24.9,44.54-.15.4-.6.6-.99.45-.37-.14-.57-.54-.47-.91h0Z" fill="#f33" stroke-width="0"/><path d="m100.72,145c-.69,0-1.37-.29-1.86-.83-2.25-2.5-3.46-3.43-6.76-5.2-.87-.47-1.38-1.4-1.31-2.39.07-.99.72-1.83,1.65-2.17,7.17-2.59,12.77-5.66,17.61-9.67,3.55-2.94,6.16-5.81,8.22-9.11-3.7.55-7.39,1.14-11.04,1.75-5.34.93-7.17,1.34-9.47,1.96-.21.06-.43.09-.65.09-.47,0-.94-.13-1.35-.39-.59-.38-1-.99-1.12-1.68-.41-2.35-.81-4.7-1.22-7.05-.12-.68.05-1.37.46-1.92.41-.55,1.03-.91,1.71-.99,2.54-.3,4.15-.54,6.38-.97.52-.1,1.68-.32,3.43-.68,7.11-1.38,14.3-2.66,21.42-3.8l.25-.04c2.65-.44,2.8-.46,4.14-1.03.31-.13.65-.2.98-.2.44,0,.88.12,1.27.35,1.94,1.15,3.88,2.34,5.77,3.55.66.42,1.08,1.12,1.14,1.9s-.23,1.54-.81,2.06c-.58.53-.76.73-1.56,2.32-2.39,4.97-4.3,8.27-6.59,11.31,5.86,2.79,9.04,4.78,17.13,10.9.6.45.96,1.14.99,1.89.03.75-.27,1.47-.83,1.97-2.7,2.42-5.36,4.78-7.99,7.09-.47.42-1.06.62-1.65.62-.64,0-1.28-.24-1.76-.73-4.72-4.68-9.55-8.2-15.5-11.26-5.2,4.87-11.65,8.76-20.14,12.18-.3.12-.62.18-.93.18Z" stroke-width="0"/><path d="m132.18,103.17c1.91,1.13,3.81,2.3,5.69,3.5-.9.82-1.26,1.34-2.11,3.04-3,6.23-5.13,9.66-8.31,13.35,7.53,3.46,10.13,4.84,19.58,11.98-2.69,2.41-5.35,4.77-7.97,7.07-5.3-5.26-10.74-9.12-17.73-12.52-5.24,5.29-11.9,9.39-20.6,12.89-2.41-2.68-3.8-3.78-7.44-5.73,7.42-2.68,13.24-5.86,18.36-10.1,5.23-4.34,8.63-8.66,11.15-14.22-5.34.76-10.67,1.58-15.99,2.47-5.27.92-7.23,1.34-9.71,2.01-.41-2.35-.81-4.71-1.22-7.05,2.44-.29,4.13-.53,6.55-1,.5-.09,1.68-.32,3.47-.69,7.08-1.38,14.18-2.64,21.3-3.78,2.94-.48,3.31-.53,4.98-1.24m0-5c-.66,0-1.33.13-1.96.4q-1.06.45-3.56.86l-.27.04c-7.13,1.14-14.35,2.42-21.44,3.8-.02,0-.04,0-.07.01-1.75.37-2.9.58-3.39.68-2.16.41-3.73.65-6.2.94-1.36.16-2.6.88-3.42,1.98-.82,1.1-1.15,2.49-.92,3.84.41,2.35.81,4.69,1.22,7.05.24,1.39,1.05,2.61,2.23,3.36.81.52,1.75.79,2.69.79.43,0,.87-.06,1.3-.17,2.23-.6,4.01-1,9.27-1.91,1.59-.27,3.2-.53,4.81-.79-1.18,1.27-2.51,2.51-4.02,3.76-4.61,3.82-9.96,6.76-16.86,9.24-1.86.67-3.15,2.37-3.29,4.34-.14,1.97.89,3.84,2.63,4.77,3.21,1.72,4.13,2.49,6.09,4.67.97,1.07,2.33,1.65,3.72,1.65.63,0,1.26-.12,1.87-.36,8.08-3.25,14.4-6.94,19.58-11.47,5.03,2.75,9.25,5.92,13.36,10.01.97.96,2.25,1.45,3.52,1.45,1.17,0,2.35-.41,3.3-1.24,2.6-2.28,5.29-4.67,8.01-7.11,1.11-1,1.72-2.44,1.66-3.93s-.79-2.88-1.98-3.78c-6.99-5.28-10.4-7.56-14.91-9.86,1.68-2.54,3.25-5.42,5.11-9.28.61-1.2.66-1.25.99-1.55,1.15-1.05,1.75-2.57,1.62-4.12s-.98-2.95-2.29-3.79c-1.92-1.23-3.89-2.44-5.84-3.59-.78-.46-1.66-.7-2.55-.7h0Z" fill="#fff" stroke-width="0"/><path d="m162.57,146.53c-.94,0-1.83-.53-2.25-1.42-1.4-2.92-2.92-4.91-6.04-7.89-.67-.64-.93-1.6-.67-2.5s.99-1.57,1.9-1.76c6.82-1.41,10.84-2.88,14.84-5.45,2.82-1.78,4.85-3.65,6.57-6.11-7.29.05-14.62.23-21.84.53-4.7.21-5.67.31-9.46.76-.1.01-.2.02-.3.02-.6,0-1.18-.21-1.63-.61-.53-.46-.85-1.12-.87-1.82l-.23-8.17c-.02-.68.24-1.35.72-1.83.47-.47,1.11-.74,1.77-.74.02,0,.03,0,.05,0,.54.01,1.05.02,1.56.02.61,0,1.22,0,1.89-.03-.02-.02-.04-.03-.06-.05-.56-.46-.88-1.15-.9-1.87l-.16-8.32c-.01-.67.25-1.32.72-1.8.47-.48,1.11-.75,1.78-.75h.16c2.23,0,4.38-.15,8.85-.61,6.72-.69,13.52-1.28,20.22-1.75,4.69-.33,7.47-.58,9.62-1.02.17-.04.34-.05.51-.05.59,0,1.17.21,1.62.6.59.5.91,1.25.87,2.02l-.46,9.43c-.04.75-.4,1.4-.94,1.83.17-.04.34-.05.51-.05.66,0,1.31.26,1.79.76,1.55,1.59,3.09,3.21,4.57,4.83.83.9.88,2.27.13,3.23-.63.81-.68.88-1.59,3.02-3.85,8.89-8.77,15.34-15.03,19.75-4.74,3.36-9.17,5.3-17.54,7.71-.23.07-.46.1-.69.1Zm22.72-38.87c-1.77,0-3.7.05-5.9.15-3.54.16-7.11.35-10.67.57,5.74-.26,11.48-.45,17.19-.55,1.33-.02,2.07-.04,2.59-.11-1.04-.04-2.09-.06-3.22-.06Z" stroke-width="0"/><path d="m189.33,95.81h0m0,0c-.16,3.14-.31,6.29-.47,9.43-1.05-.04-2.22-.07-3.57-.07-1.67,0-3.63.04-6.01.15-6.73.3-13.45.72-20.16,1.24-4.91.39-6.28.57-9.01,1.01-.05-2.77-.1-5.55-.16-8.32.05,0,.11,0,.16,0,2.4,0,4.73-.17,9.11-.63,6.7-.69,13.42-1.27,20.14-1.74,4.99-.35,7.72-.61,9.95-1.07m1.6,13.84c1.52,1.56,3.03,3.16,4.52,4.78-.8,1.02-.93,1.25-1.92,3.58-3.66,8.45-8.25,14.52-14.17,18.68-4.58,3.24-8.83,5.06-16.79,7.35-1.5-3.13-3.12-5.32-6.57-8.62,7.07-1.46,11.34-3,15.68-5.79,4.41-2.79,7.15-5.84,9.58-10.73-.2,0-.39,0-.59,0-8.57,0-17.14.18-25.72.55-4.8.21-5.83.32-9.65.78-.08-2.72-.15-5.45-.23-8.17.56.01,1.09.02,1.61.02,2.09,0,4.18-.1,8.31-.39,10.31-.71,20.63-1.16,30.96-1.34,2.96-.05,3.4-.11,4.97-.69m-1.6-18.84s-.06,0-.09,0c-.35,0-.7.05-1.03.12-2.01.41-4.69.64-9.19.96-6.75.48-13.59,1.07-20.31,1.76-4.38.45-6.47.6-8.6.6h-.14s-.01,0-.02,0c-1.34,0-2.62.54-3.56,1.49-.94.96-1.46,2.26-1.44,3.6l.06,3.32.08,4.39s-.02,0-.03,0c-1.33,0-2.61.53-3.55,1.48-.96.97-1.49,2.3-1.45,3.66l.08,2.72.15,5.45c.04,1.4.67,2.73,1.73,3.65.91.79,2.07,1.21,3.27,1.21.2,0,.4-.01.59-.04,3.71-.44,4.66-.55,9.28-.75,5.26-.22,10.57-.38,15.88-.47-.63.49-1.3.96-2.04,1.43-3.79,2.43-7.45,3.77-14.02,5.12-1.82.37-3.28,1.73-3.8,3.51-.51,1.79,0,3.71,1.35,4.99,3.25,3.11,4.41,4.86,5.51,7.17.85,1.77,2.63,2.84,4.51,2.84.46,0,.92-.06,1.38-.2,8.68-2.5,13.3-4.54,18.3-8.08,6.64-4.67,11.83-11.46,15.86-20.77q.8-1.87,1.28-2.49c1.5-1.93,1.39-4.66-.27-6.46-1.52-1.65-3.07-3.29-4.62-4.88-.21-.21-.43-.4-.66-.57,0-.03,0-.07,0-.1l.16-3.14.3-6.12c.01-.14.02-.27.02-.41,0-2.76-2.23-5-4.99-5,0,0,0,0,0,0h0Zm0,10h0,0Z" fill="#fff" stroke-width="0"/><path d="m210.94,150.69c-.99,0-1.92-.59-2.31-1.55-1.51-3.69-2.39-5.13-5.25-8.57-.54-.65-.71-1.53-.46-2.34.25-.81.89-1.43,1.71-1.66,9.49-2.67,15.62-6.64,20.05-13.21-2.54.6-5.08,1.19-7.6,1.79-.19.04-.38.07-.57.07-.5,0-1-.15-1.42-.45-.24-.17-.45-.37-.61-.61-.34.47-.85.82-1.46.97-3.22.75-6.42,1.5-9.61,2.25-.19.04-.38.07-.57.07-.48,0-.96-.14-1.37-.41-.57-.38-.97-.98-1.09-1.65-1.12-6.31-2.06-9.61-4.2-14.7-.28-.67-.26-1.43.07-2.08.33-.65.92-1.13,1.62-1.31,3.1-.79,6.22-1.58,9.34-2.36.2-.05.41-.08.61-.08.95,0,1.84.55,2.26,1.44,0,.02.01.03.02.05.03-.07.06-.13.09-.2.33-.64.93-1.11,1.63-1.28,3.09-.75,6.2-1.5,9.32-2.25.2-.05.39-.07.58-.07,1,0,1.92.6,2.31,1.55,2.22,5.41,3.2,8.5,4.02,13.08,1.63-3.69,2.89-7.77,3.31-10.79.1-.72.51-1.36,1.12-1.76.41-.26.88-.4,1.35-.4.24,0,.48.03.71.1,3.35,1,6.71,2.05,9.97,3.13.68.22,1.23.73,1.51,1.38.28.65.27,1.4-.03,2.05-.47,1.02-.54,1.18-1.37,3.64-3.22,9.38-6.51,15.86-10.68,21-3.98,4.91-8.86,8.86-14.5,11.76-2.3,1.14-4,1.86-7.62,3.23-.29.11-.59.16-.88.16Z" stroke-width="0"/><path d="m221.71,105.05c2.64,6.44,3.42,9.32,4.33,15.42-3.2.75-6.38,1.5-9.55,2.24-.66-5.13-1.86-9.78-4.1-15.42,3.09-.75,6.19-1.5,9.31-2.25m12.12,1.69c3.32.99,6.62,2.02,9.9,3.11-.53,1.15-.63,1.4-1.47,3.9-3.09,9.01-6.29,15.34-10.25,20.22-3.82,4.71-8.45,8.41-13.7,11.12-2.16,1.07-3.81,1.77-7.36,3.11-1.62-3.95-2.64-5.6-5.64-9.21,12.11-3.41,19.23-8.88,24.22-19.06,2.09-4.29,3.78-9.44,4.3-13.18m-26.03.63c2.06,4.41,3.54,9.39,4.64,15.33-3.22.75-6.42,1.5-9.61,2.25-1.11-6.24-2.07-9.79-4.36-15.23,3.1-.79,6.21-1.57,9.34-2.36m13.91-7.31c-.39,0-.78.04-1.17.14-3.12.75-6.23,1.5-9.33,2.25-.41.1-.81.25-1.18.45-.69-.34-1.45-.53-2.24-.53-.4,0-.81.05-1.22.15-3.13.78-6.25,1.57-9.35,2.36-1.41.36-2.6,1.31-3.24,2.62-.65,1.3-.7,2.82-.13,4.17,2.06,4.89,2.96,8.07,4.04,14.17.24,1.35,1.03,2.55,2.17,3.3.82.54,1.78.82,2.75.82.38,0,.77-.04,1.15-.13,3.19-.75,6.39-1.5,9.6-2.25.3-.07.6-.17.87-.29.65.29,1.34.44,2.05.44.35,0,.71-.04,1.06-.11-3.47,2.88-7.84,4.94-13.61,6.56-1.63.46-2.92,1.71-3.42,3.33-.5,1.62-.15,3.38.93,4.68,2.68,3.23,3.45,4.48,4.86,7.92.79,1.93,2.66,3.11,4.63,3.11.59,0,1.18-.1,1.76-.32,3.66-1.38,5.48-2.15,7.82-3.32.02-.01.04-.02.06-.03,5.95-3.06,11.1-7.24,15.3-12.41,4.37-5.38,7.79-12.09,11.1-21.75.82-2.43.85-2.5,1.27-3.41.6-1.29.62-2.78.05-4.09s-1.67-2.31-3.02-2.76c-3.31-1.1-6.69-2.16-10.04-3.15-.47-.14-.95-.21-1.42-.21-.95,0-1.89.27-2.71.8-1.23.79-2.05,2.07-2.25,3.52-.1.75-.27,1.58-.48,2.46-.55-1.59-1.22-3.32-2.05-5.36-.78-1.91-2.64-3.1-4.62-3.1h0Z" fill="#fff" stroke-width="0"/><path d="m246.56,155.73c-.58,0-1.15-.2-1.6-.58-.52-.44-.85-1.07-.89-1.75-.3-4.3-.64-8.69-.99-13.02-.06-.75.22-1.5.77-2.02.47-.44,1.09-.69,1.72-.69.11,0,.22,0,.33.02,1.4.19,3,.28,4.76.28,4.35,0,9.1-.59,13.04-1.62,6.96-1.8,12.75-5.45,18.24-11.49,3.71-4.15,6.24-7.9,9.64-14.31.43-.82,1.28-1.33,2.21-1.33h0c.92,0,1.77.51,2.21,1.33,2.73,5.13,3.93,7.07,6.59,10.03.74.82.85,2.03.27,2.98-5.26,8.59-8.9,13.26-13.92,17.85-7.91,7.38-16.47,11.58-26.93,13.22-3.86.63-6.69.77-11.2.84h-.11c-1.47,0-2.53.09-3.85.23-.09.01-.18.02-.28.02Zm15.58-19.99c-.74,0-1.44-.33-1.92-.9-4.18-5.01-8.73-8.74-14.77-12.1-.64-.36-1.09-.97-1.24-1.69-.14-.72.03-1.46.49-2.04,2.31-2.94,4.66-5.92,7.04-8.94.49-.62,1.22-.95,1.96-.95.41,0,.83.1,1.21.31,6.83,3.77,11.16,7.02,16,12,.83.86.94,2.19.26,3.17-2.36,3.38-4.68,6.73-6.97,10.05-.44.64-1.16,1.04-1.94,1.08-.04,0-.08,0-.11,0Zm7.88-17.17c-.66,0-1.29-.26-1.76-.72-5.08-5.02-9.56-8.19-15.44-10.95-.69-.32-1.19-.94-1.37-1.68-.18-.74,0-1.52.46-2.12,2.33-3,4.69-6.03,7.09-9.09.49-.62,1.22-.96,1.97-.96.36,0,.73.08,1.07.24,7.04,3.34,12.14,6.59,17.07,10.86.99.86,1.15,2.34.37,3.39-2.52,3.37-5,6.71-7.45,10.02-.43.58-1.09.95-1.82,1.01-.06,0-.13,0-.19,0Z" stroke-width="0"/><path d="m260.97,95.55c7.03,3.34,11.9,6.5,16.5,10.49-2.52,3.38-5,6.72-7.45,10.03-5.48-5.41-10.19-8.65-16.13-11.43,2.33-3,4.69-6.03,7.08-9.09m-7.27,16.09c6.62,3.65,10.71,6.71,15.42,11.55-2.36,3.39-4.69,6.74-6.98,10.06-4.34-5.2-9.1-9.13-15.47-12.68,2.31-2.94,4.66-5.92,7.03-8.93m40.07.1c2.72,5.12,4.06,7.33,6.94,10.53-5.09,8.31-8.62,12.87-13.48,17.31-7.69,7.18-15.85,11.07-25.63,12.6-3.59.58-6.14.74-10.85.81-.02,0-.05,0-.07,0-1.66,0-2.83.1-4.12.25-.31-4.38-.64-8.74-1-13.06,1.52.2,3.25.3,5.09.3,4.37,0,9.35-.57,13.67-1.7,7.46-1.93,13.62-5.8,19.46-12.23,3.86-4.32,6.49-8.22,10-14.82m-32.8-21.19c-1.5,0-2.97.68-3.94,1.92-2.4,3.07-4.76,6.1-7.09,9.1-.93,1.2-1.27,2.76-.91,4.24.2.85.62,1.61,1.2,2.23-.16.15-.31.32-.45.5-2.38,3.01-4.73,5.99-7.04,8.94-.9,1.15-1.26,2.64-.97,4.08.29,1.43,1.19,2.67,2.47,3.38,5.19,2.88,9.22,6.05,12.87,10.13-2.15.27-4.35.41-6.46.41-1.64,0-3.13-.09-4.43-.26-.22-.03-.44-.04-.66-.04-1.27,0-2.51.49-3.45,1.38-1.1,1.04-1.66,2.53-1.54,4.03.35,4.29.69,8.66.99,12.99.1,1.36.74,2.62,1.79,3.49.9.75,2.04,1.16,3.2,1.16.19,0,.37-.01.56-.03,1.26-.14,2.2-.22,3.57-.22h.07s.05,0,.08,0c4.63-.07,7.54-.22,11.58-.88,10.94-1.71,19.92-6.11,28.22-13.85,5.21-4.76,8.97-9.58,14.36-18.38,1.16-1.89.93-4.31-.55-5.96-2.49-2.76-3.62-4.61-6.24-9.53-.87-1.63-2.57-2.65-4.41-2.65h0c-1.85,0-3.55,1.02-4.41,2.66-3.3,6.21-5.73,9.83-9.31,13.83-3.42,3.77-6.88,6.5-10.71,8.4,1.28-1.85,2.58-3.71,3.88-5.58,1.28-1.83,1.18-4.27-.19-5.98.38-.29.73-.63,1.02-1.02,2.44-3.3,4.92-6.64,7.44-10.01,1.57-2.1,1.25-5.05-.73-6.77-5.1-4.42-10.38-7.78-17.63-11.23-.69-.33-1.42-.48-2.14-.48h0Z" fill="#fff" stroke-width="0"/><path d="m334.58,178.52c-.4,0-.8-.1-1.16-.29-1.46-.76-3.81-1.72-6.79-2.77-8.46-2.98-17.11-5.8-25.72-8.38-3.38-1.01-5.21-1.47-7.24-1.82-.68-.12-1.28-.51-1.66-1.08s-.51-1.28-.36-1.95l2.6-11.3c.17-.73.65-1.34,1.32-1.68.35-.17.73-.26,1.12-.26.35,0,.69.07,1.02.22,1.9.85,3.03,1.22,7.17,2.33,3.95,1.07,7.95,2.2,11.9,3.36,3.05-7.42,4.26-10.49,6.85-17.71-2.88-.69-5.78-1.37-8.66-2.01-4.08-.91-5.72-1.17-7.5-1.34-.72-.07-1.38-.45-1.8-1.04-.42-.59-.56-1.33-.4-2.03l2.74-11.44c.16-.69.61-1.27,1.23-1.61.37-.2.79-.31,1.2-.31.28,0,.55.05.82.14,2.35.81,3.43,1.08,7.71,1.94,4.88.98,9.84,2.03,14.74,3.14.62.14,1.01.2,1.31.2.24,0,.51-.04,1.05-.21.26-.09.52-.13.79-.13.9,0,1.76.49,2.21,1.33,1.09,2.05,2.16,4.12,3.19,6.14.43.85.34,1.87-.23,2.63q-1.15,1.54-4,8.79c-1.5,3.8-3.9,9.8-7.16,17.86.21.07.43.14.64.21,2.98.96,5.18,1.53,7.12,1.85.71.12,1.33.53,1.72,1.14.38.61.48,1.35.28,2.04l-3.64,12.26c-.21.72-.74,1.3-1.42,1.59-.31.13-.64.2-.97.2Z" stroke-width="0"/><path d="m310.45,119.92c2.47.86,3.67,1.16,8.04,2.03,4.9.98,9.8,2.02,14.68,3.13.75.17,1.32.26,1.86.26.58,0,1.13-.11,1.83-.34,1.07,2.01,2.13,4.04,3.17,6.09q-1.34,1.79-4.33,9.38c-2.04,5.18-5.39,13.48-8.16,20.34,1.07.34,2.14.68,3.2,1.02,3.14,1.02,5.43,1.6,7.49,1.94l-3.64,12.26c-1.73-.91-4.33-1.93-7.12-2.92-8.55-3.01-17.16-5.81-25.84-8.41-3.61-1.08-5.48-1.53-7.53-1.89.87-3.77,1.73-7.53,2.6-11.3,2.08.93,3.38,1.34,7.53,2.46,4.68,1.27,9.35,2.6,14.01,3.98,4.13-10.01,5.12-12.52,8.69-22.52-3.79-.93-7.59-1.82-11.4-2.68-3.99-.89-5.79-1.19-7.81-1.39.91-3.81,1.83-7.62,2.74-11.44m0-5c-.83,0-1.66.21-2.4.61-1.24.68-2.13,1.85-2.46,3.22l-1.37,5.72-1.37,5.72c-.34,1.41-.05,2.89.79,4.07.84,1.18,2.15,1.93,3.59,2.07,1.68.16,3.25.4,7.2,1.29,1.96.44,3.93.9,5.9,1.36-1.75,4.81-2.9,7.76-5.01,12.9-3.26-.94-6.53-1.86-9.79-2.74-4.03-1.09-5.04-1.41-6.8-2.2-.65-.29-1.34-.43-2.04-.43-.77,0-1.53.18-2.23.52-1.34.67-2.31,1.9-2.64,3.35l-1.3,5.65-1.3,5.65c-.31,1.34-.05,2.75.71,3.89.76,1.14,1.96,1.93,3.32,2.16,1.67.29,3.27.65,6.95,1.75,8.56,2.57,17.18,5.37,25.61,8.34,3.63,1.28,5.52,2.13,6.46,2.63.72.38,1.52.57,2.32.57.66,0,1.32-.13,1.94-.39,1.38-.58,2.42-1.75,2.85-3.18l3.64-12.26c.41-1.38.21-2.86-.56-4.08-.76-1.22-2.01-2.05-3.43-2.28-1.38-.22-2.91-.59-4.83-1.16,2.78-6.88,4.8-11.94,6.15-15.37q2.73-6.95,3.67-8.21c1.14-1.52,1.32-3.57.46-5.27-1.04-2.06-2.13-4.14-3.21-6.18-.89-1.67-2.61-2.65-4.41-2.65-.52,0-1.05.08-1.57.25-.16.05-.25.08-.29.09-.07,0-.27-.03-.73-.14-4.9-1.11-9.87-2.17-14.8-3.15-4.2-.84-5.16-1.08-7.39-1.85-.53-.18-1.09-.28-1.64-.28h0Z" fill="#fff" stroke-width="0"/><path d="m359.57,188.88c-.33,0-.66-.07-.98-.2-3.54-1.5-7.16-2.99-10.75-4.43-1.22-.49-1.85-1.84-1.45-3.09l5.03-15.64c.21-.65.67-1.18,1.28-1.48.35-.17.73-.26,1.1-.26.29,0,.57.05.85.15,3.76,1.35,7.54,2.75,11.24,4.17,1.25.48,1.91,1.87,1.47,3.14l-5.42,15.94c-.22.66-.71,1.19-1.34,1.48-.33.15-.67.22-1.02.22Zm6.36-22.05c-.29,0-.58-.05-.86-.15-3.08-1.13-6.2-2.24-9.26-3.3-.65-.22-1.17-.7-1.45-1.32-.28-.62-.3-1.33-.05-1.97.61-1.53.84-2.24,1.26-3.51.5-1.53.5-1.56,1.83-6.45,2.45-8.89,4.87-17.75,7.27-26.6.85-3.01,1.64-6.34,2.49-9.87l.33-1.41c.27-1.15,1.3-1.92,2.43-1.92.19,0,.39.02.58.07,4.87,1.16,9.77,2.39,14.56,3.65.71.19,1.3.68,1.62,1.34s.33,1.43.02,2.1c-.81,1.81-3.17,7.55-4.58,11.09-3.43,8.79-6.85,17.57-10.24,26.33l-.09.25c-1.22,3.25-1.83,4.88-2.24,6.07l-.05.14c-.27.79-.58,1.72-1.19,3.69-.2.66-.66,1.2-1.28,1.5-.35.17-.73.26-1.11.26Z" stroke-width="0"/><path d="m369.91,112.83c4.84,1.15,9.68,2.36,14.51,3.63-.85,1.9-3.23,7.7-4.62,11.2-3.44,8.8-6.86,17.59-10.25,26.35-1.31,3.5-1.94,5.16-2.36,6.42-.28.84-.6,1.77-1.25,3.89-3.09-1.13-6.19-2.24-9.3-3.32.65-1.62.89-2.37,1.32-3.69q.51-1.58,1.86-6.54c2.44-8.88,4.87-17.75,7.27-26.6.97-3.42,1.85-7.23,2.84-11.35m-16.11,53.46c3.74,1.34,7.47,2.73,11.19,4.15-1.81,5.31-3.61,10.63-5.42,15.94-3.59-1.52-7.19-3-10.8-4.45,1.68-5.21,3.35-10.43,5.03-15.64m16.11-58.46c-2.26,0-4.31,1.54-4.86,3.84l-.35,1.46c-.83,3.48-1.61,6.77-2.44,9.69,0,.02,0,.03-.01.05-2.39,8.81-4.83,17.75-7.26,26.58q-1.32,4.85-1.79,6.32c-.42,1.29-.62,1.93-1.21,3.38-.33.83-.44,1.74-.3,2.61-.03.01-.06.03-.09.04-1.22.6-2.14,1.67-2.55,2.96l-.98,3.06-4.05,12.58c-.8,2.5.46,5.2,2.9,6.17,3.56,1.43,7.17,2.91,10.7,4.41.62.26,1.29.4,1.95.4.7,0,1.39-.15,2.04-.44,1.27-.57,2.24-1.64,2.69-2.95l5.42-15.94c.48-1.4.3-2.87-.38-4.07.63-.59,1.1-1.34,1.36-2.18.6-1.96.91-2.86,1.17-3.65l.04-.12c.38-1.13.97-2.7,2.15-5.84l.14-.39c3.36-8.67,6.8-17.52,10.24-26.32,1.38-3.48,3.72-9.17,4.53-10.97.6-1.34.58-2.88-.05-4.2-.63-1.33-1.82-2.31-3.24-2.68-4.84-1.27-9.76-2.5-14.62-3.66-.39-.09-.78-.14-1.16-.14h0Z" fill="#fff" stroke-width="0"/></g></svg>