<?xml version="1.0" encoding="UTF-8"?><svg id="b" xmlns="http://www.w3.org/2000/svg" width="428.28" height="306.79" xmlns:xlink="http://www.w3.org/1999/xlink" viewBox="0 0 428.28 306.79"><defs><pattern id="d" x="0" y="0" width="28.8" height="28.8" patternTransform="translate(-6651.11 -3386.86) rotate(16.93) scale(.5)" patternUnits="userSpaceOnUse" viewBox="0 0 28.8 28.8"><rect x="0" width="28.8" height="28.8" fill="none" stroke-width="0"/><path d="m28.8,32.4c1.99,0,3.6-1.61,3.6-3.6s-1.61-3.6-3.6-3.6-3.6,1.61-3.6,3.6,1.61,3.6,3.6,3.6Z" fill="#231f20" stroke-width="0"/><path d="m14.4,32.4c1.99,0,3.6-1.61,3.6-3.6s-1.61-3.6-3.6-3.6-3.6,1.61-3.6,3.6,1.61,3.6,3.6,3.6Z" fill="#231f20" stroke-width="0"/><circle cx="28.8" cy="14.4" r="3.6" fill="#231f20" stroke-width="0"/><path d="m14.4,18c1.99,0,3.6-1.61,3.6-3.6s-1.61-3.6-3.6-3.6-3.6,1.61-3.6,3.6,1.61,3.6,3.6,3.6Z" fill="#231f20" stroke-width="0"/><path d="m7.2,25.2c1.99,0,3.6-1.61,3.6-3.6s-1.61-3.6-3.6-3.6-3.6,1.61-3.6,3.6,1.61,3.6,3.6,3.6Z" fill="#231f20" stroke-width="0"/><path d="m21.6,25.2c1.99,0,3.6-1.61,3.6-3.6s-1.61-3.6-3.6-3.6-3.6,1.61-3.6,3.6,1.61,3.6,3.6,3.6Z" fill="#231f20" stroke-width="0"/><path d="m7.2,10.8c1.99,0,3.6-1.61,3.6-3.6s-1.61-3.6-3.6-3.6-3.6,1.61-3.6,3.6,1.61,3.6,3.6,3.6Z" fill="#231f20" stroke-width="0"/><path d="m21.6,10.8c1.99,0,3.6-1.61,3.6-3.6s-1.61-3.6-3.6-3.6-3.6,1.61-3.6,3.6,1.61,3.6,3.6,3.6Z" fill="#231f20" stroke-width="0"/><path d="m0,32.4c1.99,0,3.6-1.61,3.6-3.6s-1.61-3.6-3.6-3.6-3.6,1.61-3.6,3.6,1.61,3.6,3.6,3.6Z" fill="#231f20" stroke-width="0"/><circle cy="14.4" r="3.6" fill="#231f20" stroke-width="0"/><path d="m28.8,3.6c1.99,0,3.6-1.61,3.6-3.6s-1.61-3.6-3.6-3.6-3.6,1.61-3.6,3.6,1.61,3.6,3.6,3.6Z" fill="#231f20" stroke-width="0"/><path d="m14.4,3.6c1.99,0,3.6-1.61,3.6-3.6s-1.61-3.6-3.6-3.6-3.6,1.61-3.6,3.6,1.61,3.6,3.6,3.6Z" fill="#231f20" stroke-width="0"/><path d="m0,3.6c1.99,0,3.6-1.61,3.6-3.6S1.99-3.6,0-3.6-3.6-1.99-3.6,0-1.99,3.6,0,3.6Z" fill="#231f20" stroke-width="0"/></pattern><pattern id="e" patternTransform="translate(-5358.47 -4306.95) scale(.5)" xlink:href="#d"/></defs><g id="c"><path d="m167.09,103.55c-45.36,15.25-71.31,3.94-80.66-2.39,8.13,15.27,8.42,33.22-3.71,49.96-12.66,17.09-42.19,28.76-54.49,32.98-.75.27-1.56.53-2.38.79,19.49-.17,43.25,5.88,55.31,15.73,12.92,14.95,5.81,38.18-1.59,54.62,26.15-14.95,44.16-31.79,78.84-36.87,19.07-3.83,45.43,8.91,51.91,20.62,8.95-18.56,37-33.83,66.79-35.76,23.21,3.65,39.03,17.9,63.64,38.18-3.54-11.43-13.28-31.59-7.07-43.04,8.45-15.57,60.09-14.33,75.12-13.02-10.95-14.28-15.7-37.52-14.12-61.12s16.71-43.71,30.49-77.23c-35.8,20.41-98.66,37.82-127.57,33.47s-49.35-18.03-64.93-39.88c-6.64,14.76-16.06,47.83-65.63,62.97Z" fill="url(#d)" stroke-width="0"/><path d="m163.09,83.55c-45.36,15.25-71.31,3.94-80.66-2.39,8.13,15.27,8.42,33.22-3.71,49.96-12.66,17.09-42.19,28.76-54.49,32.98-.75.27-1.56.53-2.38.79,19.49-.17,43.25,5.88,55.31,15.73,12.92,14.95,5.81,38.18-1.59,54.62,26.15-14.95,44.16-31.79,78.84-36.87,19.07-3.83,45.43,8.91,51.91,20.62,8.95-18.56,37-33.83,66.79-35.76,23.21,3.65,39.03,17.9,63.64,38.18-3.54-11.43-13.28-31.59-7.07-43.04,8.45-15.57,60.09-14.33,75.12-13.02-10.95-14.28-15.7-37.52-14.12-61.12s16.71-43.71,30.49-77.23c-35.8,20.41-98.66,37.82-127.57,33.47s-49.35-18.03-64.93-39.88c-6.64,14.76-16.06,47.83-65.63,62.97Z" fill="#fff" stroke-width="0"/><path d="m164.16,86.88c-20.19,6.71-42.27,10.41-63.36,5.6-7.08-1.66-14.03-4.23-20.33-8.42,0,0,5.05-4.54,5.05-4.54,9.42,17.2,7.9,37.46-3.66,53.23-11.01,14.54-28.25,23.1-44.59,30.15-4.72,1.95-9.41,3.73-14.36,5.33,0,0-1.08-6.84-1.08-6.84,19.06-.25,42.61,4.03,58.19,15.75,7.99,8.07,10.09,20.46,8.86,31.21-1.1,10.21-4.37,19.83-8.35,29.12,0,0-7.63-6.93-7.63-6.93,20.94-12.32,41.42-28.57,65.65-34.87,5.31-1.52,10.87-2.56,16.32-3.46,17.25-2.53,36.43,4.2,49.73,15.02,2.68,2.3,5.29,4.92,7.44,8.61,0,0-11.57.33-11.57.33,12.84-24.84,47.08-37.94,73.57-38.69,19.89,3.02,36.62,15.37,51.58,27.85,4.88,4.03,9.65,8.09,14.44,12.11,0,0-8.22,5.52-8.22,5.51-4.02-13.96-14.41-34.68-4.87-48.49,12.25-15.97,59.21-14.13,78.16-12.59,0,0-3.08,5.62-3.08,5.62-4-5.26-6.93-11.12-9.12-17.15-4.33-12.02-5.99-24.74-6.01-37.42.02-6.36.36-12.84,1.78-19.06,1.38-6.3,3.54-12.31,5.98-18.08,7.35-16.96,16.45-33.08,23.3-50.1,0,0,4.97,4.37,4.97,4.37-15.66,8.81-32.3,15.44-49.3,21.05-21.3,6.77-43.2,12.33-65.64,13.45-13.68.7-27.54-2.37-40.23-7.54-16.99-6.94-31.42-19.48-41.9-34.38,0,0,6.04-.6,6.04-.6-3.1,7.2-6.14,14.9-10.22,21.77-12.11,21.69-34.09,36.18-57.53,43.1h0Zm-2.14-6.67c21.9-6.47,42.31-19.71,53.62-39.95,4.93-8.39,8.25-17.78,12.37-26.71,5.97,8.68,12.68,17.17,20.79,23.83,13.05,11.01,29.45,17.46,46.31,19.72,8.35,1.03,17.09.34,25.51-.69,17.25-2.29,34.29-6.64,50.86-12,16.52-5.45,32.87-11.95,48.01-20.48,0,0,8.8-4.97,8.8-4.97,0,0-3.83,9.35-3.83,9.35-4.71,11.5-10.19,22.64-15.62,33.64-6.64,13.72-13.4,27.06-14.58,42.01-1.23,20.18,1.16,42.57,13.36,59.25,0,0,4.64,6.13,4.64,6.13-20.19-1.54-55.66-2.44-73.71,6.74-2.82,1.61-4.64,3.13-5.53,5.91-2.09,7.76.88,15.65,3.36,23.3,3.31,8.48,7.91,22.16,10.75,31.12,0,0-13.62-11.02-13.62-11.02-18.67-14.61-36.96-32.86-61.26-36.42,0,0,1.28.06,1.28.06-18.24,1.49-36.73,7.78-50.73,19.6-4.49,3.85-8.28,8.36-10.57,13.18,0,0-5.83,10.82-5.83,10.82,0,0-5.74-10.49-5.74-10.49-.89-1.62-2.52-3.51-4.44-5.18-10.89-9.1-27.53-15.2-41.66-12.55-16.04,2.22-30.85,8.11-44.94,16.49-14.31,8.71-30.54,19-45.73,27.13,7.79-18.1,24.41-46.23,9.9-64.47,0,0,.56.54.56.54-3.27-2.74-7.25-5.03-11.42-6.93-12.78-5.67-27.04-8.53-41.01-8.79,0,0-21.9,0-21.9,0,0,0,20.82-6.84,20.82-6.84,18.82-6.46,43.05-16.71,55.35-32.88,9.97-13.45,11.35-31.11,3.17-45.86,0,0-6.61-12.33-6.61-12.33l11.66,7.78c5.28,3.52,11.57,5.91,17.99,7.4,19.84,4.5,40.54.89,59.64-5.45h0Z" stroke-width="0"/><path d="m72.51,15.04c16.42,5.59,31.64,14.14,46.54,22.9,29.48,18.17,58.26,37.81,84.44,60.56,26.52,22.4,49.79,48.37,70.98,75.8,10.2,13.64,20.86,27.96,30.66,41.9,19.69,28.38,37.73,58,51.6,89.52.17.39,0,.84-.39,1.01-.37.16-.81,0-.99-.36-21.7-41.7-50.74-79.27-82.85-113.42-7.32-7.48-15.09-15.25-22.48-22.7-23.19-22.22-54.43-53.27-77.66-75.52-18.39-17.6-37.04-35.49-57.36-50.84-13.57-10.25-27.5-20.32-43.03-27.43-.39-.17-.57-.63-.39-1.02.16-.36.57-.53.94-.42h0Z" fill="url(#e)" stroke-width="0"/><path d="m69.51.04c16.42,5.59,31.64,14.14,46.54,22.9,29.48,18.17,58.26,37.81,84.44,60.56,26.52,22.4,49.79,48.37,70.98,75.8,10.2,13.64,20.86,27.96,30.66,41.9,19.69,28.38,37.73,58,51.6,89.52.17.39,0,.84-.39,1.01-.37.16-.81,0-.99-.36-21.7-41.7-50.74-79.27-82.85-113.42-7.32-7.48-15.09-15.25-22.48-22.7-23.19-22.22-54.43-53.27-77.66-75.52-18.39-17.6-37.04-35.49-57.36-50.84-13.57-10.25-27.5-20.32-43.03-27.43-.39-.17-.57-.63-.39-1.02.16-.36.57-.53.94-.42h0Z" fill="#f33" stroke-width="0"/><path d="m110.58,183.32c-.42,0-.84-.11-1.22-.32-2.94-1.65-4.37-2.14-8.07-2.77-.97-.16-1.76-.88-2.01-1.84s.09-1.97.87-2.58c5.97-4.74,10.3-9.44,13.6-14.79,2.42-3.92,3.98-7.48,4.88-11.26-3.32,1.7-6.64,3.44-9.91,5.18-4.75,2.58-6.36,3.55-8.35,4.88-.41.28-.9.42-1.39.42-.2,0-.4-.02-.6-.07-.68-.17-1.26-.62-1.6-1.24-1.14-2.1-2.27-4.2-3.41-6.29-.33-.6-.39-1.32-.18-1.97.21-.65.69-1.19,1.31-1.48,2.32-1.1,3.77-1.84,5.73-2.95.44-.25,1.47-.83,3.04-1.75,6.27-3.57,12.68-7.07,19.08-10.44l.24-.13c2.36-1.25,2.5-1.33,3.58-2.29.46-.41,1.05-.63,1.66-.63.17,0,.35.02.52.05,2.17.46,4.39.97,6.59,1.52.76.19,1.38.72,1.69,1.43.31.71.27,1.53-.11,2.21-.38.68-.49.93-.74,2.69-.68,5.47-1.43,9.21-2.63,12.83,6.44.78,10.09,1.65,19.72,4.86.71.24,1.27.78,1.54,1.48.27.7.21,1.48-.16,2.13-1.79,3.15-3.56,6.25-5.31,9.27-.46.8-1.3,1.25-2.16,1.25-.37,0-.75-.08-1.1-.26-5.96-2.93-11.67-4.72-18.28-5.72-3.37,6.27-8.24,12.02-15.19,17.97-.46.4-1.04.6-1.63.6Z" stroke-width="0"/><path d="m127.84,133.5c2.17.46,4.34.96,6.51,1.5-.59,1.07-.76,1.67-1.03,3.56-.86,6.87-1.78,10.79-3.61,15.3,8.24.88,11.14,1.35,22.38,5.11-1.78,3.15-3.55,6.23-5.3,9.25-6.7-3.29-13.09-5.21-20.8-6.2-3.28,6.69-8.28,12.7-15.41,18.79-3.14-1.77-4.81-2.37-8.88-3.05,6.18-4.91,10.68-9.78,14.17-15.43,3.57-5.78,5.42-10.97,6.03-17.04-4.82,2.42-9.6,4.9-14.36,7.44-4.71,2.55-6.42,3.58-8.56,5-1.14-2.1-2.27-4.2-3.41-6.3,2.22-1.05,3.74-1.82,5.89-3.04.44-.25,1.49-.84,3.07-1.77,6.27-3.57,12.6-7.03,18.98-10.38,2.63-1.4,2.97-1.56,4.32-2.76m0-5c-1.21,0-2.4.44-3.32,1.26q-.86.77-3.1,1.96l-.24.13c-6.39,3.36-12.82,6.88-19.11,10.45-.02.01-.04.02-.06.03-1.54.91-2.57,1.48-3,1.72-1.92,1.08-3.32,1.81-5.58,2.87-1.24.59-2.19,1.66-2.61,2.97-.43,1.31-.3,2.73.36,3.94,1.13,2.09,2.27,4.19,3.4,6.29.67,1.24,1.83,2.14,3.19,2.47.4.1.8.15,1.21.15.98,0,1.94-.29,2.77-.84,1.93-1.28,3.49-2.23,8.17-4.77,1.42-.76,2.86-1.52,4.3-2.28-.72,1.58-1.58,3.18-2.61,4.85-3.15,5.09-7.29,9.59-13.03,14.14-1.55,1.23-2.23,3.25-1.73,5.16.49,1.91,2.06,3.36,4.01,3.68,3.59.6,4.71,1.05,7.26,2.48.77.43,1.61.64,2.45.64,1.17,0,2.32-.41,3.25-1.2,6.62-5.66,11.43-11.17,14.89-17.12,5.65,1,10.65,2.66,15.86,5.22.71.35,1.46.51,2.2.51,1.73,0,3.4-.9,4.33-2.49,1.74-3,3.53-6.12,5.33-9.29.74-1.3.85-2.86.32-4.26-.54-1.39-1.67-2.48-3.08-2.95-8.31-2.78-12.26-3.84-17.28-4.59.78-2.94,1.35-6.18,1.88-10.42.19-1.33.22-1.39.44-1.78.76-1.36.84-3,.22-4.42-.62-1.43-1.87-2.49-3.38-2.86-2.21-.55-4.46-1.07-6.68-1.54-.35-.07-.69-.11-1.04-.11h0Z" fill="#fff" stroke-width="0"/><path d="m169.68,165.03c-.66,0-1.31-.26-1.79-.76-2.25-2.32-4.33-3.72-8.25-5.55-.84-.39-1.39-1.22-1.44-2.15-.04-.93.44-1.8,1.24-2.27,6.02-3.51,9.36-6.19,12.32-9.9,2.1-2.59,3.43-5,4.28-7.89-6.88,2.37-13.76,4.87-20.53,7.48-4.39,1.7-5.27,2.11-8.72,3.75-.34.16-.71.24-1.07.24-.32,0-.64-.06-.94-.18-.65-.26-1.16-.79-1.4-1.45l-2.83-7.67c-.24-.64-.2-1.35.1-1.97s.84-1.08,1.5-1.28c1.15-.36,2.13-.69,3.26-1.11-.03,0-.05-.02-.08-.03-.68-.26-1.2-.81-1.45-1.49l-2.8-7.84c-.23-.63-.19-1.33.11-1.94s.82-1.07,1.46-1.28c2.16-.72,4.19-1.56,8.34-3.45,6.11-2.78,12.37-5.51,18.61-8.12,4.34-1.81,6.89-2.93,8.79-4.04.39-.23.83-.34,1.26-.34.32,0,.63.06.93.18.72.29,1.26.89,1.47,1.64l2.57,9.09c.2.72.07,1.45-.31,2.04.39-.23.83-.34,1.26-.34.39,0,.78.09,1.14.28,1.96,1,3.93,2.05,5.87,3.12,1.07.59,1.56,1.86,1.16,3.02-.34.97-.37,1.05-.55,3.37-.81,9.65-3.41,17.34-7.94,23.51-3.42,4.69-6.99,7.95-14.16,12.91-.43.3-.93.44-1.42.44Zm12.99-45.19c-2.52.74-5.26,1.7-8.61,2.99-3.31,1.29-6.63,2.61-9.93,3.95,5.36-2.08,10.74-4.09,16.12-6.01,1.26-.45,1.94-.7,2.42-.93Z" stroke-width="0"/><path d="m179.65,108.28c.86,3.03,1.71,6.06,2.57,9.09-2.27.66-5.04,1.58-9.05,3.13-6.28,2.43-12.51,4.97-18.71,7.61-4.53,1.94-5.77,2.55-8.21,3.84-.93-2.61-1.87-5.22-2.8-7.84,2.34-.78,4.49-1.68,8.58-3.55,6.13-2.79,12.31-5.49,18.53-8.08,4.62-1.92,7.12-3.04,9.09-4.19m5.93,12.6c1.94,1,3.88,2.02,5.81,3.08-.43,1.22-.49,1.49-.68,4.01-.77,9.17-3.19,16.4-7.46,22.23-3.3,4.54-6.75,7.62-13.57,12.33-2.42-2.49-4.66-4.05-8.97-6.07,6.23-3.64,9.79-6.47,13.01-10.5,3.29-4.05,4.91-7.82,5.65-13.23-8.31,2.79-16.56,5.76-24.75,8.92-4.48,1.73-5.42,2.17-8.9,3.82-.94-2.56-1.88-5.11-2.83-7.67,2.65-.83,4.5-1.53,9.29-3.52,9.54-3.96,19.18-7.68,28.91-11.16,2.79-.99,3.18-1.18,4.49-2.24m-5.93-17.6c-.88,0-1.75.23-2.53.69-1.78,1.04-4.25,2.13-8.49,3.89-6.24,2.61-12.53,5.35-18.68,8.15-4.06,1.86-6.03,2.67-8.09,3.36-1.28.43-2.33,1.35-2.91,2.56-.59,1.21-.66,2.6-.21,3.87l1.33,3.72,1.27,3.54c-1.27.42-2.33,1.34-2.92,2.54-.6,1.23-.68,2.65-.2,3.93l2.83,7.67c.49,1.32,1.5,2.37,2.81,2.9.61.25,1.25.37,1.89.37.74,0,1.47-.16,2.15-.49,3.37-1.61,4.24-2,8.55-3.67,4.91-1.89,9.9-3.73,14.9-5.51-.44.66-.93,1.32-1.48,2-2.81,3.51-5.86,5.95-11.65,9.33-1.6.94-2.56,2.69-2.48,4.54.08,1.86,1.19,3.51,2.87,4.3,4.07,1.91,5.73,3.19,7.51,5.03.97,1,2.27,1.51,3.59,1.51.99,0,1.98-.29,2.84-.89,7.43-5.14,11.15-8.54,14.76-13.5,4.8-6.54,7.55-14.64,8.4-24.75q.16-2.03.42-2.77c.81-2.31-.17-4.86-2.32-6.04-1.96-1.08-3.96-2.13-5.93-3.15-.26-.13-.53-.24-.81-.33,0-.03-.02-.06-.03-.1l-1.13-3.98-1.44-5.11c-.42-1.49-1.51-2.7-2.94-3.28-.6-.24-1.23-.36-1.87-.36h0Z" fill="#fff" stroke-width="0"/><path d="m216.85,153.52c-.7,0-1.4-.29-1.89-.86-2.61-3.01-3.91-4.1-7.71-6.44-.72-.44-1.17-1.22-1.19-2.07-.02-.85.39-1.64,1.09-2.12,8.14-5.56,12.68-11.28,14.78-18.92-2.22,1.38-4.43,2.75-6.64,4.12-.4.25-.86.38-1.32.38-.23,0-.47-.03-.69-.1-.28-.08-.54-.21-.77-.38-.17.55-.54,1.05-1.07,1.38-2.81,1.74-5.61,3.47-8.39,5.2-.4.25-.86.38-1.32.38-.21,0-.43-.03-.64-.08-.67-.17-1.23-.62-1.56-1.22-3.08-5.63-5.02-8.45-8.68-12.59-.48-.55-.7-1.27-.6-2,.1-.72.51-1.36,1.12-1.76,2.69-1.74,5.39-3.48,8.1-5.22.42-.27.88-.4,1.35-.4.66,0,1.32.26,1.81.77.01.01.02.03.04.04,0-.07.01-.15.02-.22.11-.71.52-1.35,1.13-1.73,2.69-1.7,5.39-3.41,8.11-5.11.41-.26.87-.38,1.33-.38.7,0,1.4.3,1.89.86,3.83,4.42,5.75,7.03,7.98,11.11.37-4.02.26-8.29-.31-11.28-.14-.72.05-1.46.5-2.03.45-.57,1.13-.91,1.86-.94,3.48-.12,6.99-.2,10.45-.22h.01c.71,0,1.38.3,1.86.83.48.53.71,1.24.63,1.95-.12,1.12-.13,1.27-.13,3.88-.05,9.92-1.11,17.11-3.42,23.31-2.21,5.92-5.57,11.23-9.99,15.78-1.81,1.82-3.2,3.04-6.19,5.49-.46.38-1.03.57-1.58.57Z" stroke-width="0"/><path d="m235.67,104.21c-.14,1.26-.15,1.53-.15,4.16-.05,9.53-1.07,16.54-3.26,22.44-2.12,5.68-5.32,10.67-9.44,14.91-1.7,1.7-3.04,2.9-5.98,5.3-2.79-3.22-4.29-4.47-8.28-6.93,10.39-7.1,15.39-14.55,16.87-25.8.61-4.73.57-10.15-.13-13.86,3.46-.12,6.92-.2,10.37-.22m-22.4,2.49c4.56,5.26,6.22,7.74,9.03,13.23-2.79,1.73-5.57,3.45-8.33,5.17-2.26-4.66-4.89-8.68-8.8-13.3,2.69-1.7,5.39-3.4,8.1-5.1m-12.44,6.63c3.36,3.52,6.35,7.77,9.29,13.05-2.81,1.74-5.61,3.48-8.39,5.21-3.04-5.56-5.08-8.61-8.99-13.04,2.69-1.74,5.38-3.47,8.1-5.21m34.84-14.12s-.02,0-.03,0c-3.49.02-7.03.09-10.52.22-1.46.05-2.82.74-3.73,1.88-.91,1.14-1.28,2.62-1.01,4.05.14.74.25,1.58.33,2.49-1.03-1.34-2.21-2.75-3.66-4.42-.98-1.13-2.37-1.73-3.78-1.73-.91,0-1.83.25-2.65.76-2.72,1.71-5.43,3.41-8.12,5.11-.36.23-.69.5-.97.8-.23-.03-.46-.05-.7-.05-.93,0-1.87.26-2.7.79-2.72,1.74-5.42,3.48-8.11,5.22-1.22.79-2.04,2.07-2.24,3.52-.2,1.44.24,2.9,1.2,3.99,3.51,3.98,5.38,6.7,8.36,12.13.66,1.21,1.79,2.09,3.12,2.44.42.11.85.16,1.27.16.92,0,1.84-.26,2.64-.75,2.78-1.73,5.57-3.46,8.38-5.2.27-.16.51-.35.73-.55.16.02.33.02.49.02.9,0,1.78-.24,2.57-.71-2.37,3.84-5.86,7.18-10.8,10.56-1.4.95-2.22,2.55-2.18,4.24.04,1.69.93,3.25,2.37,4.14,3.57,2.2,4.7,3.15,7.13,5.95.99,1.14,2.38,1.73,3.78,1.73,1.11,0,2.24-.37,3.16-1.13,3.03-2.48,4.51-3.79,6.35-5.64.02-.02.03-.03.05-.05,4.66-4.8,8.21-10.4,10.54-16.65,2.42-6.49,3.52-13.94,3.58-24.16,0-2.56,0-2.64.12-3.64.16-1.42-.3-2.84-1.25-3.9-.95-1.05-2.3-1.65-3.72-1.65h0Zm0,10h0,0Z" fill="#fff" stroke-width="0"/><path d="m252.21,146.93c-.31,0-.61-.06-.9-.17-.63-.25-1.14-.74-1.4-1.37-1.7-4.07-3.41-8.12-5.1-12.02-.3-.7-.27-1.49.08-2.16.35-.67.99-1.14,1.73-1.29,4.97-.97,11.58-3.76,16.44-6.95,6.02-3.93,10.35-9.24,13.62-16.71,2.19-5.12,3.39-9.48,4.56-16.64.15-.91.79-1.67,1.67-1.96.26-.09.53-.13.8-.13.63,0,1.25.24,1.72.68,4.22,3.99,5.98,5.45,9.45,7.4.96.54,1.46,1.66,1.21,2.74-2.24,9.82-4.2,15.41-7.5,21.36-5.14,9.51-11.91,16.24-21.3,21.13-3.46,1.83-6.1,2.87-10.34,4.37-1.47.49-2.46.92-3.67,1.49-.33.16-.7.23-1.06.23Zm8.38-23.92c-.46,0-.91-.12-1.31-.37-5.56-3.41-11.06-5.49-17.85-6.75-.72-.13-1.34-.57-1.71-1.21s-.44-1.4-.19-2.09c1.25-3.53,2.52-7.1,3.82-10.71.36-1.01,1.31-1.66,2.35-1.66.15,0,.3.01.45.04,7.68,1.39,12.82,3.09,18.99,6.26,1.06.55,1.59,1.77,1.26,2.92-1.15,3.96-2.29,7.88-3.4,11.75-.22.75-.77,1.36-1.5,1.64-.29.11-.6.17-.9.17Zm1.99-18.79c-.38,0-.75-.08-1.1-.25-6.42-3.13-11.67-4.71-18.12-5.45-.75-.09-1.43-.51-1.83-1.15-.4-.64-.49-1.44-.24-2.15,1.25-3.59,2.52-7.21,3.81-10.88.36-1.01,1.31-1.67,2.36-1.67.1,0,.2,0,.3.02,7.74.92,13.61,2.37,19.64,4.84,1.21.5,1.83,1.85,1.43,3.09-1.31,4-2.59,7.96-3.86,11.88-.22.69-.73,1.25-1.4,1.53-.31.13-.65.2-.98.2Z" stroke-width="0"/><path d="m247.46,85.16c7.72.92,13.35,2.36,18.99,4.67-1.31,4.01-2.6,7.97-3.86,11.89-6.92-3.38-12.41-4.94-18.94-5.69,1.25-3.58,2.52-7.21,3.81-10.87m36.25,4.87c4.22,3.98,6.19,5.65,9.94,7.76-2.17,9.5-4.06,14.95-7.25,20.71-5,9.26-11.49,15.55-20.27,20.12-3.21,1.7-5.59,2.66-10.02,4.23-1.61.54-2.7,1.02-3.9,1.58-1.69-4.06-3.4-8.07-5.11-12.05,5.1-.99,12.03-3.83,17.34-7.31,6.46-4.21,11.06-9.85,14.53-17.8,2.28-5.32,3.53-9.86,4.74-17.24m-38.01,12.7c7.44,1.35,12.29,2.94,18.3,6.03-1.16,3.96-2.29,7.88-3.4,11.76-5.77-3.54-11.54-5.75-18.71-7.08,1.25-3.53,2.52-7.1,3.81-10.71m1.75-22.57c-2.1,0-4,1.32-4.71,3.34-1.29,3.67-2.56,7.3-3.82,10.89-.5,1.43-.32,3.02.49,4.31.46.74,1.1,1.33,1.85,1.73-.1.2-.19.4-.27.61-1.29,3.62-2.57,7.19-3.82,10.72-.49,1.38-.35,2.9.38,4.17s1.98,2.15,3.42,2.42c5.83,1.08,10.67,2.79,15.43,5.49-3.51,1.69-7.26,3.04-10.26,3.63-1.49.29-2.76,1.24-3.47,2.57s-.77,2.92-.17,4.31c1.7,3.95,3.42,7.98,5.09,12,.52,1.26,1.54,2.25,2.81,2.74.58.23,1.19.34,1.81.34.72,0,1.45-.16,2.11-.47,1.17-.54,2.05-.92,3.37-1.37.03,0,.05-.02.08-.03,4.37-1.55,7.08-2.62,10.69-4.53,9.83-5.12,16.94-12.17,22.33-22.16,3.4-6.14,5.42-11.9,7.72-21.97.49-2.16-.49-4.38-2.42-5.47-3.24-1.82-4.91-3.21-8.96-7.04-.94-.89-2.18-1.37-3.43-1.37-.54,0-1.08.09-1.6.26-1.75.59-3.04,2.1-3.33,3.93-1.14,6.94-2.29,11.15-4.4,16.08-2.04,4.67-4.44,8.35-7.47,11.38.63-2.16,1.26-4.34,1.9-6.53.63-2.14-.25-4.42-2.09-5.6.27-.39.49-.83.64-1.3,1.26-3.91,2.55-7.87,3.85-11.86.81-2.49-.43-5.19-2.85-6.18-6.25-2.56-12.32-4.06-20.29-5.01-.2-.02-.4-.04-.59-.04h0Z" fill="#fff" stroke-width="0"/><path d="m300.32,140.83c-.55,0-1.09-.18-1.53-.52-.54-.42-.89-1.05-.96-1.73l-1.14-11.54c-.07-.74.19-1.48.72-2.01.47-.47,1.11-.74,1.77-.74.08,0,.16,0,.24.01,1,.1,1.76.13,2.62.13,1.21,0,2.71-.08,4.91-.21,4.09-.25,8.24-.45,12.35-.62.52-8,.68-11.29.84-18.97-2.94.26-5.91.55-8.85.85-4.15.44-5.8.72-7.54,1.13-.19.04-.38.07-.57.07-.52,0-1.03-.16-1.46-.47-.59-.42-.96-1.08-1.03-1.8l-1.05-11.71c-.06-.7.17-1.4.65-1.92.47-.51,1.14-.8,1.84-.8,0,0,.64,0,.64,0,2.02,0,3.25-.11,7.31-.63,4.95-.63,9.98-1.21,14.97-1.73,1.28-.13,1.55-.25,2.23-.77.45-.33.98-.5,1.5-.5.62,0,1.24.23,1.72.68,1.68,1.58,3.36,3.2,4.98,4.8.68.67.92,1.66.62,2.56q-.6,1.83-.99,9.61c-.21,4.11-.56,10.42-1.08,19.22.22,0,.45,0,.67,0,3.14-.04,5.4-.2,7.34-.52.14-.02.27-.03.41-.03.57,0,1.13.2,1.58.56.56.46.89,1.13.92,1.85l.46,12.78c.03.75-.28,1.47-.84,1.96-.46.41-1.05.63-1.66.63-.13,0-.26,0-.39-.03-1.63-.26-4.16-.42-7.32-.46-2.58-.04-5.17-.05-7.75-.05-6.4,0-12.9.11-19.3.33-3.52.12-5.4.27-7.44.59-.13.02-.26.03-.39.03Z" stroke-width="0"/><path d="m328.78,88.84c1.66,1.56,3.31,3.15,4.94,4.76q-.7,2.13-1.11,10.27c-.28,5.56-.8,14.49-1.24,21.88,1.12-.02,2.24-.04,3.36-.05,3.3-.04,5.66-.21,7.71-.55.15,4.26.31,8.52.46,12.78-1.93-.31-4.72-.45-7.68-.49-2.6-.04-5.2-.05-7.8-.05-6.46,0-12.92.11-19.37.33-3.77.13-5.68.3-7.74.62-.38-3.85-.76-7.69-1.14-11.54,1.02.1,1.85.15,2.85.15,1.23,0,2.7-.07,5.07-.22,4.84-.29,9.69-.52,14.54-.7.72-10.81.85-13.49,1.04-24.12-3.89.33-7.78.69-11.66,1.1-4.06.43-5.87.72-7.85,1.18-.35-3.9-.7-7.81-1.05-11.71.22,0,.44,0,.64,0,2.2,0,3.58-.13,7.63-.65,4.96-.63,9.93-1.21,14.91-1.72,1.61-.17,2.34-.4,3.47-1.25m0-5c-1.05,0-2.11.33-3,1-.13.1-.21.15-.25.17-.07.02-.27.06-.73.1-4.98.51-10.04,1.1-15.03,1.74-3.92.51-5.1.61-6.99.61-.19,0-.39,0-.6,0-.01,0-.03,0-.04,0-1.4,0-2.73.58-3.68,1.61-.96,1.04-1.43,2.43-1.3,3.84l.53,5.86.53,5.86c.13,1.44.88,2.76,2.05,3.6.86.62,1.89.95,2.93.95.38,0,.76-.04,1.14-.13,1.64-.38,3.21-.65,7.23-1.08,2-.21,4.01-.41,6.03-.6-.12,5.12-.27,8.28-.63,13.82-3.39.15-6.79.32-10.15.53-2.16.13-3.63.21-4.77.21-.78,0-1.45-.03-2.38-.12-.16-.02-.32-.02-.47-.02-1.32,0-2.6.53-3.54,1.47-1.05,1.06-1.58,2.53-1.43,4.02l.57,5.77.57,5.77c.14,1.37.83,2.62,1.92,3.46.88.68,1.96,1.05,3.06,1.05.26,0,.52-.02.77-.06,1.67-.26,3.31-.43,7.14-.56,6.37-.22,12.83-.32,19.2-.32,2.56,0,5.16.02,7.73.05,3.85.05,5.91.26,6.96.43.26.04.52.06.79.06,1.21,0,2.39-.44,3.31-1.26,1.12-.99,1.74-2.43,1.68-3.92l-.46-12.78c-.05-1.44-.72-2.78-1.83-3.69-.9-.74-2.02-1.13-3.17-1.13-.27,0-.54.02-.82.07-1.38.23-2.95.37-4.95.44.44-7.42.74-12.85.92-16.53q.37-7.45.86-8.95c.6-1.81.12-3.8-1.24-5.14-1.65-1.62-3.34-3.25-5.02-4.83-.96-.9-2.19-1.36-3.43-1.36h0Z" fill="#fff" stroke-width="0"/><path d="m369.7,142.25c-3.89-.3-7.8-.55-11.6-.76-1.31-.07-2.34-1.15-2.36-2.46l-.23-16.43c0-.68.26-1.33.74-1.81.47-.47,1.1-.73,1.76-.73.02,0,.03,0,.05,0,3.99.08,8.02.2,11.98.36,1.34.05,2.4,1.16,2.4,2.5l-.05,16.84c0,.7-.29,1.36-.8,1.83-.46.43-1.07.66-1.7.66-.06,0-.13,0-.19,0Zm-.89-22.92c-3.26-.08-6.57-.14-9.83-.17-.68,0-1.33-.29-1.8-.79s-.71-1.17-.67-1.85c.09-1.65.08-2.39.07-3.73q-.02-1.64-.32-6.69c-.52-9.2-1.06-18.38-1.61-27.53-.15-3.11-.46-6.5-.79-10.1l-.14-1.49c-.12-1.37.89-2.59,2.26-2.71,4.94-.45,9.97-.86,14.96-1.2.06,0,.11,0,.17,0,.67,0,1.32.27,1.79.76.51.53.77,1.25.69,1.98-.2,2-.6,8.19-.8,11.98-.45,9.42-.88,18.84-1.3,28.23v.43c-.13,3.37-.19,5.07-.19,6.3v.17c0,.83,0,1.81.05,3.86.02.69-.25,1.35-.73,1.83s-1.11.73-1.77.73c-.02,0-.04,0-.07,0Z" stroke-width="0"/><path d="m371.12,65.57c-.2,2.07-.61,8.33-.81,12.09-.45,9.44-.88,18.85-1.3,28.25-.13,3.73-.19,5.51-.19,6.84,0,.89,0,1.87.06,4.09-3.29-.09-6.58-.14-9.87-.18.1-1.74.09-2.53.07-3.92q-.02-1.66-.33-6.79c-.52-9.2-1.06-18.37-1.61-27.53-.18-3.55-.55-7.44-.93-11.66,4.96-.45,9.93-.85,14.91-1.19m-13.11,56.99c3.97.08,7.95.2,11.93.36-.02,5.61-.03,11.23-.05,16.84-3.88-.3-7.77-.55-11.65-.77-.08-5.48-.15-10.95-.23-16.43m13.11-61.99c-.11,0-.23,0-.34.01-4.99.34-10.05.74-15.02,1.2-2.75.25-4.77,2.68-4.52,5.43l.14,1.5c.33,3.56.63,6.93.78,9.95,0,.02,0,.04,0,.05.55,9.12,1.09,18.37,1.6,27.51q.3,5.02.32,6.56c.02,1.35.02,2.02-.06,3.59-.05.9.14,1.78.55,2.57-.02.02-.05.05-.07.07-.96.96-1.49,2.26-1.47,3.62l.23,16.43c.04,2.63,2.1,4.78,4.72,4.92,3.83.21,7.72.47,11.55.76.13,0,.25.01.38.01,1.25,0,2.47-.47,3.39-1.33,1.02-.94,1.6-2.27,1.61-3.66l.02-8.42.02-8.42c0-1.48-.64-2.81-1.66-3.73.41-.76.62-1.62.6-2.5-.05-2.04-.05-2.99-.05-3.82v-.14c0-1.19.06-2.88.17-6.23v-.4c.43-9.36.87-18.85,1.31-28.21.2-3.75.6-9.88.79-11.84.14-1.46-.36-2.91-1.39-3.97-.94-.97-2.24-1.52-3.59-1.52h0Zm0,10h0,0Z" fill="#fff" stroke-width="0"/></g></svg>