<svg xmlns="http://www.w3.org/2000/svg" width="123.9" height="217.99" viewBox="0 0 123.9 217.99">
  <g>
    <path d="M82.77,135.81a304,304,0,0,1,1.89,32.68c-1,11.33-9.27,29.36,1.42,37.57a3.78,3.78,0,0,1,1.17,1.15,2.8,2.8,0,0,1,.19,1.6,5.54,5.54,0,0,1-1.39,3.35,3.27,3.27,0,0,1-3.38.89c-.27-1.56-2.6-1.79-3.87-.83s-1.87,2.53-2.89,3.74a1.3,1.3,0,0,1-.73.52,1.41,1.41,0,0,1-.94-.3,40.71,40.71,0,0,1-5.47-4.11,7.41,7.41,0,0,1-3.13-5.76c-.11-21.95,8.6-43.65,3.92-65.1-5-1.35-11.22.63-15.43,1.86a2.18,2.18,0,0,0-1.36.82,3.35,3.35,0,0,0-.05,2A85.18,85.18,0,0,1,53,177.83c-1,4.84-3.4,11-2.77,15.34a37.9,37.9,0,0,0,1,3.82c.72,2.79.74,5.89,2,8.62,1.17,2.37,3.91,4.7,2.72,7.72-.54,1.38-2.41,2.24-3.59,1.35-.81-.61-1-1.74-1.54-2.6-.94-1.51-3.52-1.9-4.42-.37-.76,1.29-.1,3.3-1.31,4.18-1,.71-2.35,0-3.34-.69-3.47-2.48-6.92-5.58-7.73-9.75-.77-4.4,1.59-9.38,2.72-13.87,1.28-5.08,2.74-10.36,3.77-15.72,2.2-11.42,1.06-22.33-1.46-32.57-.91-3.7-2.34-8.36.33-10.87s6.47-3.76,10.13-4.68a88.32,88.32,0,0,1,26-2.52,7.41,7.41,0,0,1,2,.29c2.47.85,3.38,3.92,3.31,6.55S82.63,133.18,82.77,135.81Z" style="fill: #f6802c;stroke: #000;stroke-linecap: round;stroke-linejoin: round;stroke-width: 3px"/>
    <path d="M36.09,150.63a15.24,15.24,0,0,0,3.37,1.15c4.35.91,9.37.06,12.84,2.84,1,.8,1.8,1.86,2.81,2.67,4.17,3.3,10.43,1.17,14.61-2.11C77.91,148.75,83.17,145,93.65,143c7.33-1.4,4.84,8.79,4.92,13.56.07,4.24.19,8.39.36,12.36.14,3.49-.6,9.21.78,12.16,3.63,7.77,6.06-7.43,10.63-2.36.83.92,1.78,2,3,2.07a2.08,2.08,0,0,0,1.94-1.66,7.66,7.66,0,0,0,0-2.94c-.76-5.9-2.56-11.77-2.26-18.31.29-7.56,1.19-15.28,2.13-23.09.56-4.63,2.68-8.31,3.34-12.7.26-1.76-.25-3.49-.34-5.23-.45-5.77,4.23-10.88,4.29-16.66.07-7.87-8.29-13.92-8.22-21.79-2.75-.94-5.83,2.39-8.42,1.06a5.22,5.22,0,0,1-2.11-3,85.31,85.31,0,0,1-4.19-14.7,112.28,112.28,0,0,0-8.7,8.89c0-8,1.55-16,1.48-24s-2-16.48-7.73-22.08A19.36,19.36,0,0,1,76.1,36.85c-.18-6.65-1.09-14.54-7-17.66a10.6,10.6,0,0,1-2.65-1.55C65,16.18,65.2,13.81,65,11.75A14.05,14.05,0,0,0,58.94,1.5c-2.85-.08-5.15,2.62-5.72,5.41s.11,5.67.59,8.47.76,5.85-.55,8.38c-1.07,2.08-3.12,3.64-3.72,5.91C48.4,34,53.12,39,50.68,42.74c-1.3,2-4.18,2.5-6.45,1.74S40.14,42,38.4,40.36l-6.82-6.51c-2.63,1.67-3.25,5.25-3.14,8.37s.64,6.41-.63,9.26c-1.69,3.78-6.41,7-4.93,10.85a48.41,48.41,0,0,1-14-8.54c-4.7,5.77-5.22,13.88-4.5,21.29C5.08,82,7.11,86.86,10.35,93c2.16,4,3.83,8.88,2.14,13.15-.81,2-2.3,3.7-3.52,5.51-2.32,3.43-2.73,9.74-3,13.88-.3,5,0,10.2.18,15,.24,8.13.49,15.77-1.86,23.21C2.8,168.47.37,173.54,2.1,177.82c4.41-1.64,5.48-8.67,9.87-9.4a21.37,21.37,0,0,0,0,9.87c1.34.62,3.13-.12,4.17-1.32A10.26,10.26,0,0,0,18,172.76,77.7,77.7,0,0,0,20.61,156c.18-4.5-1.31-11.43.16-15.67.7-2,3.25-3.59,5.09-2.45,1.27.79,1.66,2.41,2.15,3.82A15.83,15.83,0,0,0,36.09,150.63Z" style="fill: #ff4b2b;stroke: #000;stroke-linecap: round;stroke-linejoin: round;stroke-width: 3px"/>
    <path d="M81.89,130.35c8.61-1.95,15.06-7.92,18.75-16.21A21.36,21.36,0,0,0,99.51,95c-4-6.66-11.55-10.88-14.6-18-1.74-4.08-1.82-8.74-3.71-12.75C78,57.46,70.59,54,63.73,51.09a3.6,3.6,0,0,0-2-.42,3.18,3.18,0,0,0-1.57,1c-3.71,3.6-6.41,9.62-11.58,9.5-1.35,0-2.7-.53-4-.26-2.32.45-3.55,2.94-4.45,5.13L34.28,80.36a11.84,11.84,0,0,1-5.35-2.56c-.74,8.11,3.66,15.74,5,23.78,1,6.54.14,13.71,3.55,19.39,4.51,7.49,14.42,9.2,23.11,10.17a97.67,97.67,0,0,0,17.68-.22A30.24,30.24,0,0,0,81.89,130.35Z" style="fill: #f6802c;stroke: #000;stroke-linecap: round;stroke-linejoin: round;stroke-width: 3px"/>
    <path d="M52.55,81.88c-.65,5-6.22,11.55-11.15,12.84-2.82.73-5.29-.94-7.67-2.17s-6-1.48-7.94-3.08c-1.43-1.16-1.56-3.33-1-5.08s1.58-3.32,2.18-5.06a17.45,17.45,0,0,1,.93-2.66c1.39-2.54,9.68-2.81,12.48-2.93,4.28-.2,8.85.68,11.38,4.49A5.14,5.14,0,0,1,52.55,81.88Z" style="fill: #ffd0a2;stroke: #000;stroke-linecap: round;stroke-linejoin: round;stroke-width: 3px"/>
    <path d="M38.63,84.86a2.67,2.67,0,0,1,.23-2.93,1.75,1.75,0,0,1,2.38.08,1.89,1.89,0,0,1,.07,2.42,2.06,2.06,0,0,1-2.4.53" style="stroke: #000;stroke-linecap: round;stroke-linejoin: round;stroke-width: 3px"/>
    <path d="M97.2,82.72C96.55,87.66,91,94.27,86.05,95.55c-2.81.73-5.29-.93-7.67-2.16s-6-1.49-7.94-3.08c-1.42-1.16-1.56-3.33-1-5.09s1.59-3.31,2.18-5a16.47,16.47,0,0,1,.94-2.66C73.91,75,82.2,74.7,85,74.57c4.28-.19,8.85.68,11.38,4.5A5.13,5.13,0,0,1,97.2,82.72Z" style="fill: #ffd0a2;stroke: #000;stroke-linecap: round;stroke-linejoin: round;stroke-width: 3px"/>
    <path d="M83.28,85.69a2.67,2.67,0,0,1,.23-2.93,1.75,1.75,0,0,1,2.38.08A1.9,1.9,0,0,1,86,85.26a2.09,2.09,0,0,1-2.41.54" style="stroke: #000;stroke-linecap: round;stroke-linejoin: round;stroke-width: 3px"/>
    <path d="M77.72,111.57q-5.44-.09-10.88.33c-4-.37-7.55-1.26-11.5-.69-.88-.62-1.14-.73-2,0a2.48,2.48,0,0,0-.51,2.94" style="fill: none;stroke: #000;stroke-linecap: round;stroke-linejoin: round;stroke-width: 3px"/>
  </g>
</svg>
