<svg xmlns="http://www.w3.org/2000/svg" xmlns:xlink="http://www.w3.org/1999/xlink" width="150.91" height="173.19" viewBox="0 0 150.91 173.19">
  <defs>
    <clipPath id="a">
      <path d="M61.34,152.71c21.77,2.1,44.42,2.58,50.21-17.48,1.18-6.69,6.07-13.78,2.25-14.88-3.76-.81-12.55,5.07-17.84,7.5-14.85,1.26-33,2.11-42,2.4-5.87-.32-21.25-10.77-26.22-6.28a3.32,3.32,0,0,0-.77,3A13,13,0,0,0,29,131.61C34.7,140.56,38,151.31,61.34,152.71Z" style="fill: #c43d67;stroke: #000;stroke-linecap: round;stroke-linejoin: round;stroke-width: 3px"/>
    </clipPath>
  </defs>
  <g>
    <path d="M63.33,79c1.93-1.39-1.59-18-2-20.57a168.39,168.39,0,0,0-4.81-21.17c-1.85-6.26-3.62-12.55-6-18.64-1.45-3.78-4.49-14.28-8-16.47C37-1.32,30.15,10,27.92,14.13a104.5,104.5,0,0,0-8,20.58,102.9,102.9,0,0,0-3.23,41.81c.59,4.41,4.49,7,8.81,8,3.47.86,7-.58,10.57-1.2,4.19-.73,8.48-.28,12.73-.3S59.89,81.5,63.33,79Z" style="fill: #232323;stroke: #000;stroke-linecap: round;stroke-linejoin: round;stroke-width: 3px"/>
    <path d="M53.67,82.37c1-1.18-2.76-17.28-3.15-19.76-1.12-7-2.27-14-3.43-20.73C46,35.8,45.17,29.93,44,24.35c-.69-3.45-2.12-12.77-4.3-14.89-3.67-3.29-8.25,6-9.71,9.45A96.3,96.3,0,0,0,24.9,36.43,136.54,136.54,0,0,0,22.38,76.5c.37,4.38,3.36,7.21,6.64,8.65,2.58,1.13,5.17,0,7.64-.34,2.85-.44,5.71.26,8.44.47S51.89,84.47,53.67,82.37Z" style="fill: #816299"/>
    <path d="M98.74,80.1c-1.68-1.69,4.5-17.54,5.31-20A168.24,168.24,0,0,1,112.23,40c2.84-5.88,5.61-11.8,8.91-17.43,2-3.49,6.76-13.35,10.6-14.95,6.06-2.52,11,9.7,12.48,14.19a105.32,105.32,0,0,1,4.52,21.6A107.7,107.7,0,0,1,144,88.69c-1.62,5.13-5.84,6.81-10,6.42-3.35-.31-6.28-3.28-9.46-5-3.78-2.11-8-2.69-12.18-3.52S101.74,83.12,98.74,80.1Z" style="fill: #232323;stroke: #000;stroke-linecap: round;stroke-linejoin: round;stroke-width: 3px"/>
    <path d="M107.77,83c-.8-1.23,5.38-15.46,6.16-17.69,2.2-6.28,4.46-12.64,6.72-19,2-5.7,3.88-11.42,5.94-16.86,1.28-3.37,4.23-12.43,6.73-14.17,4.15-2.65,7.16,7.27,8,11a99.06,99.06,0,0,1,2.06,18.59,130.43,130.43,0,0,1-4.08,38.7c-1.07,4-4.44,6-7.87,6.59-2.7.48-5-1.1-7.41-1.94-2.72-1-5.62-.91-8.32-1.19S109.2,85.19,107.77,83Z" style="fill: #816299"/>
    <path d="M121.86,150.43c-2.76,1.57-5.62,3-8.53,4.43-23.39,11.38-54.18,11.15-77.55-.4-12.07-6-25.7-13.21-31-26.4C-2,111.34,2.18,88.3,14.07,74.8c16.1-18.28,40.2-21.6,63.25-18.07,18.81,2.88,38.22,9.13,53.89,20.21,11.06,7.82,16.73,21.48,16.29,34.92-.49,15.11-9.3,28.37-22,36.39C124.32,149,123.1,149.74,121.86,150.43Z" style="fill: #232323;stroke: #000;stroke-linecap: round;stroke-linejoin: round;stroke-width: 3px"/>
    <path d="M49.4,103c5.35-2.42,10.05-6,12.69-9.66a15.32,15.32,0,0,0,2.83-8.54,19.21,19.21,0,0,0-6.5-14.65c-3.56-2.89-7.59-4-11.65-4.54a22.56,22.56,0,0,0-13,4.13c-4.74,3.43-9,10-11.6,15.1-2.35,4.65-2.58,9.94.25,14.43C27.94,108,39.73,107.33,49.4,103Z" style="fill: #fff;stroke: #000;stroke-linecap: round;stroke-linejoin: round;stroke-width: 3px"/>
    <path d="M84.28,98.77c-3.12-2.07-5.49-4.5-6.54-8.35a11.63,11.63,0,0,1,0-6.37c1.18-4.59,5.09-9.74,8.77-12.45a18.93,18.93,0,0,1,10.55-3.25A25.65,25.65,0,0,1,106.26,70a21.32,21.32,0,0,1,7,5.16,38.27,38.27,0,0,1,6.2,10.37,19.51,19.51,0,0,1,.62,12.95C113.8,116.06,94.24,106,84.28,98.77Z" style="fill: #fff;stroke: #000;stroke-linecap: round;stroke-linejoin: round;stroke-width: 3px"/>
    <path d="M65.94,110.59a7,7,0,0,0,1.35,1.72c1.93,1.53,3.08-.16,4.49-1.17s3.3-.28,4.7-1.13c3.88-2.38-1.18-6.34-3.91-6.3-3.39,0-6.8-1.35-10.18-.63-2.66.58-3.73,4.51-.54,5.39a9,9,0,0,1,3.09,1A4.21,4.21,0,0,1,65.94,110.59Z" style="fill: #7a6059;stroke: #000;stroke-linecap: round;stroke-linejoin: round;stroke-width: 3px"/>
    <path d="M42.61,85.81a1.76,1.76,0,0,0,.37-.08c1.89-.68,3.38-6.8,3.34-8.73,0-1.78-.6-7.28-3.46-4.69a9.82,9.82,0,0,0-3,10.11C40.15,83.56,41.1,86,42.61,85.81Z" style="fill: #232323;stroke: #000;stroke-linecap: round;stroke-linejoin: round;stroke-width: 3px"/>
    <path d="M99.25,89.26c1.53-.28,2.76-3.06,3.33-4.3a10.2,10.2,0,0,0,.67-7.34c-1.21-4-5.81-.56-6.6,2.22-.57,2-.46,7.59,1.29,9A1.56,1.56,0,0,0,99.25,89.26Z" style="fill: #232323;stroke: #000;stroke-linecap: round;stroke-linejoin: round;stroke-width: 3px"/>
    <g>
      <path d="M61.34,152.71c21.77,2.1,44.42,2.58,50.21-17.48,1.18-6.69,6.07-13.78,2.25-14.88-3.76-.81-12.55,5.07-17.84,7.5-14.85,1.26-33,2.11-42,2.4-5.87-.32-21.25-10.77-26.22-6.28a3.32,3.32,0,0,0-.77,3A13,13,0,0,0,29,131.61C34.7,140.56,38,151.31,61.34,152.71Z" style="fill: #c43d67"/>
      <g style="clip-path: url(#a)">
        <path d="M91.87,167.09a24.16,24.16,0,0,0,9.45-7.8c2.27-3.43,3.09-7.89,1.39-11.64a7.91,7.91,0,0,0-4.37-4.28c-3.74-1.35-7.63,1.09-11.64,2.2-7.44,2.08-15.92-.52-23.36-2.53-6.79-2-16.38,0-23.85,9.32-4.22.27-3.28.76-4,3.46-1.67,6,18.34,10.27,24,13.75,3.56,2.71,10.78,2.12,15.16,1.94A42.11,42.11,0,0,0,91.87,167.09Z" style="fill: #d8668f;stroke: #000;stroke-linecap: round;stroke-linejoin: round;stroke-width: 3px"/>
        <path d="M49.45,125.23l-1.15,5.61a11.53,11.53,0,0,1-1.14,3.55,3.86,3.86,0,0,1-3,2,1.7,1.7,0,0,1-1-.24,2.09,2.09,0,0,1-.53-.61c-2.19-3.24-4-7.17-3.1-11a6.33,6.33,0,0,1,1.33-2.32,7.61,7.61,0,0,1,3.61-2.17,4.53,4.53,0,0,1,4,.92C49.54,122,49.73,123.83,49.45,125.23Z" style="fill: #fff;stroke: #000;stroke-linecap: round;stroke-linejoin: round;stroke-width: 3px"/>
        <path d="M91.33,125.23l1.15,5.61a11.53,11.53,0,0,0,1.14,3.55,3.86,3.86,0,0,0,3,2,1.67,1.67,0,0,0,1-.24,2,2,0,0,0,.54-.61c2.19-3.24,4-7.17,3.1-11a6.33,6.33,0,0,0-1.33-2.32,7.61,7.61,0,0,0-3.61-2.17,4.53,4.53,0,0,0-4,.92C91.23,122,91.05,123.83,91.33,125.23Z" style="fill: #fff;stroke: #000;stroke-linecap: round;stroke-linejoin: round;stroke-width: 3px"/>
      </g>
      <path d="M61.34,152.71c21.77,2.1,44.42,2.58,50.21-17.48,1.18-6.69,6.07-13.78,2.25-14.88-3.76-.81-12.55,5.07-17.84,7.5-14.85,1.26-33,2.11-42,2.4-5.87-.32-21.25-10.77-26.22-6.28a3.32,3.32,0,0,0-.77,3A13,13,0,0,0,29,131.61C34.7,140.56,38,151.31,61.34,152.71Z" style="fill: none;stroke: #000;stroke-linecap: round;stroke-linejoin: round;stroke-width: 3px"/>
    </g>
  </g>
</svg>
