<svg xmlns="http://www.w3.org/2000/svg" xmlns:xlink="http://www.w3.org/1999/xlink" width="159.15" height="205.67" viewBox="0 0 159.15 205.67">
  <defs>
    <clipPath id="a">
      <path d="M135.14,143.23c-1.19-8-4.24-21.89-14.16-23.61-1.55-.27-3.15-.19-4.68-.54a16.62,16.62,0,0,1-3.45-1.33L92.48,108.1a76.09,76.09,0,0,0-13.29-5.3c-6.11-1.58-12.49-1.6-18.8-1.62-9.17,0-19.07.19-26.38,5.72a41.8,41.8,0,0,0-5.81,5.71L12.81,129.8c-2.12,2.37-5,4.87-6.6,7.63S4.57,144.2,4.08,147.5c-.27,1.78-.49,3.76.57,5.22s3.9,1.46,4.25-.3c1,5.13,2.38,10.87,6.87,13.53a2.88,2.88,0,0,0,1.93.52c1.78-.31,2-2.93,3.48-4,1.91-1.33,4.37.62,5.86,2.41L35.48,175a10,10,0,0,0,2.31,2.23c2.44,1.52,6.29,1.15,7.46,3.77a40.79,40.79,0,0,1,4.5-5.06,3.3,3.3,0,0,1,1.35-.88c1.34-.33,2.47,1,2.88,2.36s.53,2.81,1.51,3.77c1.38,1.36,3.66.92,5.52.38L77.16,177A6.18,6.18,0,0,0,86.88,183c.93-.68,1.8-1.67,3-1.62,2,.08,2.37,2.86,2.12,4.84l18.4-5.77a2.86,2.86,0,0,1,2.05-.12c.55.26.87.84,1.38,1.17,1.41.93,3.24-.44,4.06-1.91s1.41-3.28,3-4c2.15-.93,4.77,1,6.91,0a5.6,5.6,0,0,0,2.16-2.28c3-4.68,5.82-7.89,5.84-13.52S135.4,148.78,135.14,143.23Z" style="fill: #8e5e2e"/>
    </clipPath>
    <clipPath id="b">
      <path d="M125.34,134.57c.32-7.27,4.48-11.19,9.62-15.79a5.7,5.7,0,0,0,2.27-3.26,12.94,12.94,0,0,0-.63-4.82c-4-17-5-34.32-7.44-49.42-.24-1.52,7.07-8.09,8.45-9.58a31.1,31.1,0,0,0,6.65-11.19c3-8.66,7-15.19,12.22-23.87A7.65,7.65,0,0,0,157.62,14a4.31,4.31,0,0,0-.6-2.6c-5.38-10.68-23.76-.82-31.23,5-5.31,4.15-7.8,9-11.8,12.44-.94.81-6.89,8.82-7.35,8.78-6.94-.57-13.56-.27-20.62-1.31-9.25-1.85-17.91-1.64-25.66,1.23-7-9-17.6-18.61-32.54-29.51-6-4.36-13-8.5-17.85-5.57-2.9,1.77-.43,14.13-.38,17.18C9.7,26.47,9.1,33,12.19,39.3A45.87,45.87,0,0,0,17,46.66l7.74,10.22c2.18,2.87,4.36,6,4.85,9.63.14,1-1.83,9.65-2.7,8.63,3.83,4.51-8.37,40-7.14,40.62,4.21,2,6.91,2.82,11.17,8,3.83,4.69,7.41,10.13,9.13,15.25-.3-.91,12.14-.23,13-.16,9.84.82,18.32.68,27.74,4.5" style="fill: #8e5e2e;stroke: #000;stroke-linecap: round;stroke-linejoin: round;stroke-width: 3px"/>
    </clipPath>
  </defs>
  <g>
    <g>
      <path d="M135.14,143.23c-1.19-8-4.24-21.89-14.16-23.61-1.55-.27-3.15-.19-4.68-.54a16.62,16.62,0,0,1-3.45-1.33L92.48,108.1a76.09,76.09,0,0,0-13.29-5.3c-6.11-1.58-12.49-1.6-18.8-1.62-9.17,0-19.07.19-26.38,5.72a41.8,41.8,0,0,0-5.81,5.71L12.81,129.8c-2.12,2.37-5,4.87-6.6,7.63S4.57,144.2,4.08,147.5c-.27,1.78-.49,3.76.57,5.22s3.9,1.46,4.25-.3c1,5.13,2.38,10.87,6.87,13.53a2.88,2.88,0,0,0,1.93.52c1.78-.31,2-2.93,3.48-4,1.91-1.33,4.37.62,5.86,2.41L35.48,175a10,10,0,0,0,2.31,2.23c2.44,1.52,6.29,1.15,7.46,3.77a40.79,40.79,0,0,1,4.5-5.06,3.3,3.3,0,0,1,1.35-.88c1.34-.33,2.47,1,2.88,2.36s.53,2.81,1.51,3.77c1.38,1.36,3.66.92,5.52.38L77.16,177A6.18,6.18,0,0,0,86.88,183c.93-.68,1.8-1.67,3-1.62,2,.08,2.37,2.86,2.12,4.84l18.4-5.77a2.86,2.86,0,0,1,2.05-.12c.55.26.87.84,1.38,1.17,1.41.93,3.24-.44,4.06-1.91s1.41-3.28,3-4c2.15-.93,4.77,1,6.91,0a5.6,5.6,0,0,0,2.16-2.28c3-4.68,5.82-7.89,5.84-13.52S135.4,148.78,135.14,143.23Z" style="fill: #8e5e2e"/>
      <g style="clip-path: url(#a)">
        <path d="M35.56,128.54c1.67,6-5.26,12.3-2.8,18,2,4.71,9.65,6.55,9.21,11.66-.18,2-1.73,4.22-.61,5.94,1,1.55,3.37,1.31,5,2.27,3,1.83,1.81,6.37,2.1,9.91.39,5,3.8,10,4.7,15.17.55,3.18,1.78,6.6,4.63,8.12s7.35-.48,7-3.68c4,4.13,8.34,8.46,14,9.54s12.53-3,12.06-8.67l11.23,5a11.59,11.59,0,0,0,4,1.24c5.15.28,8-5.7,9.52-10.63l13.18,3c.12-4.52,5.32-6.87,9.65-8.17l-15.13-8.51a5,5,0,0,1-3.42-5.42c-.47-15.41-2-30.07-.52-45.37" style="fill: #e2debc"/>
      </g>
    </g>
    <path d="M128.83,124a74.65,74.65,0,0,1,7.51,36.17" style="fill: none;stroke: #000;stroke-linecap: round;stroke-linejoin: round;stroke-width: 3px"/>
    <path d="M21.37,117.88C10.77,129.94,2.78,142,1.5,150.65" style="fill: #8e5e2e;stroke: #000;stroke-linecap: round;stroke-linejoin: round;stroke-width: 3px"/>
    <path d="M118.74,128.45c1,7.63,2.29,16.56-3,22.72C105,163.76,90.54,173.45,73.08,170.93a43.52,43.52,0,0,1-35-28.08c-4.82-13.4,3-29.32,18.33-35.69,7.62-2.68,16.12-2.71,24.46-2.14,6.16.58,12.27,1.34,18.34,2.18a29.48,29.48,0,0,1,8.51,2c7,3.25,9.57,10.82,10.78,17.77C118.6,127.5,118.68,128,118.74,128.45Zm-5.4.09c-1-6.55-4.16-12.44-9.85-15.32a24.91,24.91,0,0,0-7.26-2c-5.18-.9-10.42-1.66-15.73-2.17-7.13-.67-14.48-.73-21.1,1.47C46.34,115.77,40,128.8,44.56,139.59c4.94,11.64,16.18,19.91,28.24,23,12.34,3.14,23.24-.77,32.78-8.78C111.83,148.54,114.77,137.87,113.34,128.54Z" style="fill: #872b30;stroke: #000;stroke-linecap: round;stroke-linejoin: round;stroke-width: 3px"/>
    <g>
      <path d="M125.34,134.57c.32-7.27,4.48-11.19,9.62-15.79a5.7,5.7,0,0,0,2.27-3.26,12.94,12.94,0,0,0-.63-4.82c-4-17-5-34.32-7.44-49.42-.24-1.52,7.07-8.09,8.45-9.58a31.1,31.1,0,0,0,6.65-11.19c3-8.66,7-15.19,12.22-23.87A7.65,7.65,0,0,0,157.62,14a4.31,4.31,0,0,0-.6-2.6c-5.38-10.68-23.76-.82-31.23,5-5.31,4.15-7.8,9-11.8,12.44-.94.81-6.89,8.82-7.35,8.78-6.94-.57-13.56-.27-20.62-1.31-9.25-1.85-17.91-1.64-25.66,1.23-7-9-17.6-18.61-32.54-29.51-6-4.36-13-8.5-17.85-5.57-2.9,1.77-.43,14.13-.38,17.18C9.7,26.47,9.1,33,12.19,39.3A45.87,45.87,0,0,0,17,46.66l7.74,10.22c2.18,2.87,4.36,6,4.85,9.63.14,1-1.83,9.65-2.7,8.63,3.83,4.51-8.37,40-7.14,40.62,4.21,2,6.91,2.82,11.17,8,3.83,4.69,7.41,10.13,9.13,15.25-.3-.91,12.14-.23,13-.16,9.84.82,18.32.68,27.74,4.5" style="fill: #8e5e2e"/>
      <g style="clip-path: url(#b)">
        <path d="M101.09,143.36c-.23-2.73-.49-5.35-.76-7.88-5.71,0-11.42,0-17.14,0a3.24,3.24,0,0,0-2.1.48,2.41,2.41,0,0,0-.64,1.53c-.29,1.84-.59,3.72-.88,5.66-.19,1.21-1.3.34-1.28,1.58a92,92,0,0,0,15.15,2.09,9.49,9.49,0,0,0,5.17-.76C100.13,145.22,102.18,144.62,101.09,143.36Z" style="fill: #e2debc"/>
      </g>
      <path d="M125.34,134.57c.32-7.27,4.48-11.19,9.62-15.79a5.7,5.7,0,0,0,2.27-3.26,12.94,12.94,0,0,0-.63-4.82c-4-17-5-34.32-7.44-49.42-.24-1.52,7.07-8.09,8.45-9.58a31.1,31.1,0,0,0,6.65-11.19c3-8.66,7-15.19,12.22-23.87A7.65,7.65,0,0,0,157.62,14a4.31,4.31,0,0,0-.6-2.6c-5.38-10.68-23.76-.82-31.23,5-5.31,4.15-7.8,9-11.8,12.44-.94.81-6.89,8.82-7.35,8.78-6.94-.57-13.56-.27-20.62-1.31-9.25-1.85-17.91-1.64-25.66,1.23-7-9-17.6-18.61-32.54-29.51-6-4.36-13-8.5-17.85-5.57-2.9,1.77-.43,14.13-.38,17.18C9.7,26.47,9.1,33,12.19,39.3A45.87,45.87,0,0,0,17,46.66l7.74,10.22c2.18,2.87,4.36,6,4.85,9.63.14,1-1.83,9.65-2.7,8.63,3.83,4.51-8.37,40-7.14,40.62,4.21,2,6.91,2.82,11.17,8,3.83,4.69,7.41,10.13,9.13,15.25-.3-.91,12.14-.23,13-.16,9.84.82,18.32.68,27.74,4.5" style="fill: none;stroke: #000;stroke-linecap: round;stroke-linejoin: round;stroke-width: 3px"/>
    </g>
    <path d="M70.48,69.49a4.17,4.17,0,0,1,1.62.83c2.09,1.75,2.12,6.19.83,8.37-1.86,3.11-5.73,4.58-9.35,4.41-1.78-.09-3.7-.62-4.73-2.08a5.16,5.16,0,0,1-.73-3.71,7.46,7.46,0,0,1,4.1-5.59C64.43,70.58,67.76,68.79,70.48,69.49Z" style="fill: #512510;stroke: #000;stroke-linecap: round;stroke-linejoin: round;stroke-width: 3px"/>
    <path d="M105.62,69.26a3.71,3.71,0,0,0-1.48.75c-1.9,1.6-1.94,5.65-.75,7.64,1.69,2.84,5.23,4.19,8.53,4a5.51,5.51,0,0,0,4.32-1.89,4.72,4.72,0,0,0,.67-3.39,6.85,6.85,0,0,0-3.74-5.11C111.15,70.25,108.11,68.61,105.62,69.26Z" style="fill: #512510;stroke: #000;stroke-linecap: round;stroke-linejoin: round;stroke-width: 3px"/>
    <path d="M106.26,120.61a13.69,13.69,0,0,1-3.23,4.94,12.62,12.62,0,0,1-3.93,2.69,20,20,0,0,1-6.5,1.23,32.94,32.94,0,0,1-7.6.07,9.29,9.29,0,0,1-5.53-3.34A149.11,149.11,0,0,1,68.71,111c2.06-1.59,5.74-1.08,8.9-.58,5.76.82,11.54,1.94,17.52,2.93,4.3.66,8.67,1.41,12.62,3.21,1.27.58,2.71,1.88,2,3.06C108.89,119.81,107.19,120.44,106.26,120.61Z" style="stroke: #000;stroke-linecap: round;stroke-linejoin: round;stroke-width: 3px"/>
    <path d="M107.33,118.16l3.48,14.05c.84,3.42,1.68,7.08.46,10.38-2.8,7.59-8.4,7.69-14.25,3.73a20.33,20.33,0,0,1-4.52-3.78c-3.63-4.45-4.11-13.37-5.41-18.84-.47-2,1.72-2.77,3.25-4.12a34.27,34.27,0,0,1,7.51-5,10.58,10.58,0,0,1,5.7-1.37C105.52,113.44,106.86,116.24,107.33,118.16Z" style="fill: #b48285;stroke: #000;stroke-linecap: round;stroke-linejoin: round;stroke-width: 3px"/>
    <path d="M98.48,121.1l2.81,11.33" style="fill: none;stroke: #000;stroke-linecap: round;stroke-linejoin: round;stroke-width: 3px"/>
    <path d="M117.08,103.58c1.41,2.94,1,6.84-.42,10.06a9.77,9.77,0,0,1-6.92,5.42,8.84,8.84,0,0,1-5.22-.67c-2.15-1-3.07-3.35-3.27-5.79A69.71,69.71,0,0,0,100,105a15.36,15.36,0,0,1-.19,8.94,6.12,6.12,0,0,1-2.22,3c-3.62,2.74-10.17,3.48-14.89,3.38s-7.83-1.68-10.38-4.74a110.52,110.52,0,0,0-15.45-11.28" style="fill: #8e5e2e;stroke: #000;stroke-linecap: round;stroke-linejoin: round;stroke-width: 3px"/>
    <path d="M83.86,84.54c-.4-2,1.27-4.63,3.23-4a6,6,0,0,1,2,1.69c4.34,4.28,16.62,5.68,7.27,13.22-1.72,1.39-4.68,3.19-6.86,1.8C87.69,96.11,84.32,86.83,83.86,84.54Z" style="fill: #e2debc"/>
    <path d="M103.48,100.49a10.49,10.49,0,0,0,6.46-11.33,2.05,2.05,0,0,0-.6-1.3,2.31,2.31,0,0,0-1.49-.39,78,78,0,0,0-14.24.86,4.15,4.15,0,0,0-2.45,1c-1,1-.75,2.68-.37,4a12.25,12.25,0,0,0,3.07,5.86c1.63,1.52,4.27,2.16,6.14.93C101.07,100.11,102.4,100.49,103.48,100.49Z" style="stroke: #000;stroke-linecap: round;stroke-linejoin: round;stroke-width: 3px"/>
    <path d="M49.26,47.53c-3.75-.14-3.39,4-5.51,7.93-1.18,1.85-3.48,3.18-4.81,1.79-5-5.6-10.67-14.45-13.21-21.92-2.17-7.24,3.55-13.95,3.19-17.16" style="fill: #e2debc"/>
    <path d="M49,46.55C39.51,29.14,28.29,15.19,18.77,9.87c-1.07-.56-2.53-1-3.28-.11A2.77,2.77,0,0,0,15,11.14c-.14.92-.27,1.84-.41,2.76" style="fill: none;stroke: #000;stroke-linecap: round;stroke-linejoin: round;stroke-width: 3px"/>
    <path d="M68.57,77.2c.73-1.26.73-2.88-.85-3.53a2.06,2.06,0,0,0-1.5.12A3.45,3.45,0,0,0,64,76.66a2.14,2.14,0,0,0,1.14,2,2.32,2.32,0,0,0,1.33.16A3.26,3.26,0,0,0,68.57,77.2Z" style="stroke: #000;stroke-linecap: round;stroke-linejoin: round;stroke-width: 3px"/>
    <path d="M107.28,77.2c-.73-1.26-.73-2.88.85-3.53a2.06,2.06,0,0,1,1.5.12,3.45,3.45,0,0,1,2.27,2.87,2.14,2.14,0,0,1-1.14,2,2.32,2.32,0,0,1-1.33.16A3.26,3.26,0,0,1,107.28,77.2Z" style="stroke: #000;stroke-linecap: round;stroke-linejoin: round;stroke-width: 3px"/>
    <path d="M110.21,75a.82.82,0,0,1,.31-1.28.73.73,0,0,1,.54,0,1.24,1.24,0,0,1,.83,1,.78.78,0,0,1-.42.73.88.88,0,0,1-.48.06A1.17,1.17,0,0,1,110.21,75Z" style="fill: #fff;stroke: #fff;stroke-linecap: round;stroke-linejoin: round;stroke-width: 3px"/>
    <path d="M67.58,73.93c-.27-.46-.27-1.05.31-1.28a.73.73,0,0,1,.54,0,1.26,1.26,0,0,1,.83,1,.77.77,0,0,1-.42.73.8.8,0,0,1-.48.06A1.15,1.15,0,0,1,67.58,73.93Z" style="fill: #fff;stroke: #fff;stroke-linecap: round;stroke-linejoin: round;stroke-width: 3px"/>
    <path d="M73.62,62.2a15.57,15.57,0,0,1,6.4,17,9.4,9.4,0,0,1-1.88,3.63,12.6,12.6,0,0,1-4.59,2.92,82.36,82.36,0,0,1-15.12,4.89" style="fill: none;stroke: #000;stroke-linecap: round;stroke-linejoin: round;stroke-width: 3px"/>
    <path d="M105.13,62.55c-2.69-1-5.61,1.47-6.38,4.23s-.15,5.7,0,8.56a8.21,8.21,0,0,0,.45,3,7,7,0,0,0,1.63,2.1c2.79,2.78,5.86,5.71,9.76,6.26" style="fill: none;stroke: #000;stroke-linecap: round;stroke-linejoin: round;stroke-width: 3px"/>
    <path d="M129.87,28.25c-2.49,2.83-5.21,5.46-7.21,8.57-3.38,5.26-3.94,15,4.23,13.65,2-.48,2.41-1.95,3.39-4.06,2.27-4.88,4.55-9.76,6.51-14.56,2.5-5.19-2.42-6.9-1.93-8.93" style="fill: #e2debc"/>
    <path d="M121.8,52c-2.2-3.64-2-8.37-.47-12.11s4.28-6.79,7-9.69c5.43-5.76,13.33-19.24,22.64-18.08" style="fill: none;stroke: #000;stroke-linecap: round;stroke-linejoin: round;stroke-width: 3px"/>
    <path d="M129.47,63.18a64.16,64.16,0,0,1-14.73-14.41" style="fill: none;stroke: #000;stroke-linecap: round;stroke-linejoin: round;stroke-width: 3px"/>
    <path d="M73.91,173.09c1.65-2.9,4.74-4.15,7.51-4.63a21.36,21.36,0,0,1,6.43-.16c12.05,1.52,9.1,23.87-5.45,20.62a13.39,13.39,0,0,1-6-3.5C73.34,182.61,71.45,177.42,73.91,173.09Z" style="fill: #ffd815;stroke: #000;stroke-linecap: round;stroke-linejoin: round;stroke-width: 3px"/>
  </g>
</svg>
