<svg xmlns="http://www.w3.org/2000/svg" width="131.21" height="231.89" viewBox="0 0 131.21 231.89">
  <g>
    <path d="M91,150.78A235.43,235.43,0,0,0,95,118.93c.26-5.38.28-10.78,0-16.17-.22-5.08-1.6-8.57,2-12.56,3.33-3.71,7.27-7.71,11.93-7.62,3,.06,5.6,1.8,8.06,3.48a40.54,40.54,0,0,1,7.21,5.78c1.56,1.7,3.15,3.83,5.45,3.8-2.82-9.8-1.89-20.32-2.93-30.49-.74-13.31-1.11-28-8.81-36.61-2.6-2.9-6.48-4.89-10.89-3.58-5.34,1.58-9.39,7.19-13.09,12-3.48,4.54-8.91,10.33-14.46,9.19-2.75-.57-5.12-3-8.2-3.57a28.16,28.16,0,0,0-8.11-.27c-4.55.47-12.61,5.93-16,2.26A14.64,14.64,0,0,1,44.78,40q-1.68-4.26-3.51-8.35c-1.7-3.79-3.9-7.9-8-9.57s-8.4-.19-11.42,1.83C9.5,32.09,2.3,50.08,4.36,68c.48,4.3,1.49,8.56,1.51,12.88A35.36,35.36,0,0,1,1.5,97.26c7-1.65,10.38-10,16.77-13.57A4.19,4.19,0,0,1,20.6,83c6.48.63,1.62,15.32,1.4,18.23a56.48,56.48,0,0,0,3.67,25.81c2.63,12,6.59,25.15,8.26,36.23,1.84,8.13,5.15,19.68,16.35,18.6,4-.39,7.78-2.67,11.88-2.23,2.09.19,4,1.11,5.91,1.59,6.78,1.65,11.56-2.23,15.19-7.4C87.52,167.77,89.43,159.11,91,150.78Z" style="fill: #999;stroke: #000;stroke-linecap: round;stroke-linejoin: round;stroke-width: 3px"/>
    <path d="M70.75,123.45q-.07,7.68-.14,15.28" style="fill: none;stroke: #000;stroke-linecap: round;stroke-linejoin: round;stroke-width: 3px"/>
    <path d="M27.54,92.76Q34.24,83.34,41,73.82c4-5.74,9.07-6.5,15.44-7.76,7-1.4,15.25-1.56,20,4,1.61,1.88,2.67,4.27,4.43,6,2.47,2.38,6,3.11,8.56,5.33a19.62,19.62,0,0,1,3.78,5c3.07,5.2,5.92,10.91,5.87,17.21,0,6.71-3.86,13.59-9.6,16.46s-13.13,1.07-18.36-4.84a15.1,15.1,0,0,1-3.61-7.69A48.76,48.76,0,0,0,57.38,83.78,1.94,1.94,0,0,0,55.23,83c-.64,6-1.77,12.08-2.64,17.92-.43,3-.69,5.94-.94,9-.4,5-.78,10.15-2.77,14.34-1.38-3.06-2.74-6.11-4.15-9.17a1.93,1.93,0,0,0-.62-.86,1.86,1.86,0,0,0-1.26-.12c-3.07.4-6.1.79-9.08,1.15s-3.91-1.76-5.15-4.61C25.59,103.78,23.28,98.75,27.54,92.76Z" style="stroke: #000;stroke-linecap: round;stroke-linejoin: round;stroke-width: 3px"/>
    <path d="M42,96.11l.2-.24c1.47-1.71,4.56-2.6,6.19-.61A7.35,7.35,0,0,1,50,100.21a7.27,7.27,0,0,1-1.89,4.17,3.58,3.58,0,0,1-1.47,1.17,4.71,4.71,0,0,1-2.12.07C40.21,105.11,39.39,99.39,42,96.11Z" style="fill: #fff"/>
    <path d="M80.11,97.38l.2-.25c1.49-1.77,4.6-2.79,6.24-.88a7,7,0,0,1,1.69,4.86,7.61,7.61,0,0,1-1.9,4.23,3.87,3.87,0,0,1-1.49,1.23,4.73,4.73,0,0,1-2.13.17C78.36,106.44,77.53,100.77,80.11,97.38Z" style="fill: #fff"/>
    <g>
      <path d="M111.92,83.61c-.63-12.06.48-24.57.39-37.32C113.13,33,111.6,18.85,102,10.38,95.86,5,85.23,2.94,73.61,1.93A70.43,70.43,0,0,0,61,1.7,38,38,0,0,0,49.57,4.57c-24,10.14-33,35.2-33.33,62.26a140.66,140.66,0,0,0-.8,25.07c3.21,45,8.24,87.24,13.06,127l-.17-1.67a27.14,27.14,0,0,0,4.08,10.27c1.17-13.64,4.63-26.67,3.74-41.24-.85-14-3.63-28.12-6.08-42.75a49.58,49.58,0,0,1-1.49-19.34c.89-6.5,5-11.62,6.52-18.33,1.34-6,4.83-10.53,8.63-14.34,2.57-2.73,7.73-8.76,7.88-12.79-.22,12.21-2.39,22.71-.45,37.44,1.25-4.9,1.29-10.49,1.74-14.8A189.53,189.53,0,0,1,60.61,69c.53,1.25,1.48,2.27,1.39,3.71-1.18,22.09,3.89,42.46,11.18,61.47,3.09,9.05,6.31,17.92,9,26.8,1.92,6.21,3.24,12.47,4.91,18.57a81.25,81.25,0,0,0-1.41,15.24c.22,10.61-2.64,21.6-4.19,31.77a70.91,70.91,0,0,0,13.9-27.7c.29,3.71.57,7.39.86,11,12.29-21.07,14.36-46.5,16.28-71.84.46-6.07.94-12.25,1.17-18.46C114.73,107.44,113.23,95.48,111.92,83.61ZM90,162.06c-.25,2.23-.58,4.42-.94,6.59-.6-2.76-1.32-5.51-2-8.24q-1.55-5.91-3.07-12c-4.24-17.07-10.85-37.71-1-63,3.24,1.79,6.65,5.31,6.47,12.21C88.61,126.14,92.06,144.26,90,162.06Z" style="fill: #252525;stroke: #000;stroke-miterlimit: 10;stroke-width: 3px"/>
      <path d="M29.63,140.83c.15.89.3,1.77.44,2.65s.47,1.68.73,2.52C30.45,144.27,30.05,142.55,29.63,140.83Z" style="fill: #252525;stroke: #000;stroke-miterlimit: 10;stroke-width: 3px"/>
    </g>
    <path d="M51.73,117.57a126.29,126.29,0,0,0-3,19.27" style="fill: none;stroke: #000;stroke-linecap: round;stroke-linejoin: round;stroke-width: 3px"/>
    <path d="M68.79,157.37a2.45,2.45,0,0,1,.94.07c1,.35,1.18,2,.43,2.9a3.89,3.89,0,0,1-3.06,1.12,14.73,14.73,0,0,0-3.32,0,4.69,4.69,0,0,0-3.51,4.31c-.92-1.7-2-3.54-3.75-4.26-2.05-.83-11.45-.76-5.3-3.4C55.81,156.16,63.83,157.58,68.79,157.37Z" style="stroke: #000;stroke-linecap: round;stroke-linejoin: round;stroke-width: 3px"/>
    <path d="M59.63,164.94q0,7.11,0,14.08" style="fill: none;stroke: #000;stroke-linecap: round;stroke-linejoin: round;stroke-width: 3px"/>
  </g>
</svg>
